<ttFont>
<head>
    <!-- Most of this table will be recalculated by the compiler -->
    <tableVersion value="1.0"/>
    <fontRevision value="2.004"/>
    <checkSumAdjustment value="0xb40e25bf"/>
    <magicNumber value="0x5f0f3cf5"/>
    <flags value="00000000 00000011"/>
    <unitsPerEm value="1000"/>
    <created value="Thu Oct  8 09:57:50 2009"/>
    <modified value="Thu Oct  8 09:57:50 2009"/>
    <xMin value="-443"/>
    <yMin value="-292"/>
    <xMax value="1454"/>
    <yMax value="1128"/>
    <macStyle value="00000000 00000000"/>
    <lowestRecPPEM value="3"/>
    <fontDirectionHint value="2"/>
    <indexToLocFormat value="0"/>
    <glyphDataFormat value="0"/>
  </head>
          <CharString index="0">
            736 hmoveto
            31 -17 vlineto
            -62 -11 9 28 -10 hvcurveto
            -227 627 rlineto
            13 -5 -3 8 -16 hhcurveto
            -16 -2 -6 -16 -6 hvcurveto
            -215 -594 -12 -33 -23 -35 -77 -1 rlinecurve
            50 callgsubr
            27 0 37 hhcurveto
            113 29 callsubr
            -57 1 -17 31 19 vvcurveto
            9 2 5 2 5 vhcurveto
            47 129 rlineto
            259 hlineto
            54 -151 rlineto
            4 -10 1 -3 -5 vvcurveto
            -30 -56 0 -26 vhcurveto
            -31 vlineto
            3 45 52 0 46 hhcurveto
            -132 258 rmoveto
            -236 hlineto
            118 327 rlineto
            return
          </CharString>
          <CharString index="1">
            hstemhm
            hintmask 11100000
            -107 callsubr
            return
          </CharString>
          <CharString index="2">
            -10 callsubr
            hintmask 0101001110000000
            -104 callgsubr
            hintmask 0100000010000000
            -42 5 29 -36 43 hhcurveto
            25 63 15 80 hvcurveto
            -174 52 rmoveto
            hintmask 1010000100000000
            -66 callgsubr
            return
          </CharString>
          <CharString index="3">
            95 callgsubr
            7 -5 6 -9 -10 -3 -7 -4 -1 vhcurveto
            -102 -34 -89 -2 -15 hhcurveto
            -48 -41 27 34 -23 hvcurveto
            -33 49 -1 60 42 vvcurveto
            285 hlineto
            22 5 0 21 103 -56 95 -128 -120 -94 -104 -124 -131 105 -100 122 122 49 107 23 hvcurveto
            -68 134 rmoveto
            -243 hlineto
            154 9 90 16 28 hhcurveto
            55 60 -42 -128 1 hvcurveto
            return
          </CharString>
          <CharString index="4">
            -20 -105 callsubr
            return
          </CharString>
          <CharString index="5">
            752 89 rmoveto
            6 0 12 -14 -13 0 -9 -8 -1 vhcurveto
            -63 -5 -31 -24 -31 hhcurveto
            -32 -11 20 17 -8 hvcurveto
            -9 22 -9 68 -6 45 -8 62 -9 67 -111 35 rrcurveto
            95 27 78 59 78 vvcurveto
            99 -121 81 -147 vhcurveto
            -319 86 callgsubr
            hlineto
            3 47 50 0 48 hhcurveto
            48 50 0 -3 48 hvcurveto
            -45 callsubr
            250 120 vlineto
            72 32 -38 -4 4 hvcurveto
            30 -37 0 -15 -71 vvcurveto
            -67 0 -44 48 -38 vhcurveto
            -37 47 60 0 11 hhcurveto
            84 15 87 24 hvcurveto
            -227 414 rmoveto
            -86 -44 -63 -136 vhcurveto
            -116 257 hlineto
            26 2 9 19 4 vhcurveto
            2 9 32 0 21 hhcurveto
            86 127 0 -149 hvcurveto
            return
          </CharString>
          <CharString index="6">
            31 vlineto
            -68 -9 7 49 hvcurveto
            355 vlineto
            -151 -78 callgsubr
            -177 vlineto
            -89 -50 -64 -72 -83 -5 43 54 vhcurveto
            331 -20 callgsubr
            77 0 -3 -89 hvcurveto
            -150 vlineto
            -65 0 -42 46 -35 vhcurveto
            -20 29 41 -7 40 hhcurveto
            52 49 23 60 29 hvcurveto
            1 -83 return
          </CharString>
          <CharString index="7">
            101 callgsubr
            6 callsubr
            return
          </CharString>
          <CharString index="8">
            rmoveto
            -25 hlineto
            -88 -3 -67 -45 -59 hhcurveto
            -63 -65 47 86 -2 hvcurveto
            -25 hlineto
            -108 2 75 -66 77 hhcurveto
            81 72 69 105 2 hvcurveto
            return
          </CharString>
          <CharString index="9">
            -20 -106 callsubr
            hintmask 00011000
            return
          </CharString>
          <CharString index="10">
            337 hmoveto
            31 -25 vlineto
            -80 -2 12 36 hvcurveto
            525 vlineto
            36 2 12 80 vhcurveto
            25 31 hlineto
            -3 -41 -68 0 -43 hhcurveto
            -43 -68 0 3 -41 hvcurveto
            -31 25 vlineto
            68 callgsubr
            43 68 0 -3 41 hvcurveto
            return
          </CharString>
          <CharString index="11">
            -20 -97 callgsubr
            hintmask 0000110000000000
            return
          </CharString>
          <CharString index="12">
            755 243 61 callsubr
            -65 -11 0 -53 hhcurveto
            -39 -86 0 3 -35 hvcurveto
            -31 32 vlineto
            93 3 -12 -37 hvcurveto
            -63 vlineto
            -122 -152 0 -13 -82 -188 49 284 -5 callgsubr
            vhcurveto
            -13 2 1 -5 13 hhcurveto
            16 0 5 21 hvcurveto
            234 vlineto
            17 0 9 -12 -7 -3 -3 -9 -6 vhcurveto
            -51 -75 rlineto
            31 -32 -57 56 -101 hhcurveto
            -194 -164 -161 -202 -204 163 -160 196 94 72 36 49 28 hvcurveto
            -27 17 36 -35 10 hhcurveto
            11 0 9 16 hvcurveto
            172 vlineto
            40 4 5 67 vhcurveto
            return
          </CharString>
          <CharString index="13">
            757 652 61 callsubr
            -35 -29 0 -34 hhcurveto
            -113 3 rlineto
            -31 vlineto
            36 19 -16 -23 -12 -3 -5 -8 -12 hvcurveto
            -171 -269 -188 292 rlineto
            -6 10 -3 5 5 vvcurveto
            24 37 1 31 vhcurveto
            31 vlineto
            -3 -41 -61 0 -43 hhcurveto
            -132 3 rlineto
            -31 17 vlineto
            60 14 -8 -28 18 hvcurveto
            220 -343 rlineto
            -194 -59 callsubr
            47 50 0 48 hhcurveto
            48 50 0 -3 48 hvcurveto
            31 -23 vlineto
            -76 -3 11 36 hvcurveto
            195 vlineto
            198 310 20 32 31 36 79 1 rlinecurve
            return
          </CharString>
          <CharString index="14">
            rmoveto
            -58 156 rlineto
            9 -5 -10 10 -16 hhcurveto
            -16 -24 -14 -24 -5 1 -9 11 -14 hvcurveto
            93 -122 rlineto
            -147 13 rmoveto
            -58 156 rlineto
            9 -5 -10 10 -16 hhcurveto
            -16 -24 -14 -24 -5 1 -9 11 -14 hvcurveto
            93 -122 rlineto
            endchar
          </CharString>
          <CharString index="15">
            hintmask 00010000
            1036 652 61 callsubr
            -31 -32 0 -31 hhcurveto
            -118 3 rlineto
            -31 vlineto
            63 -1 23 -30 -23 vvcurveto
            -5 -2 -4 -2 -7 vhcurveto
            -156 -467 -164 491 rlineto
            hintmask 00100000
            -1 4 -3 7 4 vvcurveto
            31 57 0 27 vhcurveto
            hintmask 01010000
            109 callgsubr
            -50 0 -45 hhcurveto
            -55 -7 0 3 -62 hvcurveto
            -31 vlineto
            51 19 -2 -17 11 hvcurveto
            9 -13 20 -68 0 vvcurveto
            0 -3 -11 -1 -2 vhcurveto
            -141 -424 -163 488 rlineto
            hintmask 00100000
            -5 13 0 2 3 vvcurveto
            31 57 0 27 vhcurveto
            hintmask 11010000
            109 callgsubr
            -50 0 -45 hhcurveto
            -55 -7 0 3 -62 hvcurveto
            -31 vlineto
            57 20 0 -38 13 hvcurveto
            205 -616 rlineto
            -14 5 5 -6 12 hhcurveto
            8 8 2 19 6 hvcurveto
            169 509 170 -506 rlineto
            -17 6 2 -7 14 hhcurveto
            12 5 6 14 5 hvcurveto
            194 583 15 45 27 25 59 1 rlinecurve
            return
          </CharString>
          <CharString index="16">
            rmoveto
            -18 17 rlineto
            hintmask 00100000
            -76 callsubr
            hintmask 00010000
            -75 callsubr
            hintmask 00100000
            18 -17 rlineto
            hintmask 00010000
            -75 callgsubr
            hintmask 00100000
            -79 callgsubr
          </CharString>
          <CharString index="17">
            501 474 rmoveto
            34 -22 30 26 callsubr
            4 3 1 4 hhcurveto
            -12 -20 -19 -15 -23 -6 rrcurveto
            36 -41 -53 21 -54 hhcurveto
            -61 -58 -25 -44 -42 hvcurveto
            -43 -44 -24 -60 -62 vvcurveto
            -59 25 -57 42 -42 vhcurveto
            -42 43 58 -23 60 hhcurveto
            60 58 23 42 43 hvcurveto
            42 42 24 57 59 vvcurveto
            57 -20 55 -37 44 vhcurveto
            45 9 30 46 51 vvcurveto
            -104 -250 rmoveto
            -53 -2 -54 -29 -43 vhcurveto
            -36 -25 -41 -21 -44 hhcurveto
            -44 -41 21 36 -25 hvcurveto
            -30 43 -1 54 53 vvcurveto
            50 2 52 29 40 vhcurveto
            36 25 41 20 44 hhcurveto
            43 41 -20 -36 26 hvcurveto
            29 -40 2 -52 -50 vvcurveto
            return
          </CharString>
          <CharString index="18">
            721 400 61 callsubr
            -40 -2 0 -33 hhcurveto
            -38 -14 0 3 -40 hvcurveto
            -31 vlineto
            43 -1 14 -27 -20 vvcurveto
            -10 -2 -6 -3 -7 vhcurveto
            -92 -250 -101 274 rlineto
            -5 13 0 3 3 vvcurveto
            26 31 2 26 vhcurveto
            31 vlineto
            -3 -46 -41 0 -16 hhcurveto
            -31 -29 0 3 -32 hvcurveto
            -31 vlineto
            32 20 -1 -14 11 hvcurveto
            9 -11 13 -40 -3 vvcurveto
            -5 -14 -82 -225 -95 260 rlineto
            -6 15 134 callgsubr
            27 39 0 19 vhcurveto
            31 vlineto
            -109 -3 rlineto
            -33 -29 0 3 -34 hvcurveto
            -31 vlineto
            48 13 -2 -34 12 hvcurveto
            129 -353 rlineto
            -12 5 3 -10 15 hhcurveto
            15 4 11 10 4 hvcurveto
            102 280 103 -280 rlineto
            -10 4 4 -11 15 hhcurveto
            15 3 10 10 4 hvcurveto
            119 325 22 61 41 4 21 1 rlinecurve
            return
          </CharString>
          <CharString index="19">
            48 callgsubr
            hintmask 11001100
            -100 callgsubr
            return
          </CharString>
          <CharString index="20">
            156 28 -54 -140 16 hvcurveto
            28 hlineto
            -28 225 rlineto
            -575 -68 callsubr
            return
          </CharString>
          <CharString index="21">
            -20 -88 callsubr
            hintmask 00110000
            return
          </CharString>
          <CharString index="22">
            -85 callgsubr
            47 19 1 return
          </CharString>
          <CharString index="23">
            82 callgsubr
            hintmask 11001100
            547 hmoveto
            -101 callsubr
            hlineto
            return
          </CharString>
          <CharString index="24">
            35 callsubr
            27 21 22 27 vhcurveto
            return
          </CharString>
          <CharString index="25">
            520 400 61 callsubr
            -32 -31 0 -13 hhcurveto
            -28 -31 1 2 -28 hvcurveto
            -31 vlineto
            46 -2 0 -36 -4 vvcurveto
            -11 -4 -10 -4 -8 vhcurveto
            -101 -238 -112 262 rlineto
            -6 14 0 7 0 vvcurveto
            26 34 0 21 vhcurveto
            31 vlineto
            -111 -3 rlineto
            -3 -57 0 3 -39 hvcurveto
            -31 vlineto
            45 19 -2 -27 12 hvcurveto
            158 -371 -25 -59 rlineto
            -53 -22 -29 -68 -65 hhcurveto
            -25 -17 13 2 -3 hvcurveto
            return
          </CharString>
          <CharString index="26">
            -20 -84 callsubr
            return
          </CharString>
          <CharString index="27">
            72 callsubr
            2 45 21 1 44 hhcurveto
            16 42 0 -3 49 hvcurveto
            return
          </CharString>
          <CharString index="28">
            755 hmoveto
            31 vlineto
            -63 -14 9 46 -32 hvcurveto
            -234 332 187 173 63 59 62 1 17 1 rlinecurve
            31 vlineto
            -3 -29 -50 0 -10 hhcurveto
            -124 3 rlineto
            -31 vlineto
            28 -1 15 -13 -19 vvcurveto
            -8 -3 -8 -5 -7 vhcurveto
            -333 -308 rlineto
            316 -98 callgsubr
            -525 -66 callsubr
            171 vlineto
            122 113 187 -266 rlineto
            8 -11 9 -15 -11 vvcurveto
            -29 -39 0 -18 vhcurveto
            -31 vlineto
            3 44 50 0 45 hhcurveto
            26 40 0 -3 51 hvcurveto
            return
          </CharString>
          <CharString index="29">
            -87 callsubr
            588 hlineto
            hintmask 0000000000100000
            return
          </CharString>
          <CharString index="30">
            vlineto
            -37 -2 -11 -77 vhcurveto
            -23 return
          </CharString>
          <CharString index="31">
            -27 -27 -23 -19 -31 hhcurveto
            -22 -19 9 17 -31 hvcurveto
            return
          </CharString>
          <CharString index="32">
            7 -13 -23 13 -24 hhcurveto
            -37 -19 -20 -59 -54 hvcurveto
            return
          </CharString>
          <CharString index="33">
            -49 callgsubr
            200 hmoveto
            -58 callgsubr
          </CharString>
          <CharString index="34">
            106 75 52 63 59 13 -49 -60 -67 callsubr
            return
          </CharString>
          <CharString index="35">
            rmoveto
            -49 -37 -7 -28 -20 -45 3 53 49 37 7 28 20 45 -3 -53 vhcurveto
            35 -1 rmoveto
            50 -45 39 -55 -58 -42 -41 -46 -50 45 -39 55 58 42 41 46 vhcurveto
            return
          </CharString>
          <CharString index="36">
            rmoveto
            24 -24 14 -16 -16 -10 -10 -9 -5 vhcurveto
            -58 -156 24 -13 93 122 rlineto
            11 14 1 9 5 vvcurveto
            171 hmoveto
            24 -24 14 -16 -16 -10 -10 -9 -5 vhcurveto
            -58 -156 24 -13 93 122 rlineto
            11 14 1 9 5 vvcurveto
            endchar
          </CharString>
          <CharString index="37">
            hstemhm
            113 -67 callgsubr
            return
          </CharString>
          <CharString index="38">
            576 267 rmoveto
            -28 hlineto
            -138 -8 -19 -95 -188 hhcurveto
            -171 hlineto
            400 612 rlineto
            8 12 0 2 6 vvcurveto
            17 -8 0 -19 vhcurveto
            -461 hlineto
            -11 -225 rlineto
            28 hlineto
            127 7 44 67 154 hhcurveto
            162 hlineto
            -401 -613 rlineto
            -8 -12 0 -2 -7 vvcurveto
            -18 7 0 20 vhcurveto
            475 hlineto
            return
          </CharString>
          <CharString index="39">
            -63 callsubr
            -522 -74 callgsubr
            return
          </CharString>
          <CharString index="40">
            vhcurveto
            -231 -89 callgsubr
            return
          </CharString>
          <CharString index="41">
            -71 callgsubr
            31 -23 vlineto
            -77 -2 11 37 hvcurveto
            return
          </CharString>
          <CharString index="42">
            rmoveto
            -152 162 -152 -162 13 -14 139 108 139 -108 rlineto
            return
          </CharString>
          <CharString index="43">
            42 vstem
            683 342 rmoveto
            188 -153 153 -188 -189 -153 -153 -188 -189 153 -153 189 188 153 153 189 vhcurveto
            -42 hmoveto
            -166 -134 -134 -165 -166 -134 134 166 165 134 134 166 165 134 -134 -165 vhcurveto
            return
          </CharString>
          <CharString index="44">
            -31 23 hlineto
            77 2 -11 -37 hvcurveto
            return
          </CharString>
          <CharString index="45">
            898 30 callgsubr
            -168 hlineto
            -21 -7 0 -18 -7 hvcurveto
            -224 -567 -224 563 rlineto
            20 -8 -1 2 -27 hhcurveto
            -168 -63 callsubr
            -498 vlineto
            -27 0 -48 -102 108 callsubr
            55 14 1 49 hhcurveto
            48 15 -1 -2 54 hvcurveto
            31 vlineto
            -102 0 48 27 hvcurveto
            535 vlineto
            1 1 246 -620 rlineto
            -13 5 4 -9 12 hhcurveto
            11 5 9 9 4 hvcurveto
            250 632 1 -1 rlineto
            47 callgsubr
            60 67 0 15 hhcurveto
            6 74 0 -3 63 hvcurveto
            return
          </CharString>
          <CharString index="46">
            727 336 rmoveto
            190 -139 157 -176 vhcurveto
            -372 86 callgsubr
            372 hlineto
            173 142 148 188 hvcurveto
            -99 hmoveto
            -41 0 -105 -55 -70 vhcurveto
            -68 -52 -72 -21 -63 hhcurveto
            -108 -46 callgsubr
            539 vlineto
            34 2 7 47 vhcurveto
            107 hlineto
            97 60 -51 -36 27 hvcurveto
            44 -58 15 -72 -99 vvcurveto
            return
          </CharString>
          <CharString index="47">
            -83 callsubr
            endchar
          </CharString>
          <CharString index="48">
            -53 callsubr
            3 return
          </CharString>
          <CharString index="49">
            -48 rmoveto
            490 vlineto
            -156 -11 rlineto
            -31 vlineto
            76 9 -7 -49 hvcurveto
            -395 vlineto
            -29 -4 -100 -68 -3 -26 0 12 -24 vhcurveto
            32 10 0 28 6 vvcurveto
            26 -19 20 -27 -29 -18 -20 -27 return
          </CharString>
          <CharString index="50">
            rmoveto
            -13 14 -139 -108 -139 108 -13 -14 152 -162 rlineto
            endchar
          </CharString>
          <CharString index="51">
            rmoveto
            -249 hlineto
            -126 -3 13 19 -3 hvcurveto
            -28 hlineto
            -33 -209 rlineto
            28 hlineto
            4 23 8 56 13 12 rrcurveto
            6 7 79 0 14 hhcurveto
            210 hlineto
            -96 -131 rlineto
            -130 -179 -12 -163 -57 vvcurveto
            -11 0 -45 46 47 0 44 13 vhcurveto
            49 vlineto
            147 22 116 53 72 vhcurveto
            140 191 rlineto
            9 11 0 2 21 vvcurveto
            endchar
          </CharString>
          <CharString index="52">
            133 -98 callsubr
            return
          </CharString>
          <CharString index="53">
            -86 callsubr
            -88 return
          </CharString>
          <CharString index="54">
            -74 callgsubr
            hlineto
            return
          </CharString>
          <CharString index="55">
            57 -28 -54 vlineto
            -74 -31 -36 -36 -67 0 88 18 vhcurveto
            277 145 31 -145 184 -28 vlineto
            -1 -84 -35 -103 -97 -3 rrcurveto
            -25 vlineto
            return
          </CharString>
          <CharString index="56">
            742 -11 25 -25 28 77 25 108 24 -22 24 41 94 35 25 hstemhm
            46 80 40 62 118 62 237 67 hintmask 0100100001000000
            712 119 rmoveto
            7 -5 6 -9 -11 -2 -7 -4 -1 vhcurveto
            -101 -32 -78 -3 -16 hhcurveto
            -12 -138 1 211 hvcurveto
            277 hlineto
            hintmask 0111011110100000
            23 4 0 22 108 -58 89 -113 -87 -47 -54 -21 -19 hvcurveto
            31 -23 -52 44 -85 hhcurveto
            -86 -69 -43 -63 -31 21 -17 26 27 19 20 26 43 -45 5 0 hvcurveto
            32 37 51 3 17 hhcurveto
            51 57 -38 -88 hvcurveto
            -46 vlineto
            -162 -126 -59 -98 -78 91 -27 72 123 45 76 10 6 hvcurveto
            -57 43 66 -29 61 hhcurveto
            115 44 110 20 hvcurveto
            -67 134 rmoveto
            hintmask 1010101100100000
            -236 hlineto
            132 9 76 38 46 hhcurveto
            98 5 -134 -36 2 hvcurveto
            -299 -121 rmoveto
            -71 -67 -47 -63 -52 -38 36 44 vhcurveto
            hintmask 0001000001000000
            54 45 73 163 6 vhcurveto
            -23 0 -15 9 -37 vhcurveto
            3 -8 0 -2 -10 vvcurveto
            endchar
          </CharString>
          <CharString index="57">
            514 -11 25 -20 35 211 25 158 25 return
          </CharString>
          <CharString index="58">
            rmoveto
            108 -2 -75 66 -77 hhcurveto
            -81 -72 -69 -105 -2 hvcurveto
            25 hlineto
            88 3 67 45 59 hhcurveto
            63 65 -47 -86 2 hvcurveto
            endchar
          </CharString>
          <CharString index="59">
            928 0 31 41 31 210 31 308 31 hstemhm
            177 84 167 84 193 28 109 28 0 28 hintmask 1111011010000000
            898 258 rmoveto
            -28 hlineto
            -155 -25 -21 -72 -163 hhcurveto
            -100 -46 callgsubr
            241 88 vlineto
            95 10 -32 -85 hvcurveto
            28 265 -28 hlineto
            -84 -10 -33 -95 vhcurveto
            -88 267 hlineto
            34 2 7 47 vhcurveto
            102 hlineto
            hintmask 1111110100000000
            143 20 -60 -134 16 hvcurveto
            28 hlineto
            -28 225 rlineto
            -573 -31 45 hlineto
            11 18 -1 12 hhcurveto
            -207 -550 rlineto
            -34 -13 -23 -36 -78 hhcurveto
            -31 vlineto
            3 43 52 0 7 hhcurveto
            113 29 callsubr
            -41 1 -31 18 32 vvcurveto
            8 0 1 5 12 vhcurveto
            79 210 rlineto
            167 -236 hlineto
            -46 -11 0 -65 vhcurveto
            -31 503 vlineto
            hintmask 0010010010000000
            -427 344 rmoveto
            -155 hlineto
            114 304 rlineto
            41 -2 0 -25 -19 vvcurveto
            endchar
          </CharString>
          <CharString index="60">
            771 0 31 35 31 483 31 41 31 hstem
            744 hmoveto
            31 -17 vlineto
            -48 -25 4 31 -21 hvcurveto
            -220 319 142 202 rlineto
            64 45 80 1 21 hhcurveto
            31 vlineto
            -3 -51 -37 0 -23 hhcurveto
            -126 3 rlineto
            -31 vlineto
            42 -1 18 -25 -19 vvcurveto
            -9 -3 -7 -8 -11 vhcurveto
            -119 -168 -134 193 rlineto
            -3 4 -5 7 6 vvcurveto
            10 18 19 45 1 vhcurveto
            31 vlineto
            -3 -41 -61 0 -43 hhcurveto
            -130 3 rlineto
            -31 17 vlineto
            69 8 -12 -29 20 hvcurveto
            189 -272 -170 -242 rlineto
            -65 -46 -78 -1 -23 hhcurveto
            -31 vlineto
            3 51 39 0 22 hhcurveto
            125 29 callsubr
            -46 2 -14 28 15 vvcurveto
            11 5 7 5 7 vhcurveto
            149 211 162 -236 rlineto
            8 -10 0 -2 -3 vvcurveto
            -12 -22 -17 -40 -1 vhcurveto
            -31 vlineto
            3 45 53 0 46 hhcurveto
            endchar
          </CharString>
          <CharString index="61">
            799 -11 25 -25 28 74 28 104 28 -22 24 170 25 hstemhm
            29 80 282 74 237 67 hintmask 0100100100000000
            769 119 rmoveto
            7 -5 6 -9 -11 -2 -7 -4 -1 vhcurveto
            -101 -32 -78 -3 -16 hhcurveto
            -12 -138 1 211 hvcurveto
            277 hlineto
            hintmask 0111011010000000
            23 4 0 22 108 -58 89 -113 -89 -57 -59 -40 -25 hvcurveto
            39 -25 -61 60 -93 hhcurveto
            -118 -101 -99 -130 -128 100 -102 119 72 68 37 65 40 hvcurveto
            -46 29 65 -56 88 hhcurveto
            115 44 110 20 hvcurveto
            -67 134 rmoveto
            hintmask 1000110010000000
            -236 hlineto
            132 9 76 38 46 hhcurveto
            98 5 -134 -36 2 hvcurveto
            -311 -30 rmoveto
            -191 -113 -18 -29 vhcurveto
            hintmask 0001011100000000
            -31 -109 16 193 191 115 9 25 28 114 -15 -185 hvcurveto
            endchar
          </CharString>
          <CharString index="62">
            31 -23 vlineto
            -77 -2 11 37 hvcurveto
            return
          </CharString>
          <CharString index="63">
            30 -24 24 -30 return
          </CharString>
          <CharString index="64">
            742 0 66 -45 66 593 25 hstemhm
            57 102 423 102 hintmask 10111000
            695 163 rmoveto
            -28 hlineto
            -6 -27 -7 -32 -5 -14 rrcurveto
            -16 -6 -3 -8 -58 hhcurveto
            -80 hlineto
            13 50 22 38 47 69 rrcurveto
            52 75 48 70 86 vvcurveto
            138 -138 113 -175 -179 -135 -115 -136 -87 50 -72 48 -70 vhcurveto
            52 -76 20 -36 12 -47 rrcurveto
            -80 hlineto
            hintmask 01000000
            -58 -3 8 13 -5 hvcurveto
            -6 15 -8 35 -5 26 rrcurveto
            -28 hlineto
            hintmask 10000000
            34 -163 rlineto
            164 hlineto
            hintmask 01111000
            22 5 0 21 71 -32 83 -30 76 hvcurveto
            -26 67 -24 67 70 vvcurveto
            152 110 73 101 106 106 -77 -148 -74 -27 -69 -24 -61 vhcurveto
            -29 -77 -32 -82 -71 vvcurveto
            hintmask 10000000
            -21 5 0 22 vhcurveto
            164 hlineto
            endchar
          </CharString>
          <CharString index="65">
            217 -40 callsubr
            return
          </CharString>
          <CharString index="66">
            -106 -53 -71 -51 -21 -66 13 163 165 66 12 21 53 51 -74 -102 vhcurveto
            return
          </CharString>
          <CharString index="67">
            604 -83 callsubr
            return
          </CharString>
          <CharString index="68">
            22 callsubr
            93 90 20 28 152 28 0 28 return
          </CharString>
          <CharString index="69">
            3 vlineto
            -19 80 -33 77 -44 71 44 70 33 77 19 81 rrcurveto
            1 0 0 1 vvcurveto
            6 -5 5 -6 vhcurveto
            -3 hlineto
            -5 -4 -3 -4 -1 hvcurveto
            -31 -85 -49 -78 -65 -63 rrcurveto
            -2 -2 -1 -3 -3 vvcurveto
            -3 1 -3 2 -2 vhcurveto
            65 -64 49 -77 31 -86 rrcurveto
            -4 1 4 -3 5 hhcurveto
            3 hlineto
            6 5 5 6 hvcurveto
            return
          </CharString>
          <CharString index="70">
            -24 rmoveto
            87 -69 74 -96 21 vhcurveto
            93 35 44 73 69 vvcurveto
            hintmask 0000100000100000
            77 -85 60 -104 vhcurveto
            hintmask 0000000100000000
            -104 -78 -59 -76 hvcurveto
            hintmask 0001000001000000
            -33 22 -19 29 vhcurveto
            hintmask 0000000100000000
            29 21 21 29 hvcurveto
            hintmask 0011010010001000
            35 -24 15 -34 vhcurveto
            42 26 61 20 49 hhcurveto
            83 16 -66 -47 -30 -6 -48 -25 -38 hvcurveto
            -31 -45 -35 -2 -29 -2 rrcurveto
            -2 -25 -2 0 -8 hhcurveto
            -9 -1 -8 -1 -11 vvcurveto
            hintmask 1110001000010100
            -36 callgsubr
          </CharString>
          <CharString index="71">
            -35 callsubr
            -20 return
          </CharString>
          <CharString index="72">
            771 0 -4 callsubr
            return
          </CharString>
          <CharString index="73">
            rmoveto
            35 -371 -35 vlineto
            endchar
          </CharString>
          <CharString index="74">
            -148 -78 callgsubr
            -519 vlineto
            -46 -11 0 -66 vhcurveto
            -31 vlineto
            111 3 111 -3 rlineto
            -56 callgsubr
            101 vlineto
            64 54 97 -131 rlineto
            16 -22 8 -12 -14 vvcurveto
            -10 -3 -12 -31 vhcurveto
            -31 vlineto
            108 3 rlineto
            29 32 0 -3 29 hvcurveto
            return
          </CharString>
          <CharString index="75">
            457 -11 28 212 24 170 25 return
          </CharString>
          <CharString index="76">
            -28 callgsubr
            hintmask 10100100
            -88 -42 -59 -61 -82 vvcurveto
            -106 105 -67 108 116 98 82 108 vhcurveto
            -76 349 rmoveto
            -70 -60 -46 -40 -23 vhcurveto
            -122 76 rlineto
            hintmask 11011000
            -30 19 -23 27 37 vvcurveto
            65 70 39 66 77 62 -54 -70 vhcurveto
            22 -384 rmoveto
            -79 -80 -48 -79 vhcurveto
            hintmask 00100100
            -87 -73 62 83 72 50 60 70 36 hvcurveto
            126 -78 rlineto
            23 -15 50 -32 -61 vvcurveto
            endchar
          </CharString>
          <CharString index="77">
            484 213 rmoveto
            131 -104 104 -123 -127 -101 -107 -128 -111 82 -91 105 -18 vhcurveto
            -31 -31 -28 -46 -37 vvcurveto
            -60 callgsubr
            -67 3 -26 52 24 49 10 20 14 18 18 13 rrcurveto
            1 hlineto
            127 101 101 123 hvcurveto
            -86 9 rmoveto
            -37 0 -58 -25 -44 vhcurveto
            -46 -28 -46 -20 -42 hhcurveto
            -50 -42 25 39 -23 hvcurveto
            -26 42 -1 53 46 vvcurveto
            37 0 57 25 41 vhcurveto
            51 30 50 15 36 hhcurveto
            57 41 -32 -34 20 hvcurveto
            23 -42 1 -51 -42 vvcurveto
            return
          </CharString>
          <CharString index="78">
            135 rmoveto
            271 -120 66 -90 -115 -102 -93 -131 -127 92 -96 113 73 40 53 43 18 vhcurveto
            -22 vlineto
            -244 -111 -43 -57 -23 -51 4 33 -26 vhcurveto
            4 hlineto
            hintmask 0100000010000000
            8 -2 39 8 40 vvcurveto
            26 -18 20 -28 vhcurveto
            hintmask 1001010010010000
            -28 -19 -18 -30 -66 53 -43 90 129 129 132 219 hvcurveto
            -93 92 rmoveto
            -73 -33 -104 -94 -16 -49 0 62 -32 vhcurveto
            hintmask 0000011101100000
            -19 38 0 49 48 vvcurveto
            48 0 50 21 38 vhcurveto
            51 30 39 13 36 hhcurveto
            68 27 -69 -10 4 hvcurveto
            14 -37 4 -61 -43 vvcurveto
            endchar
          </CharString>
          <CharString index="79">
            203 rmoveto
            127 -92 96 -113 -60 -43 -35 -60 -28 vhcurveto
            102 11 57 27 52 vhcurveto
            41 20 49 58 74 hhcurveto
            20 46 -4 -36 23 hvcurveto
            -37 -16 -19 -27 -26 18 -20 28 28 19 18 30 56 -40 53 -91 -129 -141 -127 -223 -271 122 -67 94 hvcurveto
            hintmask 0100000010000000
            111 100 93 132 hvcurveto
            -91 1 rmoveto
            -48 0 -49 -19 -37 vhcurveto
            hintmask 1010001010000000
            -57 -31 -44 -7 -27 hhcurveto
            -57 -33 47 29 -12 hvcurveto
            -19 45 -1 83 16 vvcurveto
            67 31 108 96 16 49 0 -62 32 vhcurveto
            19 -38 0 -49 -48 vvcurveto
            endchar
          </CharString>
          <CharString index="80">
            24 -27 -26 5 -18 hhcurveto
            -24 callsubr
            15 0 45 -20 49 hvcurveto
            -35 62 56 -7 35 hhcurveto
            44 46 10 23 42 hvcurveto
            1 -1 -456 -661 rlineto
            -1 -2 -8 -11 -7 vvcurveto
            -13 10 -9 12 11 5 8 8 6 vhcurveto
            return
          </CharString>
          <CharString index="81">
            598 258 rmoveto
            -28 hlineto
            -101 -11 -14 -126 -179 hhcurveto
            -87 -46 callgsubr
            return
          </CharString>
          <CharString index="82">
            31 307 31 86 31 163 31 return
          </CharString>
          <CharString index="83">
            -77 -74 -83 -118 -122 76 -80 75 74 60 88 113 return
          </CharString>
          <CharString index="84">
            314 0 48 callsubr
            243 31 -25 25 hstemhm
            113 71 0 89 4 89 hintmask 00100100
            366 634 rmoveto
            38 -38 33 -55 vhcurveto
            hintmask 11001000
            -78 -82 -59 -100 hvcurveto
            -115 -79 -31 79 -323 8 callgsubr
            321 116 31 -119 113 vlineto
            hintmask 00010100
            91 49 45 43 vhcurveto
            hintmask 00100010
            10 10 -2 -4 10 hvcurveto
            24 callsubr
            endchar
          </CharString>
          <CharString index="85">
            320 rmoveto
            67 -3 86 -35 75 vhcurveto
            94 -44 -76 24 -58 hhcurveto
            -60 -76 -24 -96 -44 hvcurveto
            -32 -69 -5 -81 -76 vvcurveto
            -65 2 -97 43 -79 vhcurveto
            -85 47 78 -16 46 hhcurveto
            65 74 28 92 42 hvcurveto
            30 67 6 75 80 vvcurveto
            -86 12 rmoveto
            -62 0 -84 -10 -59 vhcurveto
            -114 -21 -74 -10 -25 hhcurveto
            -30 -72 14 113 -19 hvcurveto
            -10 59 0 86 57 vvcurveto
            68 0 79 12 55 vhcurveto
            89 20 64 18 34 hhcurveto
            38 63 -20 -93 19 hvcurveto
            11 -55 0 -78 -63 vvcurveto
            endchar
          </CharString>
          <CharString index="86">
            225 rmoveto
            66 -11 69 -44 50 vhcurveto
            45 -40 -61 17 -61 hhcurveto
            -61 -61 -17 -45 -40 hvcurveto
            -44 -50 -11 -69 -66 vvcurveto
            -66 11 -69 44 -50 vhcurveto
            -45 40 61 -17 61 hhcurveto
            61 61 17 45 40 hvcurveto
            44 50 11 69 66 vvcurveto
            -87 hmoveto
            -57 -4 -59 -29 -50 vhcurveto
            -35 -20 -37 -21 -40 hhcurveto
            -40 -37 21 35 -20 hvcurveto
            -29 50 -4 59 57 vvcurveto
            57 4 59 29 50 vhcurveto
            35 20 37 21 40 hhcurveto
            40 37 -21 -35 20 hvcurveto
            29 -50 4 -59 -57 vvcurveto
            endchar
          </CharString>
          <CharString index="87">
            27 callgsubr
            hintmask 01000000
            -76 callsubr
            hintmask 00100000
            -75 callsubr
            hintmask 01000000
            18 -17 rlineto
            hintmask 00100000
            -75 callgsubr
            hintmask 01000000
            -79 callgsubr
          </CharString>
          <CharString index="88">
            31 vlineto
            -3 -35 -2 0 -37 hhcurveto
            -110 3 rlineto
            -31 vlineto
            15 -1 12 -7 -16 vvcurveto
            -19 -16 -13 -9 -8 vhcurveto
            -141 -119 rlineto
            477 vlineto
            return
          </CharString>
          <CharString index="89">
            642 9 rmoveto
            15 15 -15 15 -10 10 -202 202 rcurveline
            201 201 10 10 15 15 -15 15 rlinecurve
            -15 16 -14 -14 -11 -11 -202 -202 rcurveline
            -202 202 -11 12 -14 13 -15 -15 rlinecurve
            -15 -15 15 -15 10 -10 202 -202 rcurveline
            -202 -202 -10 -10 -15 -15 15 -15 rlinecurve
            15 -16 14 14 11 11 202 202 rcurveline
            203 -202 11 -11 13 -14 16 16 rlinecurve
            return
          </CharString>
          <CharString index="90">
            542 1 callgsubr
            369 31 221 31 -31 42 hstemhm
            107 71 111 71 0 71 hintmask 0010000010000000
            524 hmoveto
            31 vlineto
            -33 -24 1 48 -36 hvcurveto
            hintmask 0001011100000000
            -142 193 98 85 46 39 68 3 rlinecurve
            -19 callsubr
            return
          </CharString>
          <CharString index="91">
            201 532 rmoveto
            -99 callgsubr
            210 hmoveto
            -99 callgsubr
            return
          </CharString>
          <CharString index="92">
            286 0 48 callsubr
            -31 42 return
          </CharString>
          <CharString index="93">
            28 -28 31 190 28 229 28 0 28 165 28 return
          </CharString>
          <CharString index="94">
            28 vlineto
            37 61 rlineto
            -44 31 50 -28 54 hhcurveto
            119 110 96 131 hvcurveto
            -86 1 rmoveto
            -47 -6 -53 -26 -40 vhcurveto
            -32 -22 -41 -31 -53 hhcurveto
            -45 -38 24 37 -24 hvcurveto
            -14 21 0 1 19 vvcurveto
            203 vlineto
            19 0 1 11 16 vhcurveto
            46 34 49 16 38 hhcurveto
            43 40 -24 -42 26 hvcurveto
            26 -43 2 -59 -32 vvcurveto
            endchar
          </CharString>
          <CharString index="95">
            -74 callgsubr
            532 hlineto
            return
          </CharString>
          <CharString index="96">
            40 callgsubr
            -56 callgsubr
            182 vlineto
            40 callgsubr
            return
          </CharString>
          <CharString index="97">
            hstemhm
            63 93 167 74 72 28 return
          </CharString>
          <CharString index="98">
            286 81 callsubr
            hstem
            74 122 vstem
            19 callsubr
            -10 -85 -75 -120 -64 26 -42 42 35 19 27 27 vhcurveto
            endchar
          </CharString>
          <CharString index="99">
            514 -11 28 406 25 return
          </CharString>
          <CharString index="100">
            71 callsubr
            -189 135 -150 169 -20 vhcurveto
            -26 -29 -22 -40 -32 vvcurveto
            -60 callgsubr
            -67 3 -25 52 23 49 rrcurveto
            return
          </CharString>
          <CharString index="101">
            -89 callgsubr
            -56 callgsubr
            165 vlineto
            -26 26 34 -33 66 hhcurveto
            119 110 96 131 hvcurveto
            -86 hmoveto
            -114 -68 -88 -81 -45 -38 26 35 -24 vhcurveto
            -13 20 0 2 19 vvcurveto
            220 vlineto
            return
          </CharString>
          <CharString index="102">
            756 0 31 298 25 298 31 return
          </CharString>
          <CharString index="103">
            31 199 31 455 return
          </CharString>
          <CharString index="104">
            140 90 79 90 200 31 return
          </CharString>
          <CharString index="105">
            hmoveto
            31 -46 vlineto
            -37 -45 3 47 hvcurveto
            358 vlineto
            17 -6 16 -14 -12 -16 -14 -5 -12 vhcurveto
            -21 -47 -53 -3 -51 hhcurveto
            -31 vlineto
            47 40 5 12 47 hvcurveto
            -334 vlineto
            -44 -44 -6 -37 vhcurveto
            -47 hlineto
            hintmask 10000000
            -31 vlineto
            hintmask 01000000
            167 4 rlineto
            hintmask 10000000
            endchar
          </CharString>
          <CharString index="106">
            3 41 68 0 43 hhcurveto
            return
          </CharString>
          <CharString index="107">
            69 callsubr
            643 31 return
          </CharString>
          <CharString index="108">
            hstemhm
            29 56 -24 77 -13 56 136 77 34 56 return
          </CharString>
          <CharString index="109">
            rrcurveto
            17 -30 -31 12 -36 hhcurveto
            -75 -74 -38 -67 -58 46 -47 58 98 103 27 77 13 hvcurveto
            -55 67 64 -63 87 hhcurveto
            77 32 91 89 hvcurveto
            -397 -28 rmoveto
            -68 -70 -42 -74 -42 -34 35 42 53 61 24 60 36 32 -11 -17 31 vhcurveto
            endchar
          </CharString>
          <CharString index="110">
            741 339 rmoveto
            return
          </CharString>
          <CharString index="111">
            11 callgsubr
            92 31 return
          </CharString>
          <CharString index="112">
            14 callgsubr
            rlineto
            return
          </CharString>
          <CharString index="113">
            -30 24 -24 30 30 24 24 30 vhcurveto
            return
          </CharString>
          <CharString index="114">
            457 -200 28 78 28 hstem
            200 56 23 86 vstem
            365 -133 rmoveto
            47 -55 20 -54 vhcurveto
            71 -56 -99 vlineto
            -16 callgsubr
            hvcurveto
            endchar
          </CharString>
          <CharString index="115">
            -4 -4 vvcurveto
            -12 10 -9 11 8 6 4 6 4 vhcurveto
            411 643 rlineto
            2 3 1 4 4 vvcurveto
            endchar
          </CharString>
          <CharString index="116">
            371 33 callgsubr
            return
          </CharString>
          <CharString index="117">
            8 15 9 14 12 11 rrcurveto
            1 hlineto
            186 156 158 203 hvcurveto
            -102 15 rmoveto
            -258 -139 -88 -101 -101 -139 88 258 244 143 79 97 97 143 -79 -244 vhcurveto
            return
          </CharString>
          <CharString index="118">
            117 -61 85 -73 -24 callsubr
            vhcurveto
            -335 hmoveto
            117 -61 85 -73 -24 callsubr
            vhcurveto
            return
          </CharString>
          <CharString index="119">
            -63 callsubr
            -525 -77 callsubr
            return
          </CharString>
          <CharString index="120">
            542 -205 25 57 31 492 31 return
          </CharString>
          <CharString index="121">
            98 83 41 70 21 21 -2 -6 22 vhcurveto
            -14 -7 -9 -16 -16 vvcurveto
            -14 7 -16 16 -9 vhcurveto
            endchar
          </CharString>
          <CharString index="122">
            69 callsubr
            599 28 -21 31 6 28 -28 31 return
          </CharString>
          <CharString index="123">
            771 33 callgsubr
            return
          </CharString>
          <CharString index="124">
            51 -20 28 -29 -26 -15 -20 -20 vhcurveto
            hintmask 01100000
            -21 15 -20 26 19 11 12 0 -25 0 -61 -57 -54 vhcurveto
            -3 -4 0 -4 0 vvcurveto
            -3 4 -6 6 8 61 58 89 vhcurveto
            endchar
          </CharString>
          <CharString index="125">
            -13 callgsubr
            endchar
          </CharString>
          <CharString index="126">
            196 446 rmoveto
            27 -19 27 -35 -13 -13 -4 -9 -11 vhcurveto
            -2 -2 -2 -1 0 -35 callgsubr
            return
          </CharString>
          <CharString index="127">
            -20 -10 -20 -11 -17 -14 -54 -44 rcurveline
            hintmask 10010000
            14 -17 rlineto
            41 49 53 30 51 hhcurveto
            40 29 -17 -20 35 hvcurveto
            -17 29 31 -17 40 hhcurveto
            hintmask 01000000
            25 26 8 10 22 hvcurveto
            return
          </CharString>
          <CharString index="128">
            2 vlineto
            4 -2 4 -1 3 vhcurveto
            -45 119 rlineto
            19 -7 -7 23 -26 hhcurveto
            -20 -19 -16 -20 -1 hvcurveto
            -16 11 -12 9 -12 vhcurveto
            85 -113 7 4 14 5 2 6 rlinecurve
            return
          </CharString>
          <CharString index="129">
            hstemhm
            140 90 return
          </CharString>
          <CharString index="130">
            28 109 98 -96 83 195 25 131 83 32 -20 hstemhm
            return
          </CharString>
          <CharString index="131">
            -10 -4 -16 -12 -25 vvcurveto
            -26 19 -18 25 27 18 19 26 vhcurveto
            return
          </CharString>
          <CharString index="132">
            50 -45 -21 47 callsubr
            return
          </CharString>
          <CharString index="133">
            -32 -36 -18 -27 -27 -27 18 -27 36 vhcurveto
            return
          </CharString>
          <CharString index="134">
            rmoveto
            -41 callsubr
            return
          </CharString>
          <CharString index="135">
            571 0 53 callsubr
            return
          </CharString>
          <CharString index="136">
            -3 rlineto
            31 vlineto
            return
          </CharString>
          <CharString index="137">
            rmoveto
            21 2 -18 16 -21 hhcurveto
            -21 -18 -16 -21 2 hvcurveto
            23 -245 rlineto
            28 hlineto
            return
          </CharString>
          <CharString index="138">
            1056 -1 -21 530 31 82 31 0 31 return
          </CharString>
          <CharString index="139">
            31 234 31 400 31 return
          </CharString>
          <CharString index="140">
            rmoveto
            19 -74 272 vlineto
            12 0 4 -13 -9 -1 0 -9 -6 vhcurveto
            -225 -279 rlineto
            -19 197 -52 vlineto
            -22 -2 -6 -54 vhcurveto
            -16 -19 hlineto
            return
          </CharString>
          <CharString index="141">
            31 hstem
            142 87 399 99 vstem
            727 336 rmoveto
            190 -139 157 -176 vhcurveto
            -372 -63 callsubr
            return
          </CharString>
          <CharString index="142">
            rmoveto
            -99 callgsubr
            178 111 callgsubr
            return
          </CharString>
          <CharString index="143">
            540 64 callsubr
            607 vlineto
            return
          </CharString>
          <CharString index="144">
            571 -11 43 callgsubr
            return
          </CharString>
          <CharString index="145">
            31 307 42 20 31 -31 42 return
          </CharString>
          <CharString index="146">
            -55 vlineto
            -37 -4 -12 -91 vhcurveto
            -32 -31 hlineto
            3 35 94 0 40 hhcurveto
            40 94 46 callgsubr
            55 vlineto
            return
          </CharString>
          <CharString index="147">
            14 44 0 16 38 hvcurveto
            -310 vlineto
            -22 -2 -8 -67 vhcurveto
            -23 -18 hlineto
            return
          </CharString>
          <CharString index="148">
            807 -22 32 callsubr
            return
          </CharString>
          <CharString index="149">
            hstemhm
            111 74 211 74 10 108 return
          </CharString>
          <CharString index="150">
            57 102 480 102 return
          </CharString>
          <CharString index="151">
            68 callgsubr
            1 hlineto
            -35 -29 -35 -54 -41 vvcurveto
            return
          </CharString>
          <CharString index="152">
            -52 58 -28 57 vhcurveto
            hintmask 00000010
            79 63 65 92 hvcurveto
            return
          </CharString>
          <CharString index="153">
            -22 28 -28 92 331 25 83 92 40 25 hstemhm
            return
          </CharString>
          <CharString index="154">
            173 50 -4 50 hstemhm
            return
          </CharString>
          <CharString index="155">
            31 369 31 return
          </CharString>
          <CharString index="156">
            22 callsubr
            66 108 -81 90 20 28 152 28 0 28 return
          </CharString>
          <CharString index="157">
            vvcurveto
            108 25 116 94 59 53 -32 -49 20 vhcurveto
            1 -2 -3 0 -3 hhcurveto
            -26 -20 -21 -25 -25 20 -21 26 hvcurveto
            return
          </CharString>
          <CharString index="158">
            24 -21 -40 12 -46 hhcurveto
            -72 -49 -42 -53 -28 hvcurveto
            59 -12 -40 36 -84 hhcurveto
            -80 -49 -52 -46 -21 hvcurveto
            -1 98 hlineto
            return
          </CharString>
          <CharString index="159">
            85 63 141 62 hstem
            285 85 rmoveto
            63 -274 -63 vlineto
            274 204 29 callgsubr
          </CharString>
          <CharString index="160">
            103 callsubr
            210 31 -31 42 return
          </CharString>
          <CharString index="161">
            742 -22 31 665 31 return
          </CharString>
          <CharString index="162">
            -60 callgsubr
            -95 5 return
          </CharString>
          <CharString index="163">
            hlineto
            -78 -281 rlineto
            -4 -12 0 -2 -4 vvcurveto
            -13 9 -9 13 15 4 12 12 3 vhcurveto
            83 297 rlineto
            return
          </CharString>
          <CharString index="164">
            rmoveto
            -36 -29 -26 -34 -35 -27 30 34 32 24 25 30 4 vhcurveto
            3 3 1 3 hhcurveto
            35 27 -30 -34 hvcurveto
            return
          </CharString>
          <CharString index="165">
            412 643 rlineto
            2 3 1 4 4 vvcurveto
            -39 -545 rmoveto
            -178 hlineto
            178 222 rlineto
            endchar
          </CharString>
          <CharString index="166">
            46 56 0 -3 45 hvcurveto
            -45 callsubr
            return
          </CharString>
          <CharString index="167">
            hstem
            285 35 130 35 vstem
            450 return
          </CharString>
          <CharString index="168">
            rmoveto
            31 vlineto
            -3 return
          </CharString>
          <CharString index="169">
            vstem
            546 227 rmoveto
            78 -65 68 -81 -81 -65 -68 -78 -81 65 -65 81 81 65 65 81 vhcurveto
            return
          </CharString>
          <CharString index="170">
            vlineto
            hintmask 0000100000000000
            -151 -11 rlineto
            return
          </CharString>
          <CharString index="171">
            hmoveto
            31 vlineto
            -68 -9 7 49 hvcurveto
            return
          </CharString>
          <CharString index="172">
            514 -11 28 405 25 return
          </CharString>
          <CharString index="173">
            771 0 31 309 31 return
          </CharString>
          <CharString index="174">
            9 callgsubr
            210 31 -31 42 hstemhm
            34 86 return
          </CharString>
          <CharString index="175">
            343 185 62 hstem
            34 274 vstem
            308 185 29 callgsubr
          </CharString>
          <CharString index="176">
            771 -22 31 return
          </CharString>
          <CharString index="177">
            100 -2 rlineto
            19 -15 vlineto
            -54 -3 6 22 hvcurveto
            52 vlineto
            -14 564 rmoveto
            12 -10 9 -11 return
          </CharString>
          <CharString index="178">
            3 callsubr
            204 -155 162 -187 -187 -155 -163 -203 return
          </CharString>
          <CharString index="179">
            -144 -11 rlineto
            -31 vlineto
            64 9 -6 -49 hvcurveto
            -268 vlineto
            -46 -11 0 -66 vhcurveto
            -31 vlineto
            return
          </CharString>
          <CharString index="180">
            -84 -64 -84 -11 -46 hhcurveto
            -97 -64 48 33 -35 hvcurveto
            return
          </CharString>
          <CharString index="181">
            -8 -7 -7 -8 -9 7 -6 8 hvcurveto
            return
          </CharString>
          <CharString index="182">
            50 -4 50 hstemhm
            hintmask 01000000
            return
          </CharString>
          <CharString index="183">
            31 hstem
            140 90 310 90 vstem
            121 callsubr
            return
          </CharString>
          <CharString index="184">
            514 -250 25 462 26 462 25 hstem
            221 71 cntrmask 11100000
            440 return
          </CharString>
          <CharString index="185">
            86 vstem
            536 216 rmoveto
            125 -99 101 -120 -68 -47 -35 -27 -24 vhcurveto
            return
          </CharString>
          <CharString index="186">
            112 callsubr
            6 callsubr
            endchar
          </CharString>
          <CharString index="187">
            517 750 rlineto
            5 7 3 4 7 vvcurveto
            return
          </CharString>
          <CharString index="188">
            392 108 193 -20 return
          </CharString>
          <CharString index="189">
            742 10 -21 411 31 return
          </CharString>
          <CharString index="190">
            742 0 31 615 31 return
          </CharString>
          <CharString index="191">
            91 -91 93 36 91 -91 93 -7 93 -38 91 -53 93 -65 91 hintmask 0011110010100000
            return
          </CharString>
          <CharString index="192">
            35 -35 98 -49 35 -31 31 -17 31 -20 98 9 31 105 90 hintmask 0001000010001000
            return
          </CharString>
          <CharString index="193">
            -216 28 208 -21 142 28 116 100 -100 187 -25 25 hstemhm
            return
          </CharString>
          <CharString index="194">
            708 144 rmoveto
            -28 hlineto
            -69 -55 -55 -68 -68 -53 43 42 -53 vhcurveto
            -1 return
          </CharString>
          <CharString index="195">
            44 92 callgsubr
            return
          </CharString>
          <CharString index="196">
            771 4 callsubr
            return
          </CharString>
          <CharString index="197">
            81 55 callgsubr
            return
          </CharString>
          <CharString index="198">
            536 216 rmoveto
            126 -98 100 -118 -54 -50 -22 -41 -38 vhcurveto
            return
          </CharString>
          <CharString index="199">
            122 -19 122 -25 122 hintmask 11010000
            return
          </CharString>
          <CharString index="200">
            66 callsubr
            281 31 return
          </CharString>
          <CharString index="201">
            -20 22 callsubr
            return
          </CharString>
          <CharString index="202">
            hlineto
            -5 -4 -4 -4 -1 hvcurveto
            -3 -8 rlineto
            -7 -2 5 -7 8 hhcurveto
            return
          </CharString>
          <CharString index="203">
            hlineto
            5 4 3 5 1 hvcurveto
            3 11 rlineto
            6 1 -5 5 -7 hhcurveto
            return
          </CharString>
          <CharString index="204">
            699 0 31 -28 28 283 28 310 31 hstemhm
            40 102 return
          </CharString>
          <CharString index="205">
            22 callsubr
            93 90 6 90 -76 28 152 28 0 28 return
          </CharString>
          <CharString index="206">
            25 21 21 25 88 -79 66 -91 -120 -73 -123 -129 return
          </CharString>
          <CharString index="207">
            37 callgsubr
            endchar
          </CharString>
          <CharString index="208">
            -37 -6 rlineto
            -3 -1 1 3 -8 hvcurveto
            return
          </CharString>
          <CharString index="209">
            457 0 28 378 25 return
          </CharString>
          <CharString index="210">
            31 0 31 355 25 return
          </CharString>
          <CharString index="211">
            67 35 64 71 hvcurveto
            return
          </CharString>
          <CharString index="212">
            771 -215 49 166 -4 callsubr
            -20 return
          </CharString>
          <CharString index="213">
            771 -36 42 -28 28 -28 42 hstemhm
            63 28 177 74 return
          </CharString>
          <CharString index="214">
            58 34 55 20 42 hhcurveto
            78 60 -90 -108 hvcurveto
            endchar
          </CharString>
          <CharString index="215">
            vhcurveto
            -31 vlineto
            2 return
          </CharString>
          <CharString index="216">
            109 -38 109 -27 109 63 102 hintmask 0000110010000000
            return
          </CharString>
          <CharString index="217">
            1028 22 -21 228 43 228 -20 hstem
            970 return
          </CharString>
          <CharString index="218">
            571 -194 31 152 25 return
          </CharString>
          <CharString index="219">
            -44 callsubr
            -30 -24 -24 -30 return
          </CharString>
          <CharString index="220">
            52 -21 133 -20 hstemhm
            57 102 return
          </CharString>
          <CharString index="221">
            97 callgsubr
            hstemhm
            return
          </CharString>
          <CharString index="222">
            -194 31 -28 28 163 31 454 -20 hstemhm
            return
          </CharString>
          <CharString index="223">
            140 31 428 31 return
          </CharString>
          <CharString index="224">
            74 -21 133 -20 hstemhm
            return
          </CharString>
          <CharString index="225">
            -215 49 166 31 return
          </CharString>
          <CharString index="226">
            hstemhm
            89 108 -84 71 return
          </CharString>
          <CharString index="227">
            132 callsubr
            72 return
          </CharString>
          <CharString index="228">
            732 hmoveto
            -45 callsubr
            return
          </CharString>
          <CharString index="229">
            642 33 callgsubr
            return
          </CharString>
          <CharString index="230">
            29 86 283 86 return
          </CharString>
          <CharString index="231">
            34 51 234 51 return
          </CharString>
          <CharString index="232">
            25 175 25 vstem
            return
          </CharString>
          <CharString index="233">
            31 -17 31 87 31 105 90 hintmask 0001111010000000
            return
          </CharString>
          <CharString index="234">
            54 -26 48 275 48 -26 54 hintmask 01011000
            return
          </CharString>
          <CharString index="235">
            hlineto
            -13 -20 0 -21 -22 22 0 15 hvcurveto
            return
          </CharString>
          <CharString index="236">
            108 hstem
            -311 108 vstem
            -203 return
          </CharString>
          <CharString index="237">
            0 31 -27 27 367 31 43 -20 hstemhm
            return
          </CharString>
          <CharString index="238">
            -47 callgsubr
            vhcurveto
            return
          </CharString>
          <CharString index="239">
            400 -11 28 383 31 184 -20 return
          </CharString>
          <CharString index="240">
            31 621 31 return
          </CharString>
        <CharString name=".notdef">
          280 endchar
        </CharString>
        <CharString name="A">
          -36 callsubr
          hstem
          -107 callsubr
          endchar
        </CharString>
        <CharString name="AE">
          -48 callsubr
        </CharString>
        <CharString name="AE.dup">
          -48 callsubr
        </CharString>
        <CharString name="AEacute">
          928 0 31 41 31 210 31 308 31 84 -21 165 -20 hstemhm
          177 84 167 84 193 28 109 28 0 28 hintmask 1111000110100000
          898 258 rmoveto
          -28 hlineto
          -155 -25 -21 -72 -163 hhcurveto
          -100 -46 callgsubr
          241 88 vlineto
          95 10 -32 -85 hvcurveto
          28 265 -28 hlineto
          -84 -10 -33 -95 vhcurveto
          -88 267 hlineto
          34 2 7 47 vhcurveto
          102 hlineto
          hintmask 1111001101000000
          143 20 -60 -134 16 hvcurveto
          28 hlineto
          -28 225 rlineto
          -573 -31 45 hlineto
          11 18 -1 12 hhcurveto
          -207 -550 rlineto
          -34 -13 -23 -36 -78 hhcurveto
          -31 vlineto
          3 43 52 0 7 hhcurveto
          113 29 callsubr
          -41 1 -31 18 32 vvcurveto
          8 0 1 5 12 vhcurveto
          79 210 rlineto
          167 -236 hlineto
          -46 -11 0 -65 vhcurveto
          -31 503 vlineto
          hintmask 0010000100100000
          -427 344 rmoveto
          -155 hlineto
          114 304 rlineto
          41 -2 0 -25 -19 vvcurveto
          hintmask 0000110000000000
          176 263 -102 callgsubr
        </CharString>
        <CharString name="Aacute">
          -36 callsubr
          71 -21 165 -98 callsubr
          170 277 -102 callgsubr
        </CharString>
        <CharString name="Abreve">
          -36 callsubr
          50 41 -55 callsubr
          -3 callgsubr
          endchar
        </CharString>
        <CharString name="Abreveacute">
          -36 callsubr
          50 41 318 -98 callsubr
          -3 callgsubr
          -50 139 -102 callgsubr
        </CharString>
        <CharString name="Abrevedotbelow">
          60 callgsubr
          50 41 133 -20 hstemhm
          332 108 hintmask 01111100
          -107 callsubr
          -3 callgsubr
          hintmask 10000010
          -99 -1066 rmoveto
          79 callsubr
        </CharString>
        <CharString name="Abrevegrave">
          -36 callsubr
          50 41 -55 callsubr
          -3 callgsubr
          -49 44 rmoveto
          -15 -24 -169 90 -14 8 -10 6 -2 15 rlinecurve
          24 -5 19 22 24 hhcurveto
          11 6 -6 -7 9 hvcurveto
          endchar
        </CharString>
        <CharString name="Abrevehookabove">
          -36 callsubr
          50 41 341 -98 callsubr
          -3 callgsubr
          -54 141 -107 callgsubr
        </CharString>
        <CharString name="Abrevetilde">
          -36 callsubr
          50 41 173 50 -4 50 -106 callsubr
          hintmask 00010100
          184 332 27 callgsubr
          hintmask 00001000
          -76 callsubr
          hintmask 00000100
          -75 callsubr
          hintmask 00001000
          18 -17 rlineto
          hintmask 00000100
          -75 callgsubr
          hintmask 00001000
          -79 callgsubr
        </CharString>
        <CharString name="Acaron">
          -36 callsubr
          61 -21 -55 callsubr
          181 265 -57 callgsubr
        </CharString>
        <CharString name="Acircumflex">
          -36 callsubr
          61 -21 -55 callsubr
          181 164 -48 callgsubr
        </CharString>
        <CharString name="Acircumflexacute">
          -36 callsubr
          61 -21 318 -98 callsubr
          181 164 -86 callgsubr
          -34 272 -102 callgsubr
        </CharString>
        <CharString name="Acircumflexdotbelow">
          60 callgsubr
          61 -21 133 -20 hstemhm
          332 108 hintmask 01111100
          -107 callsubr
          181 164 -86 callgsubr
          hintmask 10000010
          -84 -882 rmoveto
          79 callsubr
        </CharString>
        <CharString name="Acircumflexgrave">
          -36 callsubr
          61 -21 -55 callsubr
          181 164 -65 callgsubr
        </CharString>
        <CharString name="Acircumflexhookabove">
          -36 callsubr
          61 -21 341 -98 callsubr
          181 164 -86 callgsubr
          61 274 -107 callgsubr
        </CharString>
        <CharString name="Acircumflextilde">
          -36 callsubr
          56 50 -45 -21 173 50 -4 50 -106 callsubr
          hintmask 00010000
          181 164 5 callsubr
          hintmask 00001000
          10 -16 rlineto
          hintmask 00010000
          140 66 rlineto
          hintmask 00001000
          140 -66 rlineto
          hintmask 00010010
          32 252 rmoveto
          -18 17 rlineto
          hintmask 00000100
          -76 callsubr
          hintmask 00000010
          -75 callsubr
          hintmask 00000100
          18 -17 rlineto
          hintmask 00000010
          -75 callgsubr
          hintmask 00000100
          -79 callgsubr
        </CharString>
        <CharString name="Adblgrave">
          -36 callsubr
          71 -21 188 -98 callsubr
          128 171 -93 callsubr
        </CharString>
        <CharString name="Adieresis">
          -36 callsubr
          40 97 hstemhm
          232 97 113 97 hintmask 11100100
          -107 callsubr
          hintmask 00011100
          -26 197 -70 callgsubr
        </CharString>
        <CharString name="Adotbelow">
          60 callgsubr
          hstemhm
          332 108 hintmask 01110000
          -107 callsubr
          hintmask 10001000
          85 -734 rmoveto
          79 callsubr
        </CharString>
        <CharString name="Agrave">
          -36 callsubr
          71 -21 165 -98 callsubr
          100 182 -68 callgsubr
        </CharString>
        <CharString name="Ahookabove">
          -36 callsubr
          83 -21 208 -98 callsubr
          130 311 -107 callgsubr
        </CharString>
        <CharString name="Alpha">
          -36 callsubr
          hstem
          -107 callsubr
          endchar
        </CharString>
        <CharString name="Amacron">
          -36 callsubr
          60 35 -106 callsubr
          hintmask 00010000
          215 168 -34 callsubr
        </CharString>
        <CharString name="Aogonek">
          105 callsubr
          hstem
          462 274 vstem
          736 hmoveto
          31 -17 vlineto
          -62 -11 9 28 -10 hvcurveto
          -227 627 rlineto
          13 -5 -3 8 -16 hhcurveto
          -16 -2 -6 -16 -6 hvcurveto
          -215 -594 -12 -33 -23 -35 -77 -1 rlinecurve
          50 callgsubr
          27 0 37 hhcurveto
          113 29 callsubr
          -57 1 -17 31 19 vvcurveto
          9 2 5 2 5 vhcurveto
          47 129 rlineto
          259 hlineto
          54 -151 rlineto
          4 -10 1 -3 -5 vvcurveto
          -30 -56 0 -26 vhcurveto
          50 callgsubr
          44 0 40 hhcurveto
          -36 -27 -35 -50 -47 vvcurveto
          52 callgsubr
          108 97 56 rrcurveto
          -155 258 rmoveto
          -236 hlineto
          118 327 rlineto
          endchar
        </CharString>
        <CharString name="Aogonekacute">
          105 callsubr
          71 -21 165 -20 hstemhm
          462 274 hintmask 11110010
          736 hmoveto
          31 -17 vlineto
          -62 -11 9 28 -10 hvcurveto
          -227 627 rlineto
          13 -5 -3 8 -16 hhcurveto
          -16 -2 -6 -16 -6 hvcurveto
          -215 -594 -12 -33 -23 -35 -77 -1 rlinecurve
          50 callgsubr
          27 0 37 hhcurveto
          113 29 callsubr
          -57 1 -17 31 19 vvcurveto
          9 2 5 2 5 vhcurveto
          47 129 rlineto
          259 hlineto
          54 -151 rlineto
          4 -10 1 -3 -5 vvcurveto
          -30 -56 0 -26 vhcurveto
          50 callgsubr
          44 0 40 hhcurveto
          -36 -27 -35 -50 -47 vvcurveto
          52 callgsubr
          108 97 56 rrcurveto
          -155 258 rmoveto
          -236 hlineto
          118 327 rlineto
          hintmask 00001100
          170 277 -102 callgsubr
        </CharString>
        <CharString name="Aring">
          -35 callsubr
          108 callgsubr
          hstemhm
          285 35 130 35 hintmask 11100100
          -107 callsubr
          hintmask 00111100
          95 216 -52 callgsubr
        </CharString>
        <CharString name="Aringacute">
          -35 callsubr
          108 callgsubr
          185 -20 hstemhm
          285 35 130 35 hintmask 11100010
          -107 callsubr
          hintmask 00111110
          95 216 -72 callsubr
          5 228 -102 callgsubr
        </CharString>
        <CharString name="Atilde">
          -36 callsubr
          40 50 -4 50 -106 callsubr
          hintmask 00001000
          200 227 rmoveto
          -18 17 rlineto
          hintmask 00010000
          -76 callsubr
          hintmask 00001000
          -75 callsubr
          hintmask 00010000
          18 -17 rlineto
          hintmask 00001000
          -75 callgsubr
          hintmask 00010000
          -79 callgsubr
        </CharString>
        <CharString name="B">
          -38 callgsubr
        </CharString>
        <CharString name="Beta">
          -38 callgsubr
        </CharString>
        <CharString name="C">
          54 callsubr
          hstem
          57 102 498 27 vstem
          -72 callgsubr
          -206 166 -158 192 166 103 137 117 hvcurveto
          endchar
        </CharString>
        <CharString name="Cacute">
          54 callsubr
          112 callgsubr
          498 27 hintmask 11001100
          -72 callgsubr
          -206 166 -158 192 166 103 137 117 hvcurveto
          hintmask 00110000
          -136 633 -102 callgsubr
        </CharString>
        <CharString name="Ccaron">
          54 callsubr
          113 callsubr
          498 27 hintmask 11001100
          -72 callgsubr
          -206 166 -158 192 166 103 137 117 hvcurveto
          hintmask 00110000
          -125 621 -57 callgsubr
        </CharString>
        <CharString name="Ccedilla">
          54 callsubr
          hstem
          57 102 498 27 vstem
          -72 callgsubr
          -193 146 -152 177 -17 hvcurveto
          -74 vlineto
          -16 callgsubr
          47 -55 20 -54 hvcurveto
          45 vlineto
          154 11 94 130 112 vvcurveto
          endchar
        </CharString>
        <CharString name="Ccircumflex">
          54 callsubr
          113 callsubr
          498 27 hintmask 11001100
          -72 callgsubr
          -206 166 -158 192 166 103 137 117 hvcurveto
          hintmask 00110000
          -125 520 -48 callgsubr
        </CharString>
        <CharString name="Cdotaccent">
          54 callsubr
          53 108 hstemhm
          57 102 195 108 195 27 hintmask 11010100
          -72 callgsubr
          -206 166 -158 192 166 103 137 117 hvcurveto
          hintmask 00101000
          -222 580 rmoveto
          79 callsubr
        </CharString>
        <CharString name="Chi">
          -47 callsubr
        </CharString>
        <CharString name="D">
          785 0 31 621 31 hstem
          142 87 399 99 vstem
          -61 callsubr
          endchar
        </CharString>
        <CharString name="Dcaron">
          785 33 callgsubr
          117 callsubr
          142 87 399 99 hintmask 11001100
          -61 callsubr
          hintmask 00110000
          -145 517 -57 callgsubr
        </CharString>
        <CharString name="Dcroat">
          -27 callgsubr
        </CharString>
        <CharString name="Ddotbelow">
          785 4 callsubr
          621 31 hstemhm
          142 87 49 108 242 99 hintmask 01111100
          -61 callsubr
          hintmask 10001000
          -242 -482 rmoveto
          79 callsubr
        </CharString>
        <CharString name="Delta">
          856 0 77 639 -20 hstem
          806 9 rmoveto
          0 0 3 -5 10 vhcurveto
          -344 671 rlineto
          18 -9 -5 5 -16 hhcurveto
          -14 -6 -5 -14 -7 hvcurveto
          -345 -673 rlineto
          -4 -8 -2 -7 0 vvcurveto
          -9 7 0 16 vhcurveto
          711 hlineto
          16 7 0 9 hvcurveto
          -134 68 rmoveto
          -555 hlineto
          277 540 rlineto
          endchar
        </CharString>
        <CharString name="Dlinebelow">
          785 -163 35 128 133 callsubr
          hstemhm
          142 87 399 99 hintmask 01111000
          -61 callsubr
          hintmask 10000000
          -111 -499 -34 callsubr
        </CharString>
        <CharString name="E">
          -33 callgsubr
          -39 callsubr
          hintmask 1111111010000000
          669 258 rmoveto
          -28 hlineto
          -155 -25 -26 -72 -171 hhcurveto
          -140 -46 callgsubr
          266 93 vlineto
          98 12 -31 -86 hvcurveto
          28 265 -28 hlineto
          -86 -12 -31 -98 vhcurveto
          -93 239 hlineto
          34 2 7 47 vhcurveto
          134 hlineto
          hintmask 1011100100000000
          -87 callsubr
          588 hlineto
          hintmask 0000000010000000
          endchar
        </CharString>
        <CharString name="Eacute">
          -33 callgsubr
          87 -21 165 -96 callsubr
          -136 865 -102 callgsubr
        </CharString>
        <CharString name="Ebreve">
          -33 callgsubr
          66 41 133 -96 callsubr
          -122 920 -99 callsubr
          endchar
        </CharString>
        <CharString name="Ecaron">
          -33 callgsubr
          77 -21 133 -96 callsubr
          -125 853 -57 callgsubr
        </CharString>
        <CharString name="Ecircumflex">
          -33 callgsubr
          77 -21 133 -96 callsubr
          -125 752 -48 callgsubr
        </CharString>
        <CharString name="Ecircumflexacute">
          -33 callgsubr
          77 -21 318 -96 callsubr
          -125 752 -86 callgsubr
          -34 272 -102 callgsubr
        </CharString>
        <CharString name="Ecircumflexdotbelow">
          699 -200 108 92 -25 callsubr
          77 -21 133 -20 49 callsubr
          hintmask 0111100101101000
          669 258 rmoveto
          -28 hlineto
          -155 -25 -26 -72 -171 hhcurveto
          -140 -46 callgsubr
          266 93 vlineto
          98 12 -31 -86 hvcurveto
          28 265 -28 hlineto
          -86 -12 -31 -98 vhcurveto
          -93 239 hlineto
          34 2 7 47 vhcurveto
          134 hlineto
          hintmask 0101100100010000
          -87 callsubr
          588 hlineto
          hintmask 0000011000001000
          -125 752 -86 callgsubr
          hintmask 1000000010000000
          -85 -882 rmoveto
          79 callsubr
        </CharString>
        <CharString name="Ecircumflexgrave">
          -33 callgsubr
          77 -21 133 -96 callsubr
          -125 752 -65 callgsubr
        </CharString>
        <CharString name="Ecircumflexhookabove">
          -33 callgsubr
          77 -21 341 -96 callsubr
          -125 752 -86 callgsubr
          61 274 -107 callgsubr
        </CharString>
        <CharString name="Ecircumflextilde">
          -33 callgsubr
          72 50 -45 -21 173 50 -4 50 -39 callsubr
          hintmask 1111000011101000
          669 258 rmoveto
          -28 hlineto
          -155 -25 -26 -72 -171 hhcurveto
          -140 -46 callgsubr
          266 93 vlineto
          98 12 -31 -86 hvcurveto
          28 265 -28 hlineto
          -86 -12 -31 -98 vhcurveto
          -93 239 hlineto
          34 2 7 47 vhcurveto
          134 hlineto
          hintmask 1011000010010000
          -87 callsubr
          588 hlineto
          hintmask 0000000000001000
          hintmask 0000100000000000
          -125 752 5 callsubr
          hintmask 0000010000000000
          10 -16 rlineto
          hintmask 0000100000000000
          140 66 rlineto
          hintmask 0000010000000000
          140 -66 rlineto
          hintmask 0000100100000000
          32 252 rmoveto
          -18 17 rlineto
          hintmask 0000001000000000
          -76 callsubr
          hintmask 0000000100000000
          -75 callsubr
          hintmask 0000001000000000
          18 -17 rlineto
          hintmask 0000000100000000
          -75 callgsubr
          hintmask 0000001000000000
          -79 callgsubr
        </CharString>
        <CharString name="Edblgrave">
          -33 callgsubr
          87 -21 188 -96 callsubr
          -150 759 -93 callsubr
        </CharString>
        <CharString name="Edieresis">
          -33 callgsubr
          56 97 22 callsubr
          -33 97 29 90 -6 97 -71 28 152 28 0 28 hintmask 1111010101010000
          669 258 rmoveto
          -28 hlineto
          -155 -25 -26 -72 -171 hhcurveto
          -140 -46 callgsubr
          266 93 vlineto
          98 12 -31 -86 hvcurveto
          28 265 -28 hlineto
          -86 -12 -31 -98 vhcurveto
          -93 239 hlineto
          34 2 7 47 vhcurveto
          134 hlineto
          hintmask 1011010000100000
          -87 callsubr
          588 hlineto
          hintmask 0000000000010000
          hintmask 0000101010000000
          -332 785 -70 callgsubr
        </CharString>
        <CharString name="Edotaccent">
          -33 callgsubr
          78 108 49 callsubr
          hintmask 1111010110100000
          669 258 rmoveto
          -28 hlineto
          -155 -25 -26 -72 -171 hhcurveto
          -140 -46 callgsubr
          266 93 vlineto
          98 12 -31 -86 hvcurveto
          28 265 -28 hlineto
          -86 -12 -31 -98 vhcurveto
          -93 239 hlineto
          34 2 7 47 vhcurveto
          134 hlineto
          hintmask 1011010001000000
          -78 callsubr
          hintmask 0000101000000000
          -222 812 rmoveto
          79 callsubr
        </CharString>
        <CharString name="Edotbelow">
          699 -200 108 92 -25 callsubr
          49 callsubr
          hintmask 0111110110100000
          669 258 rmoveto
          -28 hlineto
          -155 -25 -26 -72 -171 hhcurveto
          -140 -46 callgsubr
          266 93 vlineto
          98 12 -31 -86 hvcurveto
          28 265 -28 hlineto
          -86 -12 -31 -98 vhcurveto
          -93 239 hlineto
          34 2 7 47 vhcurveto
          134 hlineto
          hintmask 0101110001000000
          -78 callsubr
          hintmask 1000001000000000
          -222 -146 rmoveto
          79 callsubr
        </CharString>
        <CharString name="Egrave">
          -33 callgsubr
          87 -21 165 -96 callsubr
          -206 770 -68 callgsubr
        </CharString>
        <CharString name="Ehookabove">
          -33 callgsubr
          99 -21 208 -96 callsubr
          -176 899 -107 callgsubr
        </CharString>
        <CharString name="Emacron">
          -33 callgsubr
          76 35 -39 callsubr
          hintmask 1111011101000000
          669 258 rmoveto
          -28 hlineto
          -155 -25 -26 -72 -171 hhcurveto
          -140 -46 callgsubr
          266 93 vlineto
          98 12 -31 -86 hvcurveto
          28 265 -28 hlineto
          -86 -12 -31 -98 vhcurveto
          -93 239 hlineto
          34 2 7 47 vhcurveto
          134 hlineto
          hintmask 1011010010000000
          -87 callsubr
          588 hlineto
          hintmask 0000000001000000
          hintmask 0000100000000000
          -91 756 -34 callsubr
        </CharString>
        <CharString name="Eng">
          771 -22 92 -70 31 -28 28 621 28 -28 31 -6 28 22 callsubr
          194 90 116 102 hintmask 0000011100000000
          732 342 rmoveto
          191 -127 172 -181 -78 -70 -35 -55 -46 vhcurveto
          hintmask 0000101000000000
          68 vlineto
          hintmask 0001000000000000
          -2 -15 -15 -1 -15 hhcurveto
          hintmask 0010101000000000
          -43 -68 0 3 -41 hvcurveto
          -31 25 vlineto
          80 2 -12 -36 hvcurveto
          -525 vlineto
          -36 -2 -12 -80 vhcurveto
          -25 hlineto
          hintmask 0100000000000000
          -31 vlineto
          hintmask 0010000000000000
          -1 callsubr
          hintmask 0100011110000000
          43 68 0 -3 41 hvcurveto
          31 -25 vlineto
          -80 -2 12 36 hvcurveto
          490 vlineto
          65 39 73 43 82 hhcurveto
          145 61 -170 -165 -130 0 -151 -71 -43 hvcurveto
          1 2 0 2 2 vvcurveto
          hintmask 1000000110000000
          25 -21 21 -25 -26 -20 -21 -25 -25 20 -21 26 156 62 185 179 vhcurveto
          endchar
        </CharString>
        <CharString name="Eogonek">
          699 -215 49 166 -25 callsubr
          98 callsubr
          hintmask 0110011100100000
          669 258 rmoveto
          -28 hlineto
          -155 -25 -26 -72 -171 hhcurveto
          -140 -46 callgsubr
          266 93 vlineto
          hintmask 0111111011000000
          98 12 -31 -86 hvcurveto
          28 265 -28 hlineto
          -86 -12 -31 -98 vhcurveto
          -93 239 hlineto
          34 2 7 47 vhcurveto
          134 hlineto
          -87 callsubr
          436 hlineto
          -36 -27 -35 -47 -47 vvcurveto
          hintmask 1100000100100000
          34 callgsubr
          endchar
        </CharString>
        <CharString name="Eogonekacute">
          699 -215 49 166 -25 callsubr
          87 -21 165 -20 98 callsubr
          hintmask 0110000111001000
          669 258 rmoveto
          -28 hlineto
          -155 -25 -26 -72 -171 hhcurveto
          -140 -46 callgsubr
          266 93 vlineto
          hintmask 0111100110110000
          98 12 -31 -86 hvcurveto
          28 265 -28 hlineto
          -86 -12 -31 -98 vhcurveto
          -93 239 hlineto
          34 2 7 47 vhcurveto
          134 hlineto
          -87 callsubr
          436 hlineto
          -36 -27 -35 -47 -47 vvcurveto
          hintmask 1100000001001000
          34 callgsubr
          hintmask 0000011000000000
          -136 865 -102 callgsubr
        </CharString>
        <CharString name="Epsilon">
          -33 callgsubr
          -39 callsubr
          hintmask 1111111010000000
          669 258 rmoveto
          -28 hlineto
          -155 -25 -26 -72 -171 hhcurveto
          -140 -46 callgsubr
          266 93 vlineto
          98 12 -31 -86 hvcurveto
          28 265 -28 hlineto
          -86 -12 -31 -98 vhcurveto
          -93 239 hlineto
          34 2 7 47 vhcurveto
          134 hlineto
          hintmask 1011100100000000
          -87 callsubr
          588 hlineto
          hintmask 0000000010000000
          endchar
        </CharString>
        <CharString name="Ereversed">
          -33 callgsubr
          hstemhm
          38 28 0 28 152 28 20 90 93 90 hintmask 1111011110000000
          669 hmoveto
          -45 callsubr
          522 vlineto
          37 2 11 77 vhcurveto
          23 31 -575 hlineto
          -28 -225 rlineto
          28 hlineto
          140 16 28 54 156 hhcurveto
          134 hlineto
          47 2 -7 -34 hvcurveto
          -239 -93 vlineto
          -98 -12 31 86 hvcurveto
          -28 -265 28 hlineto
          86 12 31 98 vhcurveto
          93 -266 hlineto
          -34 -2 -7 -47 vhcurveto
          -140 hlineto
          -171 -26 72 155 -25 hvcurveto
          hintmask 1000100000000000
          -28 hlineto
          43 -258 rlineto
          endchar
        </CharString>
        <CharString name="Eta">
          771 0 31 309 31 281 31 hstem
          140 90 310 90 vstem
          -93 callgsubr
          endchar
        </CharString>
        <CharString name="Eth">
          -27 callgsubr
        </CharString>
        <CharString name="Etilde">
          -33 callgsubr
          56 50 -4 50 -97 callgsubr
          hintmask 0000010000000000
          -106 815 rmoveto
          -18 17 rlineto
          hintmask 0000100000000000
          -76 callsubr
          hintmask 0000010000000000
          -75 callsubr
          hintmask 0000100000000000
          18 -17 rlineto
          hintmask 0000010000000000
          -75 callgsubr
          hintmask 0000100000000000
          -79 callgsubr
        </CharString>
        <CharString name="Euro">
          643 -22 30 263 30 82 30 262 30 hstem
          114 102 vstem
          586 -11 rmoveto
          153 vlineto
          6 -5 5 -6 vhcurveto
          -8 hlineto
          -6 -4 -4 -5 -1 hvcurveto
          -75 -8 -57 -61 -73 hhcurveto
          -63 -55 41 54 -33 hvcurveto
          -31 50 -13 58 -5 60 rrcurveto
          266 96 callsubr
          -269 hlineto
          -1 41 1 41 rlineto
          300 96 callsubr
          -301 hlineto
          5 59 13 58 31 51 rrcurveto
          54 33 55 40 63 hhcurveto
          73 57 -61 -74 8 hvcurveto
          -6 1 4 -4 6 hhcurveto
          8 hlineto
          6 5 5 6 hvcurveto
          153 vlineto
          6 -5 5 -6 vhcurveto
          -2 hlineto
          -4 -2 -1 -2 -2 hvcurveto
          -39 -42 rlineto
          28 -31 -41 17 -44 hhcurveto
          -83 -75 -43 -64 -52 hvcurveto
          -43 -54 -27 -64 -10 -67 rrcurveto
          -51 95 callsubr
          49 hlineto
          -1 -14 -1 -14 -13 vvcurveto
          -14 1 -14 1 -13 vhcurveto
          -47 95 callsubr
          53 hlineto
          10 -68 27 -64 43 -54 rrcurveto
          -64 52 75 -43 83 hhcurveto
          44 41 17 28 31 hvcurveto
          39 -41 rlineto
          -3 2 2 -1 4 hhcurveto
          2 hlineto
          6 5 5 6 hvcurveto
          endchar
        </CharString>
        <CharString name="F">
          671 0 31 294 31 293 123 callgsubr
          0 90 108 28 143 28 hintmask 11110010
          627 455 rmoveto
          -28 225 rlineto
          -561 23 callgsubr
          245 vlineto
          hintmask 01101110
          90 hlineto
          97 11 -32 -85 hvcurveto
          28 265 -28 hlineto
          -85 -11 -32 -97 vhcurveto
          -90 252 hlineto
          34 2 7 47 vhcurveto
          126 hlineto
          153 25 -56 -138 16 hvcurveto
          endchar
        </CharString>
        <CharString name="G">
          41 callsubr
          hstem
          57 102 435 90 vstem
          -95 callsubr
          endchar
        </CharString>
        <CharString name="Gacute">
          41 callsubr
          112 callgsubr
          435 90 hintmask 11100110
          -95 callsubr
          hintmask 00011000
          -212 622 -102 callgsubr
        </CharString>
        <CharString name="Gamma">
          642 0 31 618 31 hstem
          140 90 vstem
          598 455 rmoveto
          -28 225 rlineto
          -532 23 callgsubr
          528 vlineto
          34 2 7 47 vhcurveto
          108 hlineto
          146 21 -59 -135 16 hvcurveto
          endchar
        </CharString>
        <CharString name="Gbreve">
          41 callsubr
          41 41 133 -20 hstemhm
          57 102 435 90 hintmask 11100110
          -95 callsubr
          hintmask 00011000
          -198 677 -99 callsubr
          endchar
        </CharString>
        <CharString name="Gcaron">
          41 callsubr
          113 callsubr
          435 90 hintmask 11100110
          -95 callsubr
          hintmask 00011000
          -201 610 -57 callgsubr
        </CharString>
        <CharString name="Gcedilla">
          807 -4 callgsubr
          44 32 callsubr
          hstem
          57 102 435 90 vstem
          -95 callsubr
          -307 -388 -95 callgsubr
        </CharString>
        <CharString name="Gcircumflex">
          41 callsubr
          113 callsubr
          435 90 hintmask 11100110
          -95 callsubr
          hintmask 00011000
          -201 509 -48 callgsubr
        </CharString>
        <CharString name="Gcommaaccent">
          807 -4 callgsubr
          44 32 callsubr
          hstemhm
          57 102 435 90 hintmask 00111110
          -95 callsubr
          hintmask 11000000
          -307 -388 -95 callgsubr
        </CharString>
        <CharString name="Gdotaccent">
          41 callsubr
          53 108 hstemhm
          57 102 191 108 136 90 hintmask 11101010
          -95 callsubr
          hintmask 00010100
          -297 569 rmoveto
          79 callsubr
        </CharString>
        <CharString name="H">
          771 0 31 309 31 281 31 hstem
          140 90 310 90 vstem
          -93 callgsubr
          endchar
        </CharString>
        <CharString name="H_uni0303">
          93 callsubr
          53 50 -4 50 22 callsubr
          310 90 hintmask 11100110
          -93 callgsubr
          hintmask 00001000
          -177 815 rmoveto
          -18 17 rlineto
          hintmask 00010000
          -76 callsubr
          hintmask 00001000
          -75 callsubr
          hintmask 00010000
          18 -17 rlineto
          hintmask 00001000
          -75 callgsubr
          hintmask 00010000
          -79 callgsubr
        </CharString>
        <CharString name="Hbar">
          66 callsubr
          127 30 124 76 callsubr
          419 102 30 -102 76 -98 callgsubr
          -76 -310 76 -98 callgsubr
          -76 -102 -30 102 -419 -66 callsubr
          261 310 -261 -71 callgsubr
          -192 371 rmoveto
          -310 127 310 hlineto
          endchar
        </CharString>
        <CharString name="Hbrevebelow">
          771 118 callgsubr
          79 31 309 31 281 123 callgsubr
          310 90 hintmask 00111110
          -93 callgsubr
          hintmask 11000100
          -193 -59 -99 callsubr
          endchar
        </CharString>
        <CharString name="Hcircumflex">
          93 callsubr
          74 89 callgsubr
          310 90 hintmask 11100110
          -93 callgsubr
          hintmask 00011000
          -196 752 -48 callgsubr
        </CharString>
        <CharString name="Hdieresis">
          93 callsubr
          53 97 22 callsubr
          2 97 113 97 1 90 hintmask 11101001
          -93 callgsubr
          hintmask 00010110
          -403 785 -70 callgsubr
        </CharString>
        <CharString name="Hdotbelow">
          89 callsubr
          309 31 281 123 callgsubr
          102 108 100 90 hintmask 01111110
          -93 callgsubr
          hintmask 10000100
          -292 -146 rmoveto
          79 callsubr
        </CharString>
        <CharString name="I">
          9 callsubr
          hstem
          140 90 vstem
          -97 callsubr
          endchar
        </CharString>
        <CharString name="I_J">
          862 -22 25 -3 31 29 108 484 123 callgsubr
          152 109 155 87 hintmask 01011000
          337 hmoveto
          31 -25 vlineto
          -80 -2 12 36 hvcurveto
          525 vlineto
          36 2 12 80 vhcurveto
          25 31 hlineto
          -3 -41 -68 0 -43 hhcurveto
          -43 -68 0 3 -41 hvcurveto
          -31 25 vlineto
          80 2 -12 -36 hvcurveto
          -525 vlineto
          -36 -2 -12 -80 vhcurveto
          -25 -31 hlineto
          hintmask 10000000
          -1 callsubr
          hintmask 01010010
          43 68 0 -3 41 hvcurveto
          472 652 61 callsubr
          -66 -12 0 -54 hhcurveto
          -40 -88 0 3 -35 hvcurveto
          -31 34 vlineto
          95 3 -12 -37 hvcurveto
          -455 vlineto
          hintmask 10110110
          -92 -52 -53 -52 -40 -48 19 38 -25 vhcurveto
          39 -4 23 27 31 vvcurveto
          30 -22 24 -32 -31 -24 -21 -35 -73 70 -61 92 85 89 52 96 14 vhcurveto
          1 8 0 44 26 vvcurveto
          407 vlineto
          41 15 0 61 vhcurveto
          endchar
        </CharString>
        <CharString name="Iacute">
          9 callsubr
          84 -21 165 94 callsubr
          hintmask 11001000
          -97 callsubr
          hintmask 00110000
          -11 865 -102 callgsubr
        </CharString>
        <CharString name="Ibreve">
          9 callsubr
          63 113 callgsubr
          hintmask 11001000
          -97 callsubr
          hintmask 00110000
          3 920 -99 callsubr
          endchar
        </CharString>
        <CharString name="Icaron">
          9 callsubr
          74 89 callgsubr
          hintmask 11001000
          -97 callsubr
          hintmask 00110000
          853 vmoveto
          -10 16 -140 -66 -140 66 -12 -16 151 -117 rlineto
          endchar
        </CharString>
        <CharString name="Icircumflex">
          9 callsubr
          74 89 callgsubr
          hintmask 11001000
          -97 callsubr
          hintmask 00110000
          752 vmoveto
          -151 117 -151 -117 10 -16 140 66 140 -66 rlineto
          endchar
        </CharString>
        <CharString name="Idblgrave">
          9 callsubr
          84 -21 188 94 callsubr
          hintmask 11001000
          -97 callsubr
          hintmask 00110000
          -25 759 -93 callsubr
        </CharString>
        <CharString name="Idieresis">
          9 callsubr
          53 97 hstemhm
          33 97 10 90 13 97 hintmask 11011000
          -97 callsubr
          hintmask 00110100
          -207 785 -70 callgsubr
        </CharString>
        <CharString name="Idieresisacute">
          9 callsubr
          53 97 83 -21 165 -20 hstemhm
          33 97 10 90 13 97 hintmask 11000110
          -97 callsubr
          hintmask 00111101
          -207 785 rmoveto
          -99 callgsubr
          210 hmoveto
          -99 callgsubr
          -14 229 -102 callgsubr
        </CharString>
        <CharString name="Idotaccent">
          9 callsubr
          75 108 hstemhm
          132 108 -100 90 hintmask 11001000
          -97 callsubr
          hintmask 00110000
          -97 812 rmoveto
          79 callsubr
        </CharString>
        <CharString name="Idotbelow">
          371 4 callsubr
          621 31 hstemhm
          132 108 -100 90 hintmask 01101000
          -97 callsubr
          hintmask 10010000
          -97 -146 rmoveto
          79 callsubr
        </CharString>
        <CharString name="Igrave">
          9 callsubr
          84 -21 165 94 callsubr
          hintmask 11001000
          -97 callsubr
          hintmask 00110000
          -81 770 -68 callgsubr
        </CharString>
        <CharString name="Ihookabove">
          9 callsubr
          96 -21 208 94 callsubr
          hintmask 11001000
          -97 callsubr
          hintmask 00111000
          -51 899 -107 callgsubr
        </CharString>
        <CharString name="Imacron">
          9 callsubr
          73 35 22 callsubr
          hintmask 11010000
          -97 callsubr
          hintmask 00100000
          34 756 -34 callsubr
        </CharString>
        <CharString name="Imacron.alt">
          9 callsubr
          73 35 22 callsubr
          hintmask 11010000
          -97 callsubr
          hintmask 00100000
          -52 756 28 callgsubr
        </CharString>
        <CharString name="Iogonek">
          371 118 callsubr
          621 123 callgsubr
          -8 90 hintmask 11001000
          337 24 callgsubr
          -67 3 -26 52 24 49 14 28 22 23 28 14 rrcurveto
          36 38 -1 -2 27 hvcurveto
          31 -25 vlineto
          hintmask 00010000
          -80 -2 12 36 hvcurveto
          525 vlineto
          hintmask 00101000
          36 2 12 80 vhcurveto
          25 31 hlineto
          -3 -41 -68 0 -43 hhcurveto
          -43 -68 0 3 -41 hvcurveto
          -31 25 vlineto
          hintmask 01010000
          44 callsubr
          hintmask 10001000
          -41 -1 43 -53 64 hhcurveto
          49 54 30 59 12 hvcurveto
          endchar
        </CharString>
        <CharString name="Iogonekacute">
          371 118 callsubr
          621 31 84 -21 165 94 callsubr
          -8 90 hintmask 11000010
          337 24 callgsubr
          -67 3 -26 52 24 49 14 28 22 23 28 14 rrcurveto
          36 38 -1 -2 27 hvcurveto
          31 -25 vlineto
          hintmask 00000100
          -80 -2 12 36 hvcurveto
          525 vlineto
          hintmask 00100010
          36 2 12 80 vhcurveto
          25 31 hlineto
          -3 -41 -68 0 -43 hhcurveto
          -43 -68 0 3 -41 hvcurveto
          -31 25 vlineto
          hintmask 01000100
          44 callsubr
          hintmask 10000010
          -41 -1 43 -53 64 hhcurveto
          49 54 30 59 12 hvcurveto
          hintmask 00011000
          -11 991 -102 callgsubr
        </CharString>
        <CharString name="Iota">
          9 callsubr
          hstem
          140 90 vstem
          -97 callsubr
          endchar
        </CharString>
        <CharString name="Itilde">
          9 callsubr
          53 50 -4 50 22 callsubr
          hintmask 11001000
          -97 callsubr
          hintmask 00010000
          19 815 -91 callsubr
        </CharString>
        <CharString name="J">
          93 callgsubr
          hstem
          48 109 155 87 vstem
          -53 callgsubr
          endchar
        </CharString>
        <CharString name="J_uni030C.cap">
          528.08333 -22 25 57 108 310 -21 145 81 -31 31 hstemhm
          48 109 155 87 hintmask 11001110
          -53 callgsubr
          128 -48 131 callsubr
          hintmask 00110000
          -21 15 -20 26 19 11 12 0 -25 0 -61 -57 -54 vhcurveto
          -3 -4 0 -4 0 vvcurveto
          -3 4 -6 6 8 61 58 89 vhcurveto
          endchar
        </CharString>
        <CharString name="Jacute">
          93 callgsubr
          84 -21 165 -20 hstemhm
          48 109 155 87 hintmask 11100110
          -53 callgsubr
          hintmask 00011000
          -8 213 -102 callgsubr
        </CharString>
        <CharString name="Jcircumflex">
          93 callgsubr
          117 callsubr
          48 109 155 87 hintmask 11100110
          -53 callgsubr
          hintmask 00011000
          3 100 -48 callgsubr
        </CharString>
        <CharString name="K">
          799 33 callgsubr
          hstem
          140 90 326 90 vstem
          -79 callsubr
          endchar
        </CharString>
        <CharString name="Kappa">
          799 33 callgsubr
          hstem
          140 90 326 90 vstem
          -79 callsubr
          endchar
        </CharString>
        <CharString name="Kcedilla">
          799 31 callgsubr
          hstem
          140 90 326 90 vstem
          -79 callsubr
          -310 -145 -95 callgsubr
        </CharString>
        <CharString name="Kcommaaccent">
          799 31 callgsubr
          hstemhm
          140 90 326 90 hintmask 00111100
          -79 callsubr
          hintmask 11000000
          -310 -145 -95 callgsubr
        </CharString>
        <CharString name="L">
          122 callsubr
          hstem
          140 90 vstem
          -81 callgsubr
          endchar
        </CharString>
        <CharString name="L_uni0303">
          122 callsubr
          53 50 -4 50 22 callsubr
          hintmask 11001000
          -81 callgsubr
          hintmask 00010000
          -209 815 -91 callsubr
        </CharString>
        <CharString name="Lacute">
          122 callsubr
          84 -21 165 94 callsubr
          hintmask 11001000
          -81 callgsubr
          hintmask 00110000
          -239 865 -102 callgsubr
        </CharString>
        <CharString name="Lambda">
          714 0 31 0 31 11 31 612 -20 hstemhm
          hintmask 10110000
          680 hmoveto
          31 vlineto
          -61 -17 0 42 -14 hvcurveto
          -208 622 rlineto
          13 -5 -3 8 -16 hhcurveto
          -16 -3 -9 -12 -4 hvcurveto
          -199 -594 rlineto
          -31 -10 -21 -39 -70 hhcurveto
          -31 vlineto
          3 32 30 0 32 hhcurveto
          42 17 -1 -2 52 hvcurveto
          31 vlineto
          -49 1 -26 23 28 vvcurveto
          5 0 2 5 14 vhcurveto
          157 471 166 -494 rlineto
          hintmask 01000000
          5 -13 0 -2 -4 vvcurveto
          -31 -55 0 -28 vhcurveto
          hintmask 10000000
          -31 vlineto
          3 45 51 0 46 hhcurveto
          endchar
        </CharString>
        <CharString name="Lcaron">
          642 0 31 447 -21 145 81 -31 123 callgsubr
          hintmask 10011000
          -81 callgsubr
          -66 604 rmoveto
          17 callsubr
        </CharString>
        <CharString name="Lcedilla">
          642 31 callgsubr
          hstem
          140 90 vstem
          -81 callgsubr
          -204 -145 -95 callgsubr
        </CharString>
        <CharString name="Lcommaaccent">
          642 31 callgsubr
          hstemhm
          140 90 hintmask 00111000
          -81 callgsubr
          hintmask 11000000
          -204 -145 -95 callgsubr
        </CharString>
        <CharString name="Ldot">
          642 0 31 323 108 190 31 hstem
          140 90 222 108 vstem
          -81 callgsubr
          -10 408 rmoveto
          79 callsubr
        </CharString>
        <CharString name="Ldotbelow">
          642 4 callsubr
          621 123 callgsubr
          37 108 hintmask 01110000
          -81 callgsubr
          hintmask 10001000
          -195 -146 rmoveto
          79 callsubr
        </CharString>
        <CharString name="Ldotbelowmacron">
          642 4 callsubr
          621 31 73 35 22 callsubr
          37 108 hintmask 11101100
          -81 callgsubr
          -195 -146 -100 callsubr
          hintmask 00010000
          8 902 -34 callsubr
        </CharString>
        <CharString name="Lslash">
          122 callsubr
          hstem
          140 90 vstem
          -26 callsubr
          294 vlineto
          179 142 -23 28 -156 -124 rlineto
          191 vlineto
          37 4 12 91 vhcurveto
          32 31 hlineto
          -3 -35 -91 0 -40 hhcurveto
          -46 -62 0 3 -45 hvcurveto
          -31 23 vlineto
          77 2 -11 -37 hvcurveto
          -264 vlineto
          -89 -71 23 -28 66 53 rlineto
          -215 -12 callsubr
          endchar
        </CharString>
        <CharString name="M">
          942 33 callgsubr
          hstem
          145 31 71 31 437 81 vstem
          -62 callsubr
          endchar
        </CharString>
        <CharString name="Mdotbelow">
          942 4 callsubr
          621 31 hstemhm
          145 31 71 31 139 108 190 81 hintmask 01111010
          -62 callsubr
          hintmask 10000100
          -373 -146 rmoveto
          79 callsubr
        </CharString>
        <CharString name="Mu">
          942 33 callgsubr
          hstem
          145 31 71 31 437 81 vstem
          -62 callsubr
          endchar
        </CharString>
        <CharString name="N">
          16 callsubr
          hstem
          116 callsubr
          vstem
          -94 callgsubr
          endchar
        </CharString>
        <CharString name="Nacute">
          16 callsubr
          84 -21 165 -20 103 callgsubr
          hintmask 11001100
          -94 callgsubr
          hintmask 00110000
          -207 213 -102 callgsubr
        </CharString>
        <CharString name="Ncaron">
          16 callsubr
          74 -21 133 -20 103 callgsubr
          hintmask 11001100
          -94 callgsubr
          hintmask 00110000
          -196 201 -57 callgsubr
        </CharString>
        <CharString name="Ncedilla">
          771 31 callgsubr
          hstem
          116 callsubr
          vstem
          -94 callgsubr
          -302 -797 -95 callgsubr
        </CharString>
        <CharString name="Ncommaaccent">
          771 31 callgsubr
          103 callgsubr
          hintmask 00111100
          -94 callgsubr
          hintmask 11000000
          -302 -797 -95 callgsubr
        </CharString>
        <CharString name="Ndotaccent">
          16 callsubr
          53 108 hstemhm
          140 31 161 108 159 31 hintmask 11010100
          -94 callgsubr
          hintmask 00101000
          -292 138 rmoveto
          79 callsubr
        </CharString>
        <CharString name="Ndotbelow">
          89 callsubr
          621 31 hstemhm
          140 31 161 108 159 31 hintmask 01110100
          -94 callgsubr
          hintmask 10001000
          -292 -798 rmoveto
          79 callsubr
        </CharString>
        <CharString name="Ntilde">
          16 callsubr
          53 50 -4 50 103 callgsubr
          hintmask 11001100
          -94 callgsubr
          hintmask 00010000
          -177 163 -91 callsubr
        </CharString>
        <CharString name="Nu">
          16 callsubr
          hstem
          116 callsubr
          vstem
          -94 callgsubr
          endchar
        </CharString>
        <CharString name="O">
          -11 callgsubr
          hstem
          43 callsubr
          vstem
          -100 callgsubr
          endchar
        </CharString>
        <CharString name="OE">
          -50 callgsubr
        </CharString>
        <CharString name="OE.dup">
          -50 callgsubr
        </CharString>
        <CharString name="Oacute">
          -11 callgsubr
          62 -21 165 -86 callsubr
          -99 511 -102 callgsubr
        </CharString>
        <CharString name="Obreve">
          -11 callgsubr
          41 41 133 -86 callsubr
          -85 566 -99 callsubr
          endchar
        </CharString>
        <CharString name="Ocaron">
          -11 callgsubr
          52 -21 133 -54 callsubr
          499 -57 callgsubr
        </CharString>
        <CharString name="Ocircumflex">
          -11 callgsubr
          52 -21 133 -54 callsubr
          398 -48 callgsubr
        </CharString>
        <CharString name="Ocircumflexacute">
          -11 callgsubr
          52 -21 318 -54 callsubr
          398 -86 callgsubr
          -34 272 -102 callgsubr
        </CharString>
        <CharString name="Ocircumflexdotbelow">
          81 callgsubr
          52 -21 133 -20 131 callgsubr
          hintmask 01111101
          -100 callgsubr
          -88 398 -86 callgsubr
          hintmask 10000010
          -85 -882 rmoveto
          79 callsubr
        </CharString>
        <CharString name="Ocircumflexgrave">
          -11 callgsubr
          52 -21 133 -54 callsubr
          398 -65 callgsubr
        </CharString>
        <CharString name="Ocircumflexhookabove">
          -11 callgsubr
          52 -21 341 -54 callsubr
          398 -86 callgsubr
          61 274 -107 callgsubr
        </CharString>
        <CharString name="Ocircumflextilde">
          -11 callgsubr
          47 25 callsubr
          57 102 480 102 hintmask 11000011
          -100 callgsubr
          hintmask 00100000
          -88 398 5 callsubr
          hintmask 00010000
          10 -16 rlineto
          hintmask 00100000
          140 66 rlineto
          hintmask 00010000
          140 -66 rlineto
          hintmask 00100100
          32 252 rmoveto
          -18 17 rlineto
          hintmask 00001000
          -76 callsubr
          hintmask 00000100
          -75 callsubr
          hintmask 00001000
          18 -17 rlineto
          hintmask 00000100
          -75 callgsubr
          hintmask 00001000
          -79 callgsubr
        </CharString>
        <CharString name="Odblgrave">
          -11 callgsubr
          62 -21 188 -86 callsubr
          -113 405 -93 callsubr
        </CharString>
        <CharString name="Odieresis">
          -11 callgsubr
          31 97 hstemhm
          57 102 88 97 113 97 85 102 hintmask 11010010
          -100 callgsubr
          hintmask 00101100
          -295 431 -70 callgsubr
        </CharString>
        <CharString name="Odotbelow">
          81 callgsubr
          131 callgsubr
          hintmask 01110100
          -100 callgsubr
          hintmask 10001000
          -185 -500 rmoveto
          79 callsubr
        </CharString>
        <CharString name="Ograve">
          -11 callgsubr
          62 -21 165 -86 callsubr
          -169 416 -68 callgsubr
        </CharString>
        <CharString name="Ohookabove">
          -11 callgsubr
          74 -21 208 -86 callsubr
          -139 545 -107 callgsubr
        </CharString>
        <CharString name="Ohorn">
          -11 callgsubr
          86 41 callgsubr
          hintmask 11111000
          740 338 rmoveto
          96 -35 93 -65 70 vhcurveto
          -8 9 -8 8 -9 8 rrcurveto
          42 12 28 44 49 vvcurveto
          34 -22 30 -32 -36 -18 -27 -27 -27 18 -27 36 4 3 0 1 4 vhcurveto
          -12 -20 -19 -16 -23 -5 rrcurveto
          39 -55 -66 23 -69 hhcurveto
          -91 -87 -40 -68 -63 hvcurveto
          -65 -70 -35 -93 -96 vvcurveto
          -94 35 -92 65 -68 vhcurveto
          -67 63 87 -39 91 hhcurveto
          92 87 39 67 63 hvcurveto
          hintmask 11010100
          65 68 35 92 94 vvcurveto
          -102 17 rmoveto
          -87 -14 -89 -50 -72 vhcurveto
          -59 -41 -63 -40 -72 hhcurveto
          -71 -63 40 59 -41 hvcurveto
          -50 72 -14 89 87 vvcurveto
          82 15 82 49 65 vhcurveto
          56 42 64 37 69 hhcurveto
          70 64 -37 -56 42 hvcurveto
          49 -65 15 -82 -82 vvcurveto
          endchar
        </CharString>
        <CharString name="Ohornacute">
          -11 callgsubr
          62 -21 45 -20 140 41 callgsubr
          hintmask 11010110
          -76 callgsubr
          hintmask 00101000
          -127 510 -102 callgsubr
        </CharString>
        <CharString name="Ohorndotbelow">
          81 callgsubr
          86 -20 hstemhm
          57 102 187 108 123 108 -47 102 hintmask 01111010
          740 338 rmoveto
          96 -35 93 -65 70 vhcurveto
          -8 9 -8 8 -9 8 rrcurveto
          42 12 28 44 49 vvcurveto
          34 -22 30 -32 -36 -18 -27 -27 -27 18 -27 36 4 3 0 1 4 vhcurveto
          -12 -20 -19 -16 -23 -5 rrcurveto
          39 -55 -66 23 -69 hhcurveto
          -91 -87 -40 -68 -63 hvcurveto
          -65 -70 -35 -93 -96 vvcurveto
          -94 35 -92 65 -68 vhcurveto
          -67 63 87 -39 91 hhcurveto
          92 87 39 67 63 hvcurveto
          hintmask 01101001
          65 68 35 92 94 vvcurveto
          -102 17 rmoveto
          -87 -14 -89 -50 -72 vhcurveto
          -59 -41 -63 -40 -72 hhcurveto
          -71 -63 40 59 -41 hvcurveto
          -50 72 -14 89 87 vvcurveto
          82 15 82 49 65 vhcurveto
          56 42 64 37 69 hhcurveto
          70 64 -37 -56 42 hvcurveto
          49 -65 15 -82 -82 vvcurveto
          hintmask 10000100
          -184 -501 rmoveto
          79 callsubr
        </CharString>
        <CharString name="Ohorngrave">
          -11 callgsubr
          62 -21 45 -20 140 41 callgsubr
          hintmask 11010110
          -76 callgsubr
          hintmask 00101000
          -168 415 -68 callgsubr
        </CharString>
        <CharString name="Ohornhookabove">
          -11 callgsubr
          74 -21 33 -20 195 41 callgsubr
          hintmask 11010110
          -76 callgsubr
          hintmask 00101000
          -138 544 -107 callgsubr
        </CharString>
        <CharString name="Ohorntilde">
          -11 callgsubr
          31 50 -4 50 -41 41 callgsubr
          hintmask 11001110
          -76 callgsubr
          hintmask 00010000
          -68 460 -91 callsubr
        </CharString>
        <CharString name="Ohungarumlaut">
          -11 callgsubr
          62 -21 188 -86 callsubr
          -236 542 -71 callsubr
        </CharString>
        <CharString name="Omacron">
          -11 callgsubr
          51 35 48 callgsubr
          hintmask 11011000
          -100 callgsubr
          hintmask 00100000
          -54 402 -34 callsubr
        </CharString>
        <CharString name="Omega">
          -43 callsubr
        </CharString>
        <CharString name="Omicron">
          -11 callgsubr
          hstem
          43 callsubr
          vstem
          -100 callgsubr
          endchar
        </CharString>
        <CharString name="Oogonek">
          67 callgsubr
          -28 28 669 28 48 callgsubr
          hintmask 01110000
          -7 callsubr
          hintmask 10111000
          10 callsubr
          endchar
        </CharString>
        <CharString name="Oogonekacute">
          67 callgsubr
          -28 28 669 28 112 callgsubr
          480 102 hintmask 01100100
          -7 callsubr
          hintmask 10100110
          10 callsubr
          hintmask 00011000
          -99 511 -102 callgsubr
        </CharString>
        <CharString name="Orogate">
          799 57 102 228 24 228 102 vstem
          3 callsubr
          200 -148 159 -182 7 vhcurveto
          173 -24 -173 vlineto
          -182 -7 -148 -160 -199 vvcurveto
          -199 149 -155 181 -7 vhcurveto
          -172 24 172 vlineto
          181 7 149 155 199 vvcurveto
          -102 15 rmoveto
          -258 -139 -88 -101 -101 -139 88 258 244 143 79 97 97 143 -79 -244 vhcurveto
          endchar
        </CharString>
        <CharString name="Oslash">
          -40 callgsubr
        </CharString>
        <CharString name="Oslash.dup">
          -40 callgsubr
        </CharString>
        <CharString name="Oslashacute">
          799 -36 -21 35 25 677 25 35 -20 47 -21 165 -20 hstemhm
          57 90 -31 90 386 90 -31 90 hintmask 0011001010000000
          3 callsubr
          113 -49 105 -79 67 vhcurveto
          69 100 -22 16 -68 -98 rlineto
          27 -41 -63 36 -89 hhcurveto
          -187 -155 -163 -203 -122 56 -99 71 -60 hvcurveto
          hintmask 1100000101000000
          -68 -99 22 -16 68 98 rlineto
          -54 76 73 -9 44 hhcurveto
          186 156 158 203 hvcurveto
          -174 269 rmoveto
          -356 -511 rlineto
          hintmask 0110001001000000
          -42 56 -22 72 114 vvcurveto
          328 212 13 40 80 58 -41 -31 30 vhcurveto
          84 -269 rmoveto
          -62 -5 -99 -55 -76 vhcurveto
          -69 -51 -74 -30 -67 hhcurveto
          -80 -61 41 31 -27 hvcurveto
          355 510 rlineto
          43 -58 22 -75 -113 vvcurveto
          hintmask 0000110000000000
          -111 526 -102 callgsubr
        </CharString>
        <CharString name="Otilde">
          -11 callgsubr
          31 50 -4 50 -88 callsubr
          hintmask 00010000
          -69 461 -91 callsubr
        </CharString>
        <CharString name="P">
          97 callsubr
          0 90 0 102 cntrmask 00001110
          hintmask 01011110
          641 497 rmoveto
          99 -103 87 -139 vhcurveto
          -359 12 callsubr
          hlineto
          hintmask 10001110
          -31 vlineto
          hintmask 01001110
          3 45 56 0 46 hhcurveto
          hintmask 10111110
          59 callsubr
          235 167 vlineto
          -6 callgsubr
        </CharString>
        <CharString name="Phi">
          742 0 31 104 25 -24 25 362 25 104 31 hstemhm
          57 99 170 84 175 99 hintmask 11011111
          684 341 rmoveto
          103 -114 92 -160 12 vhcurveto
          55 49 callgsubr
          -55 vlineto
          -169 -17 -100 -95 -94 vvcurveto
          -98 105 -93 164 -16 vhcurveto
          39 callsubr
          163 12 111 95 99 vvcurveto
          -358 -180 rmoveto
          -109 13 -61 59 108 vvcurveto
          100 51 66 119 15 vhcurveto
          hintmask 00100010
          259 -180 rmoveto
          hintmask 01010011
          -114 -67 -56 -108 -12 vhcurveto
          363 vlineto
          95 -10 80 -47 -124 vvcurveto
          endchar
        </CharString>
        <CharString name="Pi">
          771 0 31 618 76 callsubr
          522 vlineto
          37 2 11 77 vhcurveto
          23 31 -694 -31 23 hlineto
          77 2 -11 -37 hvcurveto
          -522 -66 callsubr
          570 310 -570 -71 callgsubr
          endchar
        </CharString>
        <CharString name="Psi">
          799 0 31 493 31 97 31 hstem
          129 84 141 84 147 84 vstem
          741 542 rmoveto
          13 -11 0 -16 vhcurveto
          -35 hlineto
          -49 -44 -21 -134 -1 hvcurveto
          -1 -96 -29 -116 -117 -25 rrcurveto
          440 49 callgsubr
          -440 vlineto
          -140 32 -1 167 53 vvcurveto
          16 -2 51 -20 36 vhcurveto
          37 -22 -31 0 -19 hhcurveto
          -35 hlineto
          -16 -11 0 -13 -10 9 -1 10 -1 hvcurveto
          52 -8 1 -87 -40 vvcurveto
          -27 8 -77 39 -56 vhcurveto
          43 -62 59 -28 76 -10 rrcurveto
          39 callsubr
          201 24 29 152 1 110 rrcurveto
          14 1 87 56 8 vhcurveto
          5 1 10 1 10 vvcurveto
          endchar
        </CharString>
        <CharString name="Q">
          799 -194 102 70 28 -14 28 104 25 528 28 hstemhm
          57 99 159 25 302 99 -19 25 hintmask 1000000010000000
          747 -9 rmoveto
          9 0 12 -13 -7 -4 -6 -5 -1 vhcurveto
          -87 -8 -68 -6 -16 hhcurveto
          -54 -21 43 56 -23 hvcurveto
          hintmask 0100110100000000
          107 44 102 123 165 vvcurveto
          204 -155 162 -187 -187 -155 -163 -203 -203 156 -158 186 vhcurveto
          hintmask 1011111010000000
          35 38 7 7 24 hvcurveto
          -99 18 15 -87 93 hhcurveto
          104 21 134 51 hvcurveto
          -105 348 rmoveto
          -132 -40 -106 -86 -58 vhcurveto
          50 -20 -31 56 -65 hhcurveto
          -49 -36 -39 -46 -24 12 -20 0 hvcurveto
          -97 37 -74 103 179 vvcurveto
          248 139 90 104 vhcurveto
          hintmask 0101001100000000
          104 139 -89 -249 hvcurveto
          -154 -312 rmoveto
          -15 -29 -34 -6 -26 hhcurveto
          -49 -10 42 16 30 22 30 39 53 21 -42 -55 13 hvcurveto
          endchar
        </CharString>
        <CharString name="R">
          110 callgsubr
          0 87 0 102 cntrmask 11111100
          -102 callsubr
          endchar
        </CharString>
        <CharString name="Racute">
          53 callgsubr
          194 102 98 27 cntrmask 11100000
          -102 callsubr
          hintmask 11100000
          -7 362 -102 callgsubr
        </CharString>
        <CharString name="Rcaron">
          53 callgsubr
          194 102 98 27 cntrmask 11100000
          -102 callsubr
          hintmask 11100000
          4 350 -57 callgsubr
        </CharString>
        <CharString name="Rcedilla">
          110 callgsubr
          87 102 194 102 98 27 cntrmask 11100000
          -102 callsubr
          -102 -648 -95 callgsubr
        </CharString>
        <CharString name="Rcommaaccent">
          53 callgsubr
          194 102 98 27 cntrmask 11100000
          -102 callsubr
          hintmask 11100000
          -102 -648 -95 callgsubr
        </CharString>
        <CharString name="Rdblgrave">
          53 callgsubr
          194 102 98 27 cntrmask 11100000
          -102 callsubr
          hintmask 11100000
          -49 256 -93 callsubr
        </CharString>
        <CharString name="Rdotaccent">
          53 callgsubr
          -7 108 93 102 98 27 cntrmask 11100000
          hintmask 11111011
          -102 callsubr
          hintmask 11100100
          -93 309 rmoveto
          79 callsubr
        </CharString>
        <CharString name="Rdotbelow">
          53 callgsubr
          -7 108 93 102 98 27 cntrmask 11100000
          hintmask 11111011
          -102 callsubr
          hintmask 11100100
          -93 -649 rmoveto
          79 callsubr
        </CharString>
        <CharString name="Rdotbelowmacron">
          53 callgsubr
          -7 108 93 102 98 27 cntrmask 11100000
          hintmask 11111011
          -102 callsubr
          -93 -649 117 callgsubr
          hintmask 11100100
          -30 -24 -24 -30 -30 24 -24 30 30 24 24 30 hvcurveto
          hintmask 11100000
          131 902 -34 callsubr
        </CharString>
        <CharString name="Rho">
          97 callsubr
          90 102 205 102 hintmask 01011000
          641 497 rmoveto
          99 -103 87 -139 vhcurveto
          -359 12 callsubr
          hlineto
          hintmask 10001000
          -31 vlineto
          hintmask 01000000
          3 45 56 0 46 hhcurveto
          hintmask 10110110
          59 callsubr
          235 167 vlineto
          -6 callgsubr
        </CharString>
        <CharString name="S">
          571 -22 92 callgsubr
          106 64 158 64 hintmask 0001011100000000
          513 185 rmoveto
          -82 callgsubr
          hintmask 0110101110000000
          -73 callgsubr
          hintmask 1000001010000000
          -51 callgsubr
          endchar
        </CharString>
        <CharString name="S_S">
          1142 -22 92 callgsubr
          106 64 158 64 115 90 callgsubr
          hintmask 0001011100000000
          513 185 rmoveto
          -82 callgsubr
          hintmask 0110101110000000
          -73 callgsubr
          hintmask 1001011011100000
          -51 callgsubr
          571 hmoveto
          -82 callgsubr
          hintmask 0110100001110000
          -73 callgsubr
          hintmask 1000000001010000
          -51 callgsubr
          endchar
        </CharString>
        <CharString name="Sacute">
          571 -22 -14 callsubr
          62 -21 165 -20 64 callgsubr
          hintmask 0001010011000000
          513 185 rmoveto
          -82 callgsubr
          hintmask 0110100011100000
          -73 callgsubr
          hintmask 1000000010100000
          -51 callgsubr
          hintmask 0000001100000000
          -87 680 -102 callgsubr
        </CharString>
        <CharString name="Scaron">
          571 -22 -14 callsubr
          52 -21 133 -20 64 callgsubr
          hintmask 0001010011000000
          513 185 rmoveto
          -82 callgsubr
          hintmask 0110100011100000
          -73 callgsubr
          hintmask 1000000010100000
          -51 callgsubr
          hintmask 0000001100000000
          -76 668 -57 callgsubr
        </CharString>
        <CharString name="Scedilla">
          571 -200 28 78 28 88 callsubr
          -37 64 79 64 158 64 hintmask 0000010110100000
          513 185 rmoveto
          -82 callgsubr
          hintmask 0001101010110000
          -73 callgsubr
          hintmask 0010000010000000
          -193 vlineto
          -20 0 -8 12 vhcurveto
          hintmask 1110000001010000
          7 1 1 12 7 hvcurveto
          13 18 -10 -13 33 52 43 -42 51 -17 44 -7 rrcurveto
          -76 vlineto
          37 41 -7 -32 -39 -97 0 -77 16 callgsubr
          47 -55 20 -53 hvcurveto
          44 vlineto
          120 2 79 99 106 vvcurveto
          endchar
        </CharString>
        <CharString name="Scircumflex">
          571 -22 -14 callsubr
          52 -21 133 -20 64 callgsubr
          hintmask 0001010011000000
          513 185 rmoveto
          -82 callgsubr
          hintmask 0110100011100000
          -73 callgsubr
          hintmask 1000000010100000
          -51 callgsubr
          hintmask 0000001100000000
          -76 567 -48 callgsubr
        </CharString>
        <CharString name="Sdotbelow">
          571 11 callgsubr
          70 92 callgsubr
          106 64 -59 108 109 64 hintmask 0000101110000000
          513 185 rmoveto
          -82 callgsubr
          hintmask 0011010110100000
          -73 callgsubr
          hintmask 0100000100100000
          -51 callgsubr
          hintmask 1000000001000000
          -173 -331 rmoveto
          79 callsubr
        </CharString>
        <CharString name="Sigma">
          742 0 43 283 31 295 31 hstem
          650 34 vstem
          684 237 rmoveto
          -28 hlineto
          -164 -20 -61 -30 -168 hhcurveto
          -285 hlineto
          257 283 rlineto
          10 10 134 callgsubr
          0 0 6 -7 9 vhcurveto
          -209 295 rlineto
          237 hlineto
          156 70 -25 -169 20 hvcurveto
          28 hlineto
          -28 225 rlineto
          -572 hlineto
          -22 -5 0 -22 hvcurveto
          256 -363 -245 -269 rlineto
          -9 -10 -2 -2 -4 vvcurveto
          -13 11 0 16 vhcurveto
          572 hlineto
          endchar
        </CharString>
        <CharString name="T">
          83 callsubr
          hstem
          326 90 vstem
          -87 callgsubr
          endchar
        </CharString>
        <CharString name="T_uni0303">
          83 callsubr
          59 50 -4 50 hstemhm
          326 90 hintmask 11001000
          -87 callgsubr
          hintmask 00010000
          -135 363 -91 callsubr
        </CharString>
        <CharString name="T_uni0308">
          83 callsubr
          59 97 hstemhm
          218 97 11 90 12 97 hintmask 11001000
          -87 callgsubr
          hintmask 00110100
          -361 333 -70 callgsubr
        </CharString>
        <CharString name="Tau">
          83 callsubr
          hstem
          326 90 vstem
          -87 callgsubr
          endchar
        </CharString>
        <CharString name="Tcaron">
          83 callsubr
          80 -21 133 -20 hstemhm
          326 90 hintmask 11001000
          -87 callgsubr
          hintmask 00110000
          -154 401 -57 callgsubr
        </CharString>
        <CharString name="Tcedilla">
          742 -200 28 78 28 66 31 615 31 hstemhm
          326 90 -73 56 23 86 hintmask 00111000
          704 452 rmoveto
          -20 225 rlineto
          -627 hlineto
          -20 -225 rlineto
          28 hlineto
          165 14 20 29 150 hhcurveto
          19 29 0 -2 10 hvcurveto
          18 -4 1 -10 -25 vvcurveto
          -525 vlineto
          -34 0 -15 -105 vhcurveto
          -39 -31 hlineto
          hintmask 11100110
          2 30 80 1 51 hhcurveto
          -97 vlineto
          -16 callgsubr
          47 -55 20 -54 hvcurveto
          69 vlineto
          51 80 -1 -2 30 hvcurveto
          31 -39 vlineto
          hintmask 00011000
          -105 0 15 34 hvcurveto
          525 vlineto
          26 1 9 20 4 vhcurveto
          2 10 27 0 18 hhcurveto
          150 20 -29 -165 14 hvcurveto
          endchar
        </CharString>
        <CharString name="Tdotbelow">
          742 4 callsubr
          615 31 hstemhm
          317 108 -99 90 hintmask 01101000
          -87 callgsubr
          hintmask 10010000
          -251 -598 rmoveto
          79 callsubr
        </CharString>
        <CharString name="Theta">
          799 -22 27 299 77 299 25 hstem
          57 96 58 28 320 28 58 96 vstem
          71 callsubr
          -203 156 -158 186 186 156 158 203 vhcurveto
          -96 hmoveto
          -247 -142 -87 -104 -103 -143 87 247 247 139 94 107 108 138 -95 -246 vhcurveto
          -58 -69 rmoveto
          145 -28 -34 -320 34 -28 -145 28 34 320 -34 vlineto
          endchar
        </CharString>
        <CharString name="Thorn">
          642 0 31 147 31 311 31 101 31 hstem
          142 84 258 99 vstem
          583 364 rmoveto
          97 -87 90 -128 vhcurveto
          -142 51 hlineto
          32 3 10 28 5 vhcurveto
          3 18 33 0 20 hhcurveto
          31 vlineto
          -144 -3 -144 3 rlineto
          -31 vlineto
          28 27 0 -4 19 hvcurveto
          27 -5 1 -14 -27 vvcurveto
          -521 vlineto
          -32 -3 -10 -28 -5 vhcurveto
          -3 -18 -33 0 -20 hhcurveto
          -31 vlineto
          144 3 144 29 callsubr
          -28 -27 0 4 -19 hvcurveto
          -27 5 -1 14 27 vvcurveto
          97 145 vlineto
          122 90 88 98 hvcurveto
          -99 1 rmoveto
          -75 -51 -81 -97 vhcurveto
          -110 311 121 hlineto
          101 36 -93 -62 hvcurveto
          endchar
        </CharString>
        <CharString name="Tlinebelow">
          742 -163 35 128 31 615 31 hstemhm
          326 90 hintmask 01110000
          -87 callgsubr
          hintmask 10000000
          -120 -615 -34 callsubr
        </CharString>
        <CharString name="U">
          0 callsubr
          hstem
          -3 callsubr
          vstem
          -105 callgsubr
          endchar
        </CharString>
        <CharString name="U_uni032F">
          771 -212 -21 133 41 37 31 643 31 hstemhm
          -3 callsubr
          hintmask 00111110
          -105 callgsubr
          hintmask 11000000
          -170 -885 -49 callsubr
        </CharString>
        <CharString name="Uacute">
          0 callsubr
          84 -21 165 -20 hstemhm
          -3 callsubr
          hintmask 11001110
          -105 callgsubr
          hintmask 00110000
          -184 213 -102 callgsubr
        </CharString>
        <CharString name="Ubreve">
          0 callsubr
          63 41 133 -20 hstemhm
          -3 callsubr
          hintmask 11001110
          -105 callgsubr
          hintmask 00110000
          -170 268 -99 callsubr
          endchar
        </CharString>
        <CharString name="Ucaron">
          0 callsubr
          74 -21 133 -20 hstemhm
          -3 callsubr
          hintmask 11001110
          -105 callgsubr
          hintmask 00110000
          -173 201 -57 callgsubr
        </CharString>
        <CharString name="Ucircumflex">
          0 callsubr
          74 -21 133 -20 hstemhm
          -3 callsubr
          hintmask 11001110
          -105 callgsubr
          hintmask 00110000
          -173 100 -48 callgsubr
        </CharString>
        <CharString name="Udblgrave">
          0 callsubr
          84 -21 188 -20 hstemhm
          -3 callsubr
          hintmask 11001110
          -105 callgsubr
          hintmask 00110000
          -198 107 -93 callsubr
        </CharString>
        <CharString name="Udieresis">
          0 callsubr
          53 97 22 callsubr
          25 97 -43 90 66 97 37 31 hintmask 11010101
          -105 callgsubr
          hintmask 00101010
          -26 callgsubr
          endchar
        </CharString>
        <CharString name="Udieresisacute">
          0 callsubr
          53 97 83 -21 165 94 callsubr
          25 97 -43 90 66 97 37 31 hintmask 1100010101000000
          -105 callgsubr
          hintmask 0011101010000000
          -26 callgsubr
          -14 229 -102 callgsubr
        </CharString>
        <CharString name="Udieresiscaron">
          0 callsubr
          53 97 73 89 callgsubr
          25 97 -43 90 66 97 37 31 hintmask 1100010101000000
          -105 callgsubr
          hintmask 0011101010000000
          -26 callgsubr
          -3 217 -57 callgsubr
        </CharString>
        <CharString name="Udieresisgrave">
          0 callsubr
          53 97 83 -21 165 94 callsubr
          25 97 -43 90 66 97 37 31 hintmask 1100010101000000
          -105 callgsubr
          hintmask 0011101010000000
          -26 callgsubr
          -84 134 -68 callgsubr
        </CharString>
        <CharString name="Udotbelow">
          771 11 callgsubr
          70 31 643 123 callgsubr
          79 90 -45 108 137 31 hintmask 01111010
          -105 callgsubr
          hintmask 10000100
          -270 -798 rmoveto
          79 callsubr
        </CharString>
        <CharString name="Ugrave">
          0 callsubr
          84 -21 165 -20 hstemhm
          -3 callsubr
          hintmask 11001110
          -105 callgsubr
          hintmask 00110000
          -254 118 -68 callgsubr
        </CharString>
        <CharString name="Uhookabove">
          0 callsubr
          96 -21 208 -20 hstemhm
          -3 callsubr
          hintmask 11001110
          -105 callgsubr
          hintmask 00110000
          -224 247 -107 callgsubr
        </CharString>
        <CharString name="Uhorn">
          15 callsubr
          108 6 callgsubr
          hintmask 0100110001100000
          744 725 rmoveto
          35 -21 31 -33 -36 -18 -27 -27 -27 18 -27 36 6 5 1 1 5 vhcurveto
          -15 -26 -30 -18 -33 -5 rrcurveto
          47 vlineto
          hintmask 0001000000000000
          -2 -5 -5 -1 -5 hhcurveto
          hintmask 1100101001000000
          -117 3 rlineto
          -31 vlineto
          26 27 -2 -14 23 hvcurveto
          16 -10 9 -19 -19 vvcurveto
          -360 vlineto
          -59 -20 -55 -38 -42 vhcurveto
          -40 -36 -51 -23 -53 hhcurveto
          -49 -47 23 39 -30 hvcurveto
          -32 40 -11 53 64 vvcurveto
          hintmask 0010001000000000
          387 vlineto
          hintmask 0011000010000000
          13 5 14 12 4 vhcurveto
          6 17 39 0 28 hhcurveto
          hintmask 0000100000000000
          31 vlineto
          hintmask 0001000100000000
          -146 -3 rlineto
          hintmask 0010101000000000
          -146 3 rlineto
          -31 vlineto
          28 39 0 -6 17 hvcurveto
          12 -4 5 -14 -13 vvcurveto
          -387 vlineto
          hintmask 1100000011100000
          -67 28 -63 48 -47 vhcurveto
          -47 49 66 -26 68 hhcurveto
          61 59 28 46 42 hvcurveto
          44 47 23 63 66 vvcurveto
          380 vlineto
          64 7 52 48 62 vvcurveto
          endchar
        </CharString>
        <CharString name="Uhornacute">
          15 callsubr
          84 -21 45 -20 140 6 callgsubr
          hintmask 0100101000011000
          -83 callgsubr
          hintmask 0000010100000000
          -224 140 -102 callgsubr
        </CharString>
        <CharString name="Uhorndotbelow">
          771 11 callgsubr
          70 31 599 28 -21 31 6 28 -28 31 108 94 callsubr
          -45 31 0 31 85 108 157 31 8 108 hintmask 0010011000011000
          744 725 rmoveto
          35 -21 31 -33 -36 -18 -27 -27 -27 18 -27 36 6 5 1 1 5 vhcurveto
          -15 -26 -30 -18 -33 -5 rrcurveto
          47 vlineto
          hintmask 0000100000000000
          -2 -5 -5 -1 -5 hhcurveto
          hintmask 0110010100010000
          -117 3 rlineto
          -31 vlineto
          26 27 -2 -14 23 hvcurveto
          16 -10 9 -19 -19 vvcurveto
          -360 vlineto
          -59 -20 -55 -38 -42 vhcurveto
          -40 -36 -51 -23 -53 hhcurveto
          -49 -47 23 39 -30 hvcurveto
          -32 40 -11 53 64 vvcurveto
          hintmask 0001000100000000
          387 vlineto
          hintmask 0001100001000000
          13 5 14 12 4 vhcurveto
          6 17 39 0 28 hhcurveto
          hintmask 0000010000000000
          31 vlineto
          hintmask 0000100010000000
          -146 -3 rlineto
          hintmask 0001010100000000
          -146 3 rlineto
          -31 vlineto
          28 39 0 -6 17 hvcurveto
          12 -4 5 -14 -13 vvcurveto
          -387 vlineto
          hintmask 0110000001011000
          -67 28 -63 48 -47 vhcurveto
          -47 49 66 -26 68 hhcurveto
          61 59 28 46 42 hvcurveto
          44 47 23 63 66 vvcurveto
          380 vlineto
          64 7 52 48 62 vvcurveto
          hintmask 1000000000100000
          -304 -871 rmoveto
          79 callsubr
        </CharString>
        <CharString name="Uhorngrave">
          15 callsubr
          84 -21 45 -20 140 6 callgsubr
          hintmask 0100101000011000
          -83 callgsubr
          hintmask 0000010100000000
          -266 45 -68 callgsubr
        </CharString>
        <CharString name="Uhornhookabove">
          15 callsubr
          96 -21 33 -20 195 6 callgsubr
          hintmask 0100101000011000
          -83 callgsubr
          hintmask 0000010100000000
          -236 174 -107 callgsubr
        </CharString>
        <CharString name="Uhorntilde">
          15 callsubr
          53 50 -4 50 -41 6 callgsubr
          hintmask 0100100100011000
          -83 callgsubr
          hintmask 0000001000000000
          -166 90 rmoveto
          -18 17 rlineto
          hintmask 0000010000000000
          -76 callsubr
          hintmask 0000001000000000
          -75 callsubr
          hintmask 0000010000000000
          18 -17 rlineto
          hintmask 0000001000000000
          -75 callgsubr
          hintmask 0000010000000000
          -79 callgsubr
        </CharString>
        <CharString name="Uhungarumlaut">
          0 callsubr
          84 -21 188 -20 hstemhm
          -3 callsubr
          hintmask 11001110
          -105 callgsubr
          hintmask 00110100
          -321 244 -71 callsubr
        </CharString>
        <CharString name="Umacron">
          0 callsubr
          73 35 hstemhm
          -3 callsubr
          hintmask 11011100
          -105 callgsubr
          hintmask 00100000
          -139 104 -34 callsubr
        </CharString>
        <CharString name="Uogonek">
          771 -215 49 144 31 643 31 hstem
          -3 callsubr
          vstem
          732 652 rmoveto
          31 vlineto
          -2 -54 -15 -1 -48 hhcurveto
          -49 -13 1 2 -56 hvcurveto
          -31 vlineto
          102 0 -48 -27 hvcurveto
          -347 vlineto
          -136 -98 -85 -100 -58 -113 35 180 vhcurveto
          380 -98 callgsubr
          -374 vlineto
          -129 95 -98 117 -21 vhcurveto
          -27 -30 -22 -40 -33 vvcurveto
          -60 callgsubr
          -67 3 -26 52 24 49 7 15 10 14 12 11 rrcurveto
          11 hlineto
          147 84 137 100 hvcurveto
          360 vlineto
          30 0 47 102 vhcurveto
          endchar
        </CharString>
        <CharString name="Upsilon">
          799 0 31 -28 77 548 77 hstemhm
          57 37 260 90 260 37 cntrmask 00011100
          hintmask 01111100
          741 552 rmoveto
          62 -43 91 -91 -161 -38 -198 -45 -8 vhcurveto
          -2 hlineto
          45 -8 -38 198 -161 hhcurveto
          -91 -43 -92 -61 -8 0 -10 16 13 1 7 11 1 hvcurveto
          52 6 49 24 47 hhcurveto
          144 20 -203 -75 hvcurveto
          -270 vlineto
          hintmask 10011100
          -37 -4 -12 -91 vhcurveto
          -32 -31 hlineto
          hintmask 01011100
          3 35 96 0 41 hhcurveto
          hintmask 10011100
          41 96 0 -3 35 hvcurveto
          31 -32 vlineto
          hintmask 01111100
          -91 -4 12 37 hvcurveto
          270 vlineto
          85 24 193 140 43 53 -21 -57 6 vhcurveto
          -8 1 1 -8 13 hhcurveto
          16 0 10 8 hvcurveto
          endchar
        </CharString>
        <CharString name="Uring">
          0 callsubr
          33 108 callgsubr
          22 callsubr
          78 35 -34 90 74 35 91 31 hintmask 1100101010000000
          -105 callgsubr
          hintmask 0011010100000000
          -259 152 -52 callgsubr
        </CharString>
        <CharString name="Utilde">
          0 callsubr
          53 50 -4 50 hstemhm
          -3 callsubr
          hintmask 11001110
          -105 callgsubr
          hintmask 00010000
          -154 163 -91 callsubr
        </CharString>
        <CharString name="V">
          771 -1 -21 604 31 39 31 hstem
          750 652 61 callsubr
          -35 -29 0 -34 hhcurveto
          -112 3 rlineto
          -31 vlineto
          49 -1 22 -23 -26 vvcurveto
          -8 -1 -2 -4 -10 vhcurveto
          -191 -485 -200 506 rlineto
          -5 12 0 7 0 vvcurveto
          30 51 0 29 vhcurveto
          109 callgsubr
          -51 0 -46 hhcurveto
          -128 3 rlineto
          -31 vlineto
          73 11 -4 -35 14 hvcurveto
          242 -613 rlineto
          -15 6 3 -7 16 hhcurveto
          16 3 6 14 5 hvcurveto
          232 587 rlineto
          53 21 41 14 47 hhcurveto
          endchar
        </CharString>
        <CharString name="W">
          31 callsubr
          hstemhm
          -92 callsubr
          endchar
        </CharString>
        <CharString name="Wacute">
          31 callsubr
          84 -21 165 -20 hstemhm
          -92 callsubr
          hintmask 00001100
          -368 213 -102 callgsubr
        </CharString>
        <CharString name="Wcircumflex">
          31 callsubr
          117 callsubr
          -92 callsubr
          hintmask 00001100
          -357 100 -48 callgsubr
        </CharString>
        <CharString name="Wdieresis">
          31 callsubr
          53 97 hstemhm
          375 97 113 97 -92 callsubr
          hintmask 00001110
          -564 18 callsubr
        </CharString>
        <CharString name="Wgrave">
          31 callsubr
          84 -21 165 -20 hstemhm
          -92 callsubr
          hintmask 00001100
          -438 118 -68 callgsubr
        </CharString>
        <CharString name="X">
          -47 callsubr
        </CharString>
        <CharString name="Xi">
          685 0 71 97 -20 139 -21 51 71 51 -20 122 -21 86 71 hstemhm
          43 28 -22 28 66 28 342 28 66 28 -22 28 hintmask 0000011010010000
          635 520 rmoveto
          -9 157 rlineto
          -568 hlineto
          -9 -157 rlineto
          28 hlineto
          2 26 2 38 9 13 rrcurveto
          9 5 60 0 11 hhcurveto
          352 hlineto
          0 69 0 6 -8 vhcurveto
          10 -11 3 -41 1 -26 rrcurveto
          34 -352 rmoveto
          hintmask 1111100101101000
          -28 hlineto
          -1 -25 -2 -44 -9 -17 rrcurveto
          -11 -6 -53 0 -23 hhcurveto
          -354 hlineto
          -9 -66 0 9 -6 hvcurveto
          -9 16 -3 43 -1 29 rrcurveto
          -28 hlineto
          9 -168 rlineto
          580 hlineto
          -91 266 rmoveto
          173 -28 -51 -342 51 -28 -173 28 51 342 -51 vlineto
          endchar
        </CharString>
        <CharString name="Y">
          16 callsubr
          hstem
          342 87 vstem
          -94 callsubr
          endchar
        </CharString>
        <CharString name="Yacute">
          16 callsubr
          84 -21 165 -20 hstemhm
          342 87 hintmask 11001000
          -94 callsubr
          hintmask 00110000
          -232 213 -102 callgsubr
        </CharString>
        <CharString name="Ycircumflex">
          16 callsubr
          117 callsubr
          342 87 hintmask 11001000
          -94 callsubr
          hintmask 00110000
          -221 100 -48 callgsubr
        </CharString>
        <CharString name="Ydieresis">
          16 callsubr
          53 97 hstemhm
          232 97 13 87 13 97 hintmask 11001000
          -94 callsubr
          hintmask 00110100
          -428 18 callsubr
        </CharString>
        <CharString name="Ydotbelow">
          89 callsubr
          621 31 hstemhm
          332 108 -98 87 hintmask 01101000
          -94 callsubr
          hintmask 10010000
          -317 -798 rmoveto
          79 callsubr
        </CharString>
        <CharString name="Ygrave">
          16 callsubr
          84 -21 165 -20 hstemhm
          342 87 hintmask 11001000
          -94 callsubr
          hintmask 00110000
          -302 118 -68 callgsubr
        </CharString>
        <CharString name="Yhookabove">
          16 callsubr
          96 -21 208 -20 hstemhm
          342 87 hintmask 11001000
          -94 callsubr
          hintmask 00111000
          -272 247 -107 callgsubr
        </CharString>
        <CharString name="Ytilde">
          16 callsubr
          53 50 -4 50 hstemhm
          342 87 hintmask 11001000
          -94 callsubr
          hintmask 00010000
          -202 163 -91 callsubr
        </CharString>
        <CharString name="Z">
          83 callgsubr
          hstem
          -69 callsubr
          endchar
        </CharString>
        <CharString name="Zacute">
          83 callgsubr
          84 -21 165 -20 hstemhm
          hintmask 11000000
          -69 callsubr
          hintmask 00110000
          -105 865 -102 callgsubr
        </CharString>
        <CharString name="Zcaron">
          83 callgsubr
          117 callsubr
          hintmask 11000000
          -69 callsubr
          hintmask 00110000
          -94 853 -57 callgsubr
        </CharString>
        <CharString name="Zdotaccent">
          83 callgsubr
          75 108 hstemhm
          260 108 hintmask 11000000
          -69 callsubr
          hintmask 00110000
          -191 812 rmoveto
          79 callsubr
        </CharString>
        <CharString name="Zdotbelow">
          628 11 callgsubr
          92 34 618 31 hstemhm
          260 108 hintmask 01100000
          -69 callsubr
          hintmask 10010000
          -191 -146 rmoveto
          79 callsubr
        </CharString>
        <CharString name="Zeta">
          83 callgsubr
          hstem
          -69 callsubr
          endchar
        </CharString>
        <CharString name="a">
          -50 callsubr
          -10 callsubr
          hintmask 01011110
          -106 callgsubr
          hintmask 10000000
          -82 97 -27 67 83 38 55 28 14 vhcurveto
          hintmask 01000010
          -42 5 29 -36 43 hhcurveto
          25 63 15 80 hvcurveto
          -174 52 rmoveto
          hintmask 10100100
          -66 callgsubr
          endchar
        </CharString>
        <CharString name="aacute">
          -50 callsubr
          81 -21 190 -101 callgsubr
          61 419 -90 callgsubr
        </CharString>
        <CharString name="abreve">
          -50 callsubr
          68 41 133 -101 callgsubr
          35 callgsubr
          endchar
        </CharString>
        <CharString name="abreveacute">
          -50 callsubr
          68 41 318 -103 callsubr
          hintmask 0000110100000000
          35 callgsubr
          -50 139 -102 callgsubr
        </CharString>
        <CharString name="abrevedotbelow">
          514 11 callgsubr
          81 25 -20 35 211 25 158 25 68 41 133 -20 hstemhm
          63 93 47 108 12 74 72 28 hintmask 0010100101100000
          -106 callgsubr
          hintmask 0100000000000000
          -82 97 -27 67 83 38 55 28 14 vhcurveto
          hintmask 0010000000100000
          -42 5 29 -36 43 hhcurveto
          25 63 15 80 hvcurveto
          -174 52 rmoveto
          hintmask 0101011001000000
          -66 callgsubr
          35 callgsubr
          hintmask 1000000010000000
          -100 -836 rmoveto
          79 callsubr
        </CharString>
        <CharString name="abrevegrave">
          -50 callsubr
          68 41 133 -101 callgsubr
          35 callgsubr
          -49 44 rmoveto
          -15 -24 -169 90 -14 8 -10 6 -2 15 rlinecurve
          24 -5 19 22 24 hhcurveto
          11 6 -6 -7 9 hvcurveto
          endchar
        </CharString>
        <CharString name="abrevehookabove">
          -50 callsubr
          68 41 341 -101 callgsubr
          35 callgsubr
          -54 141 -107 callgsubr
        </CharString>
        <CharString name="abrevetilde">
          -50 callsubr
          68 41 173 50 -4 50 -10 callsubr
          hintmask 0101000111000000
          -104 callgsubr
          hintmask 0100000001000000
          -42 5 29 -36 43 hhcurveto
          25 63 15 80 hvcurveto
          -174 52 rmoveto
          hintmask 1010000010000000
          -66 callgsubr
          hintmask 0000101000000000
          88 450 27 callgsubr
          hintmask 0000010000000000
          -76 callsubr
          hintmask 0000001000000000
          -75 callsubr
          hintmask 0000010000000000
          18 -17 rlineto
          hintmask 0000001000000000
          -75 callgsubr
          hintmask 0000010000000000
          -79 callgsubr
        </CharString>
        <CharString name="acaron">
          -50 callsubr
          88 -21 176 -101 callgsubr
          86 437 -57 callsubr
        </CharString>
        <CharString name="acircumflex">
          -50 callsubr
          88 -21 176 -101 callgsubr
          86 289 -65 callsubr
          endchar
        </CharString>
        <CharString name="acircumflexacute">
          -50 callsubr
          88 -21 318 -101 callgsubr
          85 291 -86 callgsubr
          -34 272 -102 callgsubr
        </CharString>
        <CharString name="acircumflexdotbelow">
          514 11 callgsubr
          81 25 -20 35 211 25 158 25 88 -21 176 -20 hstemhm
          63 93 47 108 12 74 72 28 hintmask 0010100101100000
          -106 callgsubr
          hintmask 0100000000000000
          -82 97 -27 67 83 38 55 28 14 vhcurveto
          hintmask 0010000000100000
          -42 5 29 -36 43 hhcurveto
          25 63 15 80 hvcurveto
          -174 52 rmoveto
          hintmask 0101011001000000
          -66 callgsubr
          86 289 -65 callsubr
          hintmask 1000000010000000
          -85 -661 rmoveto
          79 callsubr
        </CharString>
        <CharString name="acircumflexgrave">
          -50 callsubr
          88 -21 133 -101 callgsubr
          85 291 -65 callgsubr
        </CharString>
        <CharString name="acircumflexhookabove">
          -50 callsubr
          88 -21 341 -101 callgsubr
          85 291 -86 callgsubr
          61 274 -107 callgsubr
        </CharString>
        <CharString name="acircumflextilde">
          -50 callsubr
          83 25 callsubr
          63 93 167 74 72 28 hintmask 0101000011100000
          -104 callgsubr
          hintmask 0100000000100000
          -42 5 29 -36 43 hhcurveto
          25 63 15 80 hvcurveto
          -174 52 rmoveto
          hintmask 1010000001000000
          -66 callgsubr
          hintmask 0000100000000000
          85 291 5 callsubr
          hintmask 0000010000000000
          10 -16 rlineto
          hintmask 0000100000000000
          140 66 rlineto
          hintmask 0000010000000000
          140 -66 rlineto
          hintmask 0000100100000000
          32 252 rmoveto
          -18 17 rlineto
          hintmask 0000001000000000
          -76 callsubr
          hintmask 0000000100000000
          -75 callsubr
          hintmask 0000001000000000
          18 -17 rlineto
          hintmask 0000000100000000
          -75 callgsubr
          hintmask 0000001000000000
          -79 callgsubr
        </CharString>
        <CharString name="acute">
          514 529 62 callgsubr
          hstem
          384 659 -90 callgsubr
        </CharString>
        <CharString name="acute.cap">
          514 514 -21 165 -20 hstem
          397 612 -102 callgsubr
        </CharString>
        <CharString name="acute.dup">
          514 529 62 callgsubr
          hstem
          384 659 -90 callgsubr
        </CharString>
        <CharString name="acute.ts1">
          514 530 62 callgsubr
          hstem
          403 660 rmoveto
          21 -19 18 -20 -23 -11 -22 -15 -12 vhcurveto
          -94 -117 -3 -4 -6 -5 -1 -5 rlinecurve
          -2 vlineto
          -6 11 -8 6 -6 vhcurveto
          44 31 43 36 42 33 rrcurveto
          17 13 26 13 25 vvcurveto
          endchar
        </CharString>
        <CharString name="adblgrave">
          -50 callsubr
          82 -21 188 -101 callgsubr
          60 282 -93 callsubr
        </CharString>
        <CharString name="adieresis">
          -50 callsubr
          107 97 hstemhm
          63 93 -36 97 81 97 -72 74 72 28 hintmask 0101001011000000
          497 89 rmoveto
          56 -28 -55 vlineto
          -11 0 -50 -36 -36 0 48 16 vhcurveto
          175 vlineto
          57 0 34 -45 41 vhcurveto
          33 -37 -48 15 -50 hhcurveto
          hintmask 1001010010000000
          -84 -70 -42 -64 -31 21 -17 26 27 19 20 26 43 -45 5 0 hvcurveto
          26 27 48 9 29 hhcurveto
          51 57 -38 -88 hvcurveto
          -33 vlineto
          -54 -2 -75 -5 -67 -32 rrcurveto
          -72 -35 -22 -52 -40 vvcurveto
          -82 97 -27 67 83 38 55 28 14 vhcurveto
          hintmask 0100000001000000
          -42 5 29 -36 43 hhcurveto
          25 63 15 80 hvcurveto
          -174 52 rmoveto
          hintmask 1010000010000000
          -66 callgsubr
          hintmask 0000101100000000
          -106 364 -60 callsubr
        </CharString>
        <CharString name="adotbelow">
          514 11 callgsubr
          81 25 -20 35 211 25 158 25 hstemhm
          63 93 47 108 12 74 72 28 hintmask 0010110110000000
          -106 callgsubr
          hintmask 0100000000000000
          -82 97 -27 67 83 38 55 28 14 vhcurveto
          hintmask 0010000010000000
          -42 5 29 -36 43 hhcurveto
          25 63 15 80 hvcurveto
          -174 52 rmoveto
          hintmask 0101000100000000
          -66 callgsubr
          hintmask 1000001000000000
          -12 -386 rmoveto
          79 callsubr
        </CharString>
        <CharString name="ae">
          -51 callsubr
        </CharString>
        <CharString name="ae.dup">
          -51 callsubr
        </CharString>
        <CharString name="aeacute">
          742 -11 25 -25 28 77 25 108 24 -22 24 41 94 35 25 90 callsubr
          46 80 40 62 118 62 237 67 hintmask 0100100000010000
          712 119 rmoveto
          7 -5 6 -9 -11 -2 -7 -4 -1 vhcurveto
          -101 -32 -78 -3 -16 hhcurveto
          -12 -138 1 211 hvcurveto
          277 hlineto
          hintmask 0111011001101000
          23 4 0 22 108 -58 89 -113 -87 -47 -54 -21 -19 hvcurveto
          31 -23 -52 44 -85 hhcurveto
          -86 -69 -43 -63 -31 21 -17 26 27 19 20 26 43 -45 5 0 hvcurveto
          32 37 51 3 17 hhcurveto
          51 57 -38 -88 hvcurveto
          -46 vlineto
          -162 -126 -59 -98 -78 91 -27 72 123 45 76 10 6 hvcurveto
          -57 43 66 -29 61 hhcurveto
          115 44 110 20 hvcurveto
          -67 134 rmoveto
          hintmask 1010101001001000
          -236 hlineto
          132 9 76 38 46 hhcurveto
          98 5 -134 -36 2 hvcurveto
          -299 -121 rmoveto
          -71 -67 -47 -63 -52 -38 36 44 vhcurveto
          hintmask 0001000000010000
          54 45 73 163 6 vhcurveto
          -23 0 -15 9 -37 vhcurveto
          3 -8 0 -2 -10 vvcurveto
          hintmask 0000000110000000
          152 527 -90 callgsubr
        </CharString>
        <CharString name="agrave">
          -50 callsubr
          81 -21 190 -101 callgsubr
          -2 289 -63 callgsubr
        </CharString>
        <CharString name="ahookabove">
          -50 callsubr
          72 -21 208 -101 callgsubr
          34 400 -107 callgsubr
        </CharString>
        <CharString name="amacron">
          -50 callsubr
          138 35 -10 callsubr
          hintmask 01010111
          -106 callgsubr
          hintmask 10000000
          -82 97 -27 67 83 38 55 28 14 vhcurveto
          hintmask 01000001
          -42 5 29 -36 43 hhcurveto
          25 63 15 80 hvcurveto
          -174 52 rmoveto
          hintmask 10100010
          -66 callgsubr
          hintmask 00001000
          119 346 -34 callsubr
        </CharString>
        <CharString name="ampersand">
          799 -22 31 317 25 -25 31 43 31 260 25 hstemhm
          43 86 37 67 -26 28 -17 86 -69 28 45 86 -24 28 42 86 -67 67 187 28 hintmask 0011000000000100
          747 400 rmoveto
          31 vlineto
          -35 -3 -65 0 0 vvcurveto
          -121 3 rlineto
          -31 vlineto
          48 21 -21 -22 -11 -2 -3 -10 -16 hvcurveto
          -53 -87 rlineto
          hintmask 0000000000011000
          -26 -43 -29 -42 -35 -36 -8 10 -113 138 -46 116 rrcurveto
          79 89 46 52 62 vvcurveto
          hintmask 0000101000100000
          43 -17 87 -73 -65 -77 -56 -108 vhcurveto
          hintmask 1101010100000110
          -30 4 -76 37 -95 vhcurveto
          -64 -66 32 34 -66 -68 rrcurveto
          -42 -44 -24 -24 -54 vvcurveto
          -87 85 -64 101 68 63 28 47 55 vhcurveto
          -66 76 67 -9 38 hhcurveto
          77 66 57 86 2 hvcurveto
          -28 hlineto
          -76 -2 -62 -36 -50 hhcurveto
          -53 -41 41 47 -46 hvcurveto
          45 50 40 62 35 57 41 68 rcurveline
          30 47 41 18 56 1 rrcurveto
          -377 186 rmoveto
          hintmask 1000111001010000
          -69 -94 -94 -13 -13 vhcurveto
          -29 81 -1 76 13 vvcurveto
          56 28 55 48 59 2 -96 -9 vhcurveto
          24 -513 rmoveto
          -29 -33 -58 -35 -68 hhcurveto
          -81 -25 92 57 hvcurveto
          hintmask 0010000010100000
          81 30 30 59 57 vhcurveto
          26 -64 41 -57 19 -26 38 -53 13 -14 39 -39 rrcurveto
          endchar
        </CharString>
        <CharString name="anglearc">
          799 -71 -21 686 -20 hstem
          572 42 vstem
          741 21 rmoveto
          9 -6 8 -8 3 vhcurveto
          -138 49 rlineto
          17 52 8 54 55 vvcurveto
          55 -8 54 -17 52 vhcurveto
          138 49 rlineto
          8 3 6 8 9 vvcurveto
          15 -14 10 -14 -5 vhcurveto
          -138 -50 -19 49 -27 45 -33 41 rlinecurve
          5 -4 -6 3 -6 hhcurveto
          -12 -9 -9 -12 -5 1 -5 3 -3 hvcurveto
          30 -38 25 -41 17 -44 -464 -166 rcurveline
          -8 -3 -6 -8 -9 vvcurveto
          -9 6 -8 8 -3 vhcurveto
          464 -166 -17 -44 -25 -41 -30 -38 rlinecurve
          -3 -3 -1 -5 -5 vvcurveto
          -12 9 -9 12 6 6 3 5 4 vhcurveto
          33 41 27 45 19 49 138 -50 rcurveline
          14 -5 14 10 15 vvcurveto
          -169 230 rmoveto
          -50 -8 -50 -14 -47 vhcurveto
          -410 147 410 147 rlineto
          14 -47 8 -50 -50 vvcurveto
          endchar
        </CharString>
        <CharString name="angleleft">
          400 -229 -21 1000 -20 21 -20 hstemhm
          hintmask 00100000
          342 -228 rmoveto
          2 vlineto
          -2 12 -7 13 -5 12 -140 361 rcurveline
          -21 54 rlineto
          -2 7 -6 9 8 vvcurveto
          4 2 5 2 4 vhcurveto
          34 88 125 323 rlineto
          6 16 13 21 17 vvcurveto
          12 -8 11 -12 vhcurveto
          hintmask 11000000
          -5 -1 -18 -3 -4 -27 -7 -16 rlinecurve
          -163 -421 rlineto
          -4 -10 -7 -12 -11 vvcurveto
          -10 6 -11 4 -9 vhcurveto
          21 -54 142 -366 4 -9 7 -40 23 -1 rlinecurve
          12 10 10 12 hvcurveto
          endchar
        </CharString>
        <CharString name="angleright">
          400 -229 -21 469 20 491 20 1 -20 hstemhm
          hintmask 00010000
          286 251 rmoveto
          11 -7 11 -4 10 vhcurveto
          -163 420 rlineto
          11 -5 -6 37 -22 hhcurveto
          hintmask 11100000
          -5 -1 rlineto
          -10 -7 -13 -7 -12 8 -13 4 -10 hvcurveto
          162 -417 rlineto
          3 -8 6 -10 -9 vvcurveto
          -4 -2 -4 -1 -4 vhcurveto
          -8 -19 -8 -23 -9 -22 -9 -23 rlinecurve
          -90 -231 -53 -137 rlineto
          -2 -5 -1 -5 -6 vvcurveto
          -11 2 10 -7 11 hhcurveto
          20 2 5 27 6 15 165 425 rcurveline
          3 10 7 11 11 vvcurveto
          endchar
        </CharString>
        <CharString name="aogonek">
          514 -11 25 -20 35 394 25 hstemhm
          33 80 210 74 72 28 hintmask 01111100
          -106 callgsubr
          hintmask 10000000
          -82 97 -27 67 83 38 55 28 14 vhcurveto
          3 -23 9 -21 16 -14 rrcurveto
          -39 -24 -47 -64 -47 vvcurveto
          52 callgsubr
          102 97 56 rrcurveto
          hintmask 01000100
          -2 6 7 -1 7 hhcurveto
          25 63 15 80 hvcurveto
          -174 52 rmoveto
          hintmask 10011000
          -66 callgsubr
          endchar
        </CharString>
        <CharString name="aogonekacute">
          514 -11 25 -20 35 394 25 90 callsubr
          33 80 210 74 72 28 hintmask 01100111
          -106 callgsubr
          hintmask 10000000
          -82 97 -27 67 83 38 55 28 14 vhcurveto
          3 -23 9 -21 16 -14 rrcurveto
          -39 -24 -47 -64 -47 vvcurveto
          52 callgsubr
          102 97 56 rrcurveto
          hintmask 01000001
          -2 6 7 -1 7 hhcurveto
          25 63 15 80 hvcurveto
          -174 52 rmoveto
          hintmask 10000110
          -66 callgsubr
          hintmask 00011000
          61 419 -90 callgsubr
        </CharString>
        <CharString name="aring">
          -50 callsubr
          81 108 callgsubr
          hstemhm
          63 93 1 35 130 35 -34 74 72 28 hintmask 0101001001100000
          -104 callgsubr
          hintmask 0100000000100000
          -42 5 29 -36 43 hhcurveto
          25 63 15 80 hvcurveto
          -174 52 rmoveto
          hintmask 1010000001000000
          -66 callgsubr
          hintmask 0000110110000000
          -1 377 -52 callgsubr
        </CharString>
        <CharString name="aringacute">
          -50 callsubr
          81 108 callgsubr
          185 -20 hstemhm
          63 93 1 35 130 35 -34 74 72 28 hintmask 0101000100110000
          -104 callgsubr
          hintmask 0100000000010000
          -42 5 29 -36 43 hhcurveto
          25 63 15 80 hvcurveto
          -174 52 rmoveto
          hintmask 1010000000100000
          -66 callgsubr
          hintmask 0000111011000000
          -1 377 -72 callsubr
          5 228 -102 callgsubr
        </CharString>
        <CharString name="asciicircum">
          556 583 -21 123 59 hstem
          -5 566 vstem
          561 584 rmoveto
          -283 160 -283 -160 11 -22 271 123 272 -123 rlineto
          endchar
        </CharString>
        <CharString name="asciitilde">
          556 193 43 -25 43 -8 43 -25 43 hstemhm
          hintmask 10010000
          555 290 44 callgsubr
          hintmask 01000000
          20 callsubr
          hintmask 00100000
          20 10 20 11 17 14 rrcurveto
          endchar
        </CharString>
        <CharString name="asciitilde.low">
          556 0 43 -25 43 -8 43 -25 43 hstemhm
          0 555 hintmask 10010000
          555 97 44 callgsubr
          hintmask 01001000
          20 callsubr
          hintmask 00101000
          20 10 20 11 17 14 rrcurveto
          endchar
        </CharString>
        <CharString name="asterisk">
          514 340 -21 431 -20 hstem
          227 59 vstem
          446 442 rmoveto
          18 -12 5 -10 5 vhcurveto
          -141 64 141 65 rlineto
          10 5 12 5 18 vvcurveto
          14 -11 16 -18 -5 -5 0 -9 -12 vhcurveto
          -125 -91 14 153 2 13 rlineto
          13 -12 14 -17 -21 -9 -16 -11 vhcurveto
          2 -13 14 -152 -125 89 rlineto
          10 -13 -2 0 -7 hhcurveto
          -18 -11 -16 -14 -18 12 -5 10 -5 hvcurveto
          141 -64 -141 -65 rlineto
          -10 -5 -12 -5 -18 vvcurveto
          -14 11 -16 18 5 5 0 9 12 vhcurveto
          125 91 -14 -153 -2 -13 rlineto
          -13 12 -14 17 21 9 16 11 vhcurveto
          -2 13 -14 152 125 -89 rlineto
          -10 13 2 0 7 hhcurveto
          18 11 16 14 hvcurveto
          endchar
        </CharString>
        <CharString name="asterisk.math">
          514 57 -21 430 -20 hstem
          67 27 149 27 149 27 cntrmask 00111000
          446 160 rmoveto
          27 -51 13 -22 10 vhcurveto
          -30 14 -29 15 -30 11 rrcurveto
          2 vlineto
          42 16 42 25 43 16 rrcurveto
          16 8 19 5 20 vvcurveto
          15 -11 15 -16 1 vhcurveto
          -3 hlineto
          -14 -17 -15 -9 -11 hvcurveto
          -35 -24 -35 -30 -34 -20 rrcurveto
          3 55 13 57 53 vvcurveto
          16 -1 -14 10 -14 hhcurveto
          -22 -7 -17 -14 -52 12 -56 3 -52 hvcurveto
          -34 20 -35 30 -35 24 rrcurveto
          9 -11 -17 15 -14 hhcurveto
          -3 hlineto
          -16 -1 -11 -15 -15 vvcurveto
          -27 51 -13 22 -10 vhcurveto
          30 -14 29 -15 30 -11 rrcurveto
          -2 vlineto
          -42 -16 -42 -25 -43 -16 rrcurveto
          -16 -8 -19 -5 -20 vvcurveto
          -15 11 -15 16 -1 vhcurveto
          3 hlineto
          14 17 15 9 11 hvcurveto
          35 24 35 30 34 20 rrcurveto
          -3 -55 -13 -57 -53 vvcurveto
          -16 1 14 -10 14 hhcurveto
          22 7 17 14 52 -12 56 -3 52 hvcurveto
          34 -20 35 -30 35 -24 rrcurveto
          -9 11 17 -15 14 hhcurveto
          3 hlineto
          16 1 11 15 15 vvcurveto
          endchar
        </CharString>
        <CharString name="at">
          799 -11 25 42 25 46 25 390 25 113 25 hstemhm
          57 28 109 74 262 74 -28 28 35 74 0 28 hintmask 1100110000100000
          3 callsubr
          228 -171 138 -171 -187 -155 -158 -200 -186 140 -172 208 95 117 20 47 110 vhcurveto
          8 4 5 2 8 vvcurveto
          11 -8 0 -16 vhcurveto
          -9 hlineto
          -15 -2 0 -7 -14 hvcurveto
          -38 -86 -92 -22 -94 hhcurveto
          -189 -130 158 175 186 143 147 171 146 168 -116 -229 hvcurveto
          hintmask 0011001011000000
          -102 -13 -81 -61 -29 -6 33 33 vhcurveto
          239 vlineto
          25 0 1 -28 vhcurveto
          -34 hlineto
          43 -27 -51 41 -66 hhcurveto
          -108 -96 -95 -125 -125 96 -95 108 70 45 45 23 18 hvcurveto
          -57 14 61 -11 28 hhcurveto
          hintmask 0011001100100000
          93 14 109 103 hvcurveto
          -211 -78 rmoveto
          -18 0 -3 -14 -21 vhcurveto
          -48 -34 -46 -19 -36 hhcurveto
          -72 -60 86 109 109 60 86 72 35 48 -18 -52 35 hvcurveto
          12 -19 0 -1 -19 vvcurveto
          endchar
        </CharString>
        <CharString name="atilde">
          -50 callsubr
          107 50 -4 50 -105 callsubr
          hintmask 0000010000000000
          104 394 rmoveto
          -18 17 rlineto
          hintmask 0000100000000000
          -76 callsubr
          hintmask 0000010000000000
          -75 callsubr
          hintmask 0000100000000000
          18 -17 rlineto
          hintmask 0000010000000000
          -75 callgsubr
          hintmask 0000100000000000
          -79 callgsubr
        </CharString>
        <CharString name="b">
          98 callgsubr
          272 78 callsubr
          314 vlineto
          -148 -78 callgsubr
          -596 -13 callsubr
        </CharString>
        <CharString name="backslash">
          514 750 -20 hstem
          456 -228 rmoveto
          4 -2 4 -3 9 vhcurveto
          -349 938 rlineto
          12 -4 -4 11 -16 hhcurveto
          -9 -12 -7 -15 -4 2 -4 3 -9 hvcurveto
          349 -938 rlineto
          -12 4 4 -11 16 hhcurveto
          9 12 7 15 hvcurveto
          endchar
        </CharString>
        <CharString name="baht">
          728 0 31 312 25 284 31 hstemhm
          143 84 114 30 101 99 -26 96 -70 99 hintmask 00000100
          670 182 rmoveto
          90 -87 73 -111 12 vhcurveto
          hintmask 10111010
          99 20 70 63 74 vvcurveto
          88 -96 81 -132 vhcurveto
          -42 30 hlineto
          9 -7 6 -8 -8 -7 -6 -9 vhcurveto
          -30 -300 -31 23 vlineto
          77 2 -11 -37 hvcurveto
          -525 -74 callgsubr
          300 -30 hlineto
          -8 7 -7 8 8 7 7 8 vhcurveto
          30 70 vlineto
          hintmask 01101001
          135 94 89 93 hvcurveto
          -125 332 rmoveto
          -77 -67 -69 -94 vhcurveto
          -13 284 35 hlineto
          hintmask 11111010
          98 41 -78 -60 hvcurveto
          -204 -146 rmoveto
          -114 243 hlineto
          34 2 7 47 vhcurveto
          65 hlineto
          230 -468 rmoveto
          -77 -60 -76 -103 vhcurveto
          -37 312 45 hlineto
          hintmask 11011001
          116 39 -98 -61 hvcurveto
          -230 -153 rmoveto
          -65 -46 callgsubr
          271 114 vlineto
          endchar
        </CharString>
        <CharString name="bar">
          286 750 -20 hstem
          121 43 vstem
          164 -215 rmoveto
          12 callgsubr
          endchar
        </CharString>
        <CharString name="bigcircle">
          94 callgsubr
          599 -64 callsubr
          endchar
        </CharString>
        <CharString name="blanksymbol">
          98 callgsubr
          3 71 198 78 callsubr
          168 vlineto
          94 87 rlineto
          3 3 2 4 4 vvcurveto
          9 -6 6 -9 -4 -3 -1 -3 -3 vhcurveto
          -74 -68 rlineto
          105 vlineto
          -148 -78 callgsubr
          -72 vlineto
          -72 -67 rlineto
          -3 -3 -2 -4 -4 vvcurveto
          -8 7 -7 8 4 3 2 2 3 vhcurveto
          52 48 rlineto
          -483 -13 callsubr
        </CharString>
        <CharString name="braceleft">
          77 callsubr
          -237 rmoveto
          11 -8 1 -9 vhcurveto
          -64 4 -50 30 -14 50 rrcurveto
          -3 12 0 8 30 vvcurveto
          150 vlineto
          29 0 49 -1 9 vhcurveto
          -10 56 -51 32 -54 16 rrcurveto
          116 35 0 65 45 vvcurveto
          150 vlineto
          98 0 16 33 29 vhcurveto
          37 33 41 2 27 2 rrcurveto
          5 1 5 4 7 vvcurveto
          13 -9 0 -12 -109 -88 -53 -72 -1 vhcurveto
          -196 vlineto
          -79 0 -20 -35 -32 vhcurveto
          -37 -32 -45 -2 -18 -1 rrcurveto
          -5 -8 -3 -10 -10 8 -3 5 hvcurveto
          73 -3 47 -35 13 -52 rrcurveto
          2 -8 0 -2 -37 vvcurveto
          -198 vlineto
          -39 0 -42 61 -37 vhcurveto
          -30 49 65 -4 23 hhcurveto
          12 9 0 13 hvcurveto
          endchar
        </CharString>
        <CharString name="braceright">
          77 callsubr
          250 rmoveto
          10 -8 3 -5 vhcurveto
          -73 3 -47 35 -13 52 rrcurveto
          -2 8 0 2 37 vvcurveto
          198 vlineto
          39 0 42 -61 37 vhcurveto
          31 -51 -67 3 -18 hhcurveto
          -12 -10 0 -13 -11 8 0 9 -1 hvcurveto
          64 -4 50 -30 14 -50 rrcurveto
          3 -12 0 -8 -30 vvcurveto
          -150 vlineto
          -29 0 -49 1 -9 vhcurveto
          10 -56 51 -32 54 -16 rrcurveto
          -116 -35 0 -65 -45 vvcurveto
          -150 vlineto
          -98 0 -16 -33 -29 vhcurveto
          -37 -33 -41 -2 -27 -2 rrcurveto
          -5 -1 -5 -4 -7 vvcurveto
          -13 10 0 12 105 91 52 73 1 vhcurveto
          196 vlineto
          79 0 20 35 32 vhcurveto
          37 32 45 2 18 1 rrcurveto
          5 8 3 10 hvcurveto
          endchar
        </CharString>
        <CharString name="bracketleft">
          286 -250 43 914 43 hstem
          120 43 vstem
          262 -250 rmoveto
          43 -99 914 99 43 -142 -1000 vlineto
          endchar
        </CharString>
        <CharString name="bracketright">
          286 -250 43 914 43 hstem
          121 43 vstem
          164 -250 rmoveto
          1000 -142 -43 99 -914 -99 -43 vlineto
          endchar
        </CharString>
        <CharString name="breve">
          125 callgsubr
          133 -20 hstem
          411 690 -99 callsubr
          endchar
        </CharString>
        <CharString name="breve.cap">
          514 493 41 133 -20 hstem
          411 667 -99 callsubr
          endchar
        </CharString>
        <CharString name="breve.ts1">
          628 520 40 135 -20 hstem
          102 25 373 25 vstem
          525 695 rmoveto
          -25 hlineto
          -92 -105 -43 -82 -84 -102 45 90 vhcurveto
          -25 hlineto
          -102 99 -73 112 98 114 59 116 vhcurveto
          endchar
        </CharString>
        <CharString name="brokenbar">
          286 750 -20 hstem
          121 43 vstem
          164 343 rmoveto
          372 vlineto
          14 0 21 -21 -22 0 -19 -16 vhcurveto
          -372 vlineto
          -10 11 -5 11 10 11 5 10 vhcurveto
          -558 vmoveto
          372 vlineto
          10 -11 5 -10 -11 -11 -5 -10 vhcurveto
          -372 vlineto
          25 callgsubr
          endchar
        </CharString>
        <CharString name="bullet">
          799 81 292 hstem
          254 292 62 callsubr
          endchar
        </CharString>
        <CharString name="c">
          38 callgsubr
          hstem
          34 86 203 93 vstem
          -64 callgsubr
          -129 104 -98 118 139 32 121 9 vhcurveto
          endchar
        </CharString>
        <CharString name="cacute">
          38 callgsubr
          90 callsubr
          34 86 203 93 hintmask 11100110
          -64 callgsubr
          -129 104 -98 118 139 32 121 9 vhcurveto
          hintmask 00011000
          -49 540 -90 callgsubr
        </CharString>
        <CharString name="caron">
          514 84 callgsubr
          409 677 -57 callsubr
        </CharString>
        <CharString name="caron.cap">
          114 callgsubr
          133 -20 hstem
          408 600 -57 callgsubr
        </CharString>
        <CharString name="caron.ts1">
          628 572 -21 156 -20 hstem
          506 682 rmoveto
          -14 25 -163 -93 -16 -7 -134 75 -44 25 -14 -25 192 -131 16 8 rlineto
          endchar
        </CharString>
        <CharString name="ccaron">
          38 callgsubr
          88 -21 176 -20 hstemhm
          34 86 203 93 hintmask 11100110
          -64 callgsubr
          -129 104 -98 118 139 32 121 9 vhcurveto
          hintmask 00011000
          -24 558 -57 callsubr
        </CharString>
        <CharString name="ccedilla">
          457 -200 28 78 28 55 28 283 91 29 28 hstemhm
          34 86 182 86 -65 93 hintmask 01111101
          -64 callgsubr
          -117 85 -91 104 -16 vhcurveto
          -86 vlineto
          hintmask 11000010
          -16 callgsubr
          47 -55 20 -54 hvcurveto
          56 vlineto
          120 13 28 108 8 vvcurveto
          endchar
        </CharString>
        <CharString name="ccircumflex">
          38 callgsubr
          88 -21 176 -20 hstemhm
          34 86 203 93 hintmask 11100110
          -64 callgsubr
          -129 104 -98 118 139 32 121 9 vhcurveto
          hintmask 00011000
          -24 410 -65 callsubr
          endchar
        </CharString>
        <CharString name="cdotaccent">
          38 callgsubr
          101 108 hstemhm
          34 86 77 108 18 93 hintmask 11101010
          -64 callgsubr
          -129 104 -98 118 139 32 121 9 vhcurveto
          hintmask 00010100
          -122 484 rmoveto
          79 callsubr
        </CharString>
        <CharString name="cedilla">
          7 callsubr
        </CharString>
        <CharString name="cedilla.dup">
          7 callsubr
        </CharString>
        <CharString name="cent">
          38 callgsubr
          0 28 hstemhm
          34 86 116 30 57 93 hintmask 11100110
          95 callgsubr
          12 -11 0 -3 -11 0 -2 -17 -6 vhcurveto
          -69 -23 -56 -26 -51 hhcurveto
          403 vlineto
          20 -1 45 -4 33 -22 rrcurveto
          -21 -4 -20 -14 -29 vvcurveto
          -26 20 -20 26 26 21 17 31 60 -66 38 -84 2 vhcurveto
          13 vlineto
          hintmask 10011100
          8 -6 7 -9 -8 -7 -7 -8 vhcurveto
          -14 vlineto
          -117 -11 -85 -102 -118 vvcurveto
          -122 93 -94 109 -10 vhcurveto
          -20 vlineto
          -8 7 -7 8 9 6 7 8 vhcurveto
          19 vlineto
          131 6 30 115 9 vvcurveto
          -191 -98 rmoveto
          -57 14 -59 56 126 vvcurveto
          136 61 53 55 12 vhcurveto
          endchar
        </CharString>
        <CharString name="cent.oldstyle">
          457 -33 28 -6 28 283 91 29 28 0 28 hstemhm
          34 86 55 93 -84 93 -66 93 -36 30 -24 30 -27 30 16 93 hintmask 0100000010000000
          95 callgsubr
          12 -11 0 -3 -11 0 -2 -17 -6 vhcurveto
          -69 -23 -56 -26 -51 hhcurveto
          -18 -18 4 9 -19 hvcurveto
          hintmask 0010000001001000
          87 387 21 -4 25 -6 20 -14 rlinecurve
          -21 -4 -20 -14 -29 vvcurveto
          -26 20 -20 26 26 21 17 31 vhcurveto
          hintmask 0000000010000000
          51 -47 34 -65 11 vhcurveto
          hintmask 0000100000010000
          3 13 rlineto
          10 2 -7 9 -10 hhcurveto
          -7 -6 -5 -7 -2 hvcurveto
          hintmask 1000111000100000
          -3 -16 rlineto
          -16 hlineto
          -128 -96 -107 -125 -98 60 -80 81 -33 hvcurveto
          -7 -32 rlineto
          -9 -2 7 -9 10 hhcurveto
          7 6 5 7 1 hvcurveto
          7 28 rlineto
          hintmask 0101010100000000
          -4 17 17 -2 18 hhcurveto
          139 32 121 9 hvcurveto
          -159 301 rmoveto
          -84 -373 rlineto
          -36 29 -28 54 87 vvcurveto
          156 80 47 60 vhcurveto
          hintmask 0001001000000000
          endchar
        </CharString>
        <CharString name="centigrade">
          970 -21 31 446 43 142 43 -9 31 hstemhm
          0 102 24 102 57 102 497 28 hintmask 10010011
          913 683 rmoveto
          10 -1 13 -12 -17 -27 -59 -29 -24 vhcurveto
          -28 47 -82 37 -65 4 rrcurveto
          -11 hlineto
          -199 -162 -164 -199 hvcurveto
          -17 vlineto
          -195 13 154 -152 190 hhcurveto
          139 131 109 146 hvcurveto
          8 vlineto
          7 -1 -7 4 -7 hhcurveto
          -9 -4 -7 -9 hvcurveto
          -7 vlineto
          -102 -10 -73 -118 -147 hhcurveto
          -78 -78 40 63 -48 hvcurveto
          -50 65 -13 93 77 vvcurveto
          99 25 99 76 67 vhcurveto
          38 44 60 24 59 hhcurveto
          129 78 -113 -111 20 hvcurveto
          -13 2 -2 -19 17 hhcurveto
          15 2 8 9 hvcurveto
          222 vlineto
          8 1 8 9 vvcurveto
          -685 -112 rmoveto
          hintmask 01101100
          57 -46 56 -70 vhcurveto
          -10 hlineto
          -58 -6 -44 -52 -57 vvcurveto
          -57 46 -56 70 vhcurveto
          10 hlineto
          58 6 44 52 57 vvcurveto
          -43 hmoveto
          -38 -33 -34 -38 -36 -29 29 35 -6 vhcurveto
          6 vlineto
          38 33 34 38 36 29 -29 -35 6 vhcurveto
          endchar
        </CharString>
        <CharString name="circumflex">
          514 84 callgsubr
          409 529 -65 callsubr
          endchar
        </CharString>
        <CharString name="circumflex.cap">
          114 callgsubr
          133 -20 hstem
          408 499 -48 callgsubr
        </CharString>
        <CharString name="circumflex.dup">
          514 84 callgsubr
          409 529 -65 callsubr
          endchar
        </CharString>
        <CharString name="colon">
          286 0 108 215 108 hstem
          88 108 63 callgsubr
          -323 vmoveto
          -22 callgsubr
          endchar
        </CharString>
        <CharString name="colonmonetary">
          54 callsubr
          hstem
          57 102 234 30 234 27 vstem
          684 232 rmoveto
          10 0 9 -14 -13 0 -7 -9 -1 vhcurveto
          -152 -8 -120 -74 -103 hhcurveto
          -2 665 1 hlineto
          99 105 -75 -162 24 hvcurveto
          -13 2 1 -5 13 hhcurveto
          16 0 5 21 hvcurveto
          234 vlineto
          17 0 9 -12 -7 -3 -3 -9 -6 vhcurveto
          -51 -75 -31 30 -55 54 -96 3 rlinecurve
          8 vlineto
          9 -6 6 -9 -8 -7 -6 -9 vhcurveto
          -9 vlineto
          -184 -11 -152 -157 -194 vvcurveto
          -198 154 -154 182 -11 vhcurveto
          -9 vlineto
          -8 7 -7 8 9 6 7 8 vhcurveto
          8 vlineto
          161 5 100 134 115 vvcurveto
          -291 -221 rmoveto
          -91 13 -143 69 249 vvcurveto
          248 144 70 90 12 vhcurveto
          endchar
        </CharString>
        <CharString name="comma">
          286 -172 -21 193 108 hstem
          182 25 vstem
          207 2 rmoveto
          69 -26 37 -39 -35 -19 -27 -27 -27 19 -27 35 25 15 16 0 -33 0 -82 -76 -72 vhcurveto
          -4 -5 0 -5 0 vvcurveto
          -5 6 -7 7 11 81 77 118 vhcurveto
          endchar
        </CharString>
        <CharString name="copyleft">
          94 callgsubr
          152 42 405 -64 callsubr
          -111 hmoveto
          108 -88 86 -104 -54 -31 -30 -16 -17 vhcurveto
          -27 40 rlineto
          5 -4 -1 1 -4 hhcurveto
          -6 0 -4 -9 hvcurveto
          -126 vlineto
          -11 0 -3 8 7 1 3 7 1 vhcurveto
          87 13 56 40 53 hhcurveto
          44 98 -29 -149 -150 -97 -29 -46 -55 -64 40 82 -4 hvcurveto
          4 -1 0 4 -7 hhcurveto
          -7 0 -5 -5 -63 55 -73 89 103 89 85 110 hvcurveto
          endchar
        </CharString>
        <CharString name="copyright">
          94 callgsubr
          599 -64 callsubr
          -151 -59 rmoveto
          5 0 5 -8 -7 0 -4 -4 vhcurveto
          -82 -5 -64 -39 -55 hhcurveto
          -46 -97 28 150 149 98 29 44 53 57 -40 -87 12 hvcurveto
          -7 2 0 -3 7 hhcurveto
          9 0 3 11 hvcurveto
          125 vlineto
          10 0 4 -7 -4 -1 -1 -5 -3 vhcurveto
          -28 -40 rlineto
          16 -17 -30 30 -54 hhcurveto
          -104 -88 -86 -108 -110 89 -85 103 88 56 73 63 hvcurveto
          endchar
        </CharString>
        <CharString name="copyright.alt">
          673 -121 42 589 42 hstem
          0 42 429 42 118 42 vstem
          673 215 rmoveto
          207 -130 130 -207 -206 -130 -130 -207 -206 130 -130 206 207 130 130 206 vhcurveto
          -42 hmoveto
          -180 -114 -114 -181 -180 -114 114 180 181 114 114 180 181 114 -114 -181 vhcurveto
          -110 -69 rmoveto
          6 0 6 -9 -8 0 -4 -6 -1 vhcurveto
          -96 -5 -76 -46 -65 hhcurveto
          -53 -114 33 176 176 114 34 53 62 66 -48 -102 15 hvcurveto
          -8 2 0 -3 8 hhcurveto
          11 0 3 13 hvcurveto
          148 vlineto
          11 0 5 -8 -4 -2 -2 -5 -4 vhcurveto
          -32 -48 rlineto
          20 -20 -36 35 -64 hhcurveto
          -122 -104 -101 -128 -129 105 -100 121 105 65 86 74 hvcurveto
          endchar
        </CharString>
        <CharString name="currency">
          799 48 42 320 42 hstem
          198 42 320 42 vstem
          642 9 rmoveto
          15 15 -15 15 -10 10 -75 75 rcurveline
          28 34 17 44 48 vvcurveto
          48 -17 45 -29 34 vhcurveto
          75 75 10 10 15 15 -15 15 rlinecurve
          -15 16 -14 -14 -11 -11 -75 -75 rcurveline
          27 -35 -44 17 -47 hhcurveto
          -48 -44 -17 -28 -35 hvcurveto
          -76 76 -11 12 -14 13 -15 -15 rlinecurve
          -15 -15 15 -15 10 -10 76 -76 rcurveline
          -28 -35 -17 -44 -48 vvcurveto
          -48 16 -44 28 -34 vhcurveto
          -75 -75 -10 -10 -15 -15 15 -15 rlinecurve
          15 -16 14 14 11 11 75 75 rcurveline
          -28 35 44 -17 49 hhcurveto
          48 44 17 28 35 hvcurveto
          75 -75 11 -11 13 -14 16 16 rlinecurve
          -82 241 rmoveto
          -88 -72 -72 -88 -89 -71 72 88 88 71 72 89 88 72 -72 -88 vhcurveto
          endchar
        </CharString>
        <CharString name="cwm">
          0 endchar
        </CharString>
        <CharString name="cwmascender">
          0 endchar
        </CharString>
        <CharString name="cwmcapital">
          0 endchar
        </CharString>
        <CharString name="d">
          571 -11 67 callsubr
          257 86 -71 71 hintmask 0010000010010000
          36 callsubr
          hintmask 0101011101010000
          -23 callgsubr
          hintmask 0010100000000000
          54 callgsubr
          hintmask 1000111001100000
          -42 callgsubr
          endchar
        </CharString>
        <CharString name="dagger">
          457 395 71 239 -20 hstem
          193 71 vstem
          400 430 91 callgsubr
          rrcurveto
          18 1 22 11 71 vhcurveto
          4 21 8 53 35 vvcurveto
          8 0 35 -35 -36 0 -34 -9 -20 3 -33 9 -56 vhcurveto
          11 -71 1 -22 -18 vvcurveto
          36 callgsubr
          -2 -23 0 -8 -11 -53 rrcurveto
          -11 -56 0 -11 -49 vvcurveto
          -160 13 -178 7 -72 vhcurveto
          -19 2 1 -6 12 hhcurveto
          4 9 0 12 2 hvcurveto
          15 141 6 141 141 vvcurveto
          50 0 10 -11 56 vhcurveto
          -11 53 0 8 -2 23 88 callgsubr
          endchar
        </CharString>
        <CharString name="daggerdbl">
          457 -61 71 -23 70 -23 71 hstemhm
          169 71 -47 71 cntrmask 11100000
          hintmask 11110000
          400 477 91 callgsubr
          1 16 1 17 9 43 rrcurveto
          hintmask 11101000
          9 46 4 31 22 vvcurveto
          41 -30 0 -5 -14 -22 -6 -35 -29 7 -35 6 -32 vhcurveto
          9 -48 1 -12 1 -19 36 callgsubr
          -1 -16 -1 -17 -9 -43 rrcurveto
          -9 -46 -4 -31 -22 vvcurveto
          -41 30 0 5 14 22 6 35 29 -7 35 -6 32 vhcurveto
          hintmask 11110000
          -9 48 -1 12 -1 19 88 callgsubr
          -455 vmoveto
          20 -15 15 -20 -25 -19 -5 -10 -36 vhcurveto
          -23 -6 -7 0 -15 -2 1 18 1 17 12 56 rrcurveto
          hintmask 11101000
          6 33 4 31 19 vvcurveto
          41 -30 0 -5 -14 -22 -6 -35 -21 3 -26 11 -56 vhcurveto
          7 -34 2 -16 1 -21 -21 2 -2 0 -35 10 rrcurveto
          8 -29 -18 3 -19 hhcurveto
          -24 -12 -17 -18 -19 14 -16 22 hvcurveto
          hintmask 11110000
          21 22 4 9 33 hvcurveto
          26 8 4 0 18 2 -1 -18 -1 -17 -12 -56 rrcurveto
          hintmask 11101000
          -6 -33 -4 -31 -19 vvcurveto
          -41 30 0 5 14 22 6 35 21 -3 26 -11 56 vhcurveto
          hintmask 11110000
          -7 34 -2 16 -1 21 21 -2 2 0 35 -10 rrcurveto
          -7 24 21 -4 21 hhcurveto
          22 14 16 19 hvcurveto
          endchar
        </CharString>
        <CharString name="dblbracketleft">
          414 -249 43 914 43 hstem
          120 43 85 43 vstem
          391 -249 rmoveto
          43 -100 914 100 43 -271 -1000 vlineto
          128 43 rmoveto
          -85 914 85 hlineto
          endchar
        </CharString>
        <CharString name="dblbracketright">
          414 -249 43 914 43 hstem
          122 43 85 43 vstem
          293 -249 rmoveto
          1000 -270 -43 99 -914 -99 -43 vlineto
          227 43 rmoveto
          -85 914 85 hlineto
          endchar
        </CharString>
        <CharString name="dblgrave.ts1">
          514 533 -21 189 -20 hstem
          210 527 rmoveto
          21 callsubr
          171 hmoveto
          21 callsubr
          endchar
        </CharString>
        <CharString name="dblverticalbar">
          412 750 -20 hstem
          121 43 83 43 vstem
          164 -215 rmoveto
          12 callgsubr
          126 hmoveto
          12 callgsubr
          endchar
        </CharString>
        <CharString name="dcaron">
          571 -11 9 callgsubr
          47 -21 145 81 -42 122 callgsubr
          hintmask 0010000000100100
          36 callsubr
          hintmask 0101011001010100
          -23 callgsubr
          hintmask 0010100000000000
          54 callgsubr
          hintmask 1000111000111000
          -42 callgsubr
          202 293 131 callsubr
          hintmask 0000000110000000
          -21 15 -20 26 19 11 12 0 -25 0 -61 -57 -54 vhcurveto
          -3 -4 0 -4 0 vvcurveto
          -3 4 -6 6 8 61 58 89 vhcurveto
          endchar
        </CharString>
        <CharString name="dcroat">
          571 -11 9 callgsubr
          91 30 89 122 callgsubr
          hintmask 0010000101001000
          540 64 callsubr
          446 77 30 -77 131 vlineto
          hintmask 0101011110101000
          -148 -78 callgsubr
          -33 -164 -30 164 -150 -12 callgsubr
          hintmask 0010100000000000
          54 callgsubr
          hintmask 1000111000110000
          -42 callgsubr
          endchar
        </CharString>
        <CharString name="ddotbelow">
          571 11 callgsubr
          81 67 callsubr
          112 108 37 86 -71 71 hintmask 0001000001000100
          36 callsubr
          hintmask 0010101110100100
          -23 callgsubr
          hintmask 0001010000000000
          54 callgsubr
          hintmask 0100011100101000
          -42 callgsubr
          hintmask 1000000000010000
          -49 -468 rmoveto
          79 callsubr
        </CharString>
        <CharString name="degree">
          385 398 42 201 42 hstem
          50 42 201 42 vstem
          335 541 rmoveto
          78 -63 64 -79 -79 -64 -64 -78 -79 64 -64 79 79 63 64 79 vhcurveto
          -42 hmoveto
          -56 -45 -45 -55 -56 -45 45 56 55 45 45 56 55 45 -45 -55 vhcurveto
          endchar
        </CharString>
        <CharString name="diameter">
          799 -70 42 558 42 hstem
          78 42 558 42 vstem
          741 572 rmoveto
          12 -9 9 -12 -6 -5 -2 -4 -4 vhcurveto
          -94 -95 rlineto
          50 -57 -74 30 -81 hhcurveto
          -177 -144 -144 -177 -81 30 -75 50 -56 hvcurveto
          -95 -95 rlineto
          -4 -4 -2 -5 -6 vvcurveto
          -12 9 -9 12 6 5 2 4 4 vhcurveto
          95 95 rlineto
          -49 56 74 -30 81 hhcurveto
          177 144 144 177 81 -30 74 -50 57 hvcurveto
          95 94 rlineto
          4 4 2 5 6 vvcurveto
          -63 -321 rmoveto
          -154 -125 -125 -154 -69 -64 25 42 -48 vhcurveto
          393 394 rlineto
          42 -49 25 -64 -69 vvcurveto
          -97 211 rmoveto
          -393 -393 rlineto
          -42 49 -26 63 70 vvcurveto
          154 125 125 154 70 63 -25 -43 49 vhcurveto
          endchar
        </CharString>
        <CharString name="died">
          514 -25 21 -1 -21 365 44 -38 44 179 21 15 -20 hstemhm
          233 54 -50 54 hintmask 00010000
          468 358 rmoveto
          11 vlineto
          15 -5 5 -12 vhcurveto
          hintmask 00101001
          -57 -57 -6 -57 hhcurveto
          62 3 62 8 61 vhcurveto
          1 6 1 8 6 vvcurveto
          4 vlineto
          hintmask 00000100
          12 -2 -12 0 -11 hhcurveto
          -19 hlineto
          hintmask 00101010
          -15 -14 -2 -13 -16 4 -15 1 -16 hvcurveto
          5 -53 3 -53 -53 vvcurveto
          hintmask 00010000
          -57 -57 6 -57 hhcurveto
          -12 -5 -5 -15 hvcurveto
          -11 vlineto
          hintmask 00100000
          -10 2 -9 14 15 18 2 1 15 vhcurveto
          hintmask 00010010
          124 3 rlineto
          -114 -3 -116 -10 -114 vhcurveto
          -9 vlineto
          hintmask 10000001
          -11 4 -6 13 vhcurveto
          7 hlineto
          hintmask 01000000
          8 8 -1 9 hhcurveto
          9 11 0 10 4 hvcurveto
          hintmask 10010010
          12 vlineto
          31 -5 33 -1 31 vhcurveto
          -7 254 rlineto
          53 55 -1 -4 53 hvcurveto
          hintmask 00100000
          4 3 -1 4 hhcurveto
          14 2 9 10 hvcurveto
          endchar
        </CharString>
        <CharString name="dieresis">
          514 555 97 hstem
          120 97 81 97 vstem
          -42 callsubr
          endchar
        </CharString>
        <CharString name="dieresis.cap">
          514 483 97 hstem
          104 97 113 97 vstem
          -16 callsubr
          endchar
        </CharString>
        <CharString name="dieresis.dup">
          514 555 97 hstem
          120 97 81 97 vstem
          -42 callsubr
          endchar
        </CharString>
        <CharString name="dieresis.ts1">
          514 569 102 hstem
          207 620 rmoveto
          24 -18 27 -31 vhcurveto
          -3 -2 -1 -3 hhcurveto
          -25 -19 -26 -23 -30 22 -22 35 hvcurveto
          29 4 15 24 23 vvcurveto
          200 -1 rmoveto
          25 -19 27 -30 vhcurveto
          -3 -3 -1 -3 hhcurveto
          -23 -4 -20 -18 -28 vvcurveto
          -27 23 -24 27 28 23 22 28 vhcurveto
          endchar
        </CharString>
        <CharString name="discount">
          514 22 -21 749 -20 21 -20 hstemhm
          91 125 81 125 hintmask 00100000
          455 729 rmoveto
          11 -8 11 -12 vhcurveto
          hintmask 11011000
          -5 -1 -23 -4 -34 -93 -24 -46 rlinecurve
          -225 -445 -43 -87 rlineto
          -7 -15 -17 -22 -15 vvcurveto
          -12 9 -10 13 vhcurveto
          1 hlineto
          18 1 7 24 7 14 286 568 rcurveline
          37 75 rlineto
          7 13 13 19 14 vvcurveto
          -239 -54 57 callsubr
          206 -599 57 callsubr
          endchar
        </CharString>
        <CharString name="divide">
          799 36 108 85 43 -22 108 0 108 hstemhm
          345 108 hintmask 01000000
          741 250 rmoveto
          22 -22 0 -15 vhcurveto
          -610 hlineto
          hintmask 00100000
          -15 -22 0 -22 hvcurveto
          hintmask 01000000
          -21 20 0 13 vhcurveto
          618 hlineto
          hintmask 00100000
          14 19 0 21 hvcurveto
          -288 162 rmoveto
          hintmask 10011000
          -22 callgsubr
          -322 vmoveto
          -22 callgsubr
          endchar
        </CharString>
        <CharString name="divorced">
          514 35 51 -50 50 -50 51 hstemhm
          -196 50 277 34 57 67 -55 46 68 34 277 50 cntrmask 1110000000000000
          hintmask 1111101110000000
          709 252 rmoveto
          104 -71 110 -115 vhcurveto
          -11 hlineto
          -105 -14 -59 -101 -101 vvcurveto
          -98 65 -117 111 21 22 6 7 19 vhcurveto
          82 33 41 86 85 vvcurveto
          -544 -2 rmoveto
          99 -64 118 -112 vhcurveto
          -5 -4 -1 -5 hhcurveto
          -111 -13 -60 -103 -100 vvcurveto
          -102 71 -112 115 vhcurveto
          10 hlineto
          106 14 59 101 99 vvcurveto
          129 -337 rmoveto
          6 -2 6 5 vvcurveto
          10 vlineto
          -12 100 0 96 94 vvcurveto
          55 vlineto
          hintmask 1110010000000000
          87 2 87 7 87 vhcurveto
          3 33 rlineto
          1 4 0 5 4 vvcurveto
          5 vlineto
          -2 5 -4 3 -5 1 rrcurveto
          -45 hlineto
          -3 -3 0 -1 -3 hvcurveto
          -5 -2 -3 -4 -5 vvcurveto
          -6 vlineto
          -9 1 -9 1 -8 vhcurveto
          hintmask 1111101110000000
          8 -86 4 -86 -86 vvcurveto
          -6 -243 rlineto
          -1 -48 -7 -48 -47 vvcurveto
          -13 vlineto
          2 -5 4 -3 5 -1 rrcurveto
          44 hlineto
          14 5 6 11 hvcurveto
          365 337 rmoveto
          -5 0 -5 -1 -5 vhcurveto
          -66 -6 -34 -83 -94 hhcurveto
          -91 -51 84 82 83 53 81 89 91 44 -83 -83 hvcurveto
          -528 2 rmoveto
          -82 -50 -83 -91 -43 -39 19 39 -27 vhcurveto
          -18 28 -5 31 -4 32 rrcurveto
          10 vlineto
          81 39 89 96 81 61 -74 -90 vhcurveto
          endchar
        </CharString>
        <CharString name="dlinebelow">
          571 -163 35 117 67 callsubr
          257 86 -71 71 hintmask 0001000001001000
          36 callsubr
          hintmask 0010101110101000
          -23 callgsubr
          hintmask 0001010000000000
          54 callgsubr
          hintmask 0100011100110000
          -42 callgsubr
          hintmask 1000000000000000
          82 -485 -34 callsubr
        </CharString>
        <CharString name="dollar">
          514 -35 -21 46 31 115 93 82 100 -93 93 68 93 101 31 -30 31 45 -20 hstemhm
          57 52 132 31 132 52 cntrmask 0000000001110000
          hintmask 0000010111110000
          456 195 rmoveto
          74 -37 49 -16 18 vhcurveto
          -45 48 -39 8 -47 11 rrcurveto
          271 vlineto
          66 -4 66 -30 18 -70 rrcurveto
          1 -3 -6 1 -3 hhcurveto
          -23 -24 -16 -31 -27 20 -19 26 21 26 11 40 82 -53 85 -131 8 hvcurveto
          45 -31 vlineto
          hintmask 1110101001110000
          -46 vlineto
          -115 -9 -69 -92 -90 vvcurveto
          -59 26 -45 32 -31 vhcurveto
          36 -36 25 -6 65 -18 rrcurveto
          -297 vlineto
          -59 3 -71 27 -21 87 rrcurveto
          0 8 -2 5 24 23 16 31 27 -20 19 -26 -18 -29 -9 -42 -92 57 -89 127 -8 vhcurveto
          -45 31 46 vlineto
          111 10 73 94 101 vvcurveto
          -215 216 rmoveto
          -128 25 -4 89 18 vvcurveto
          58 47 63 85 9 vhcurveto
          163 -508 rmoveto
          -70 -53 -66 -79 -8 vhcurveto
          hintmask 0001000001110000
          290 vlineto
          126 -26 6 -99 -21 vvcurveto
          endchar
        </CharString>
        <CharString name="dollar.oldstyle">
          627 -10 31 -28 31 -28 31 hstem
          477 52 -52 93 -52 52 cntrmask 11111100
          570 194 rmoveto
          98 -89 81 -94 17 vhcurveto
          280 vlineto
          58 -10 70 -21 20 -68 rrcurveto
          1 -4 -5 1 -4 hhcurveto
          -25 -20 -20 -26 -28 19 -19 33 hvcurveto
          32 6 9 21 26 vvcurveto
          105 -95 54 -88 9 vhcurveto
          50 -31 -46 -84 46 -31 -51 vlineto
          -78 -10 -95 -72 -11 -89 rrcurveto
          -11 vlineto
          -96 85 -65 86 -21 vhcurveto
          11 -3 2 -1 0 vvcurveto
          -305 vlineto
          -64 9 -68 36 -18 67 rrcurveto
          -1 4 5 -1 5 hhcurveto
          26 19 22 24 25 -19 22 -28 hvcurveto
          -6 hlineto
          -31 -6 -10 -23 -25 vvcurveto
          -105 96 -70 89 -5 vhcurveto
          -51 31 47 vlineto
          39 -2 45 3 rlineto
          -48 31 54 vlineto
          0 31 8 15 6 vhcurveto
          73 30 64 66 85 vvcurveto
          -214 204 rmoveto
          -84 20 rlineto
          256 84 vlineto
          -115 -248 rmoveto
          -58 16 -74 33 73 vvcurveto
          71 89 35 43 13 vhcurveto
          277 -506 rmoveto
          -6 -67 -63 -51 -62 -12 rrcurveto
          266 vlineto
          56 -11 75 -52 -68 vvcurveto
          -162 -142 rmoveto
          -2 -16 -17 -1 -16 hhcurveto
          -12 -11 1 1 -12 hvcurveto
          303 vlineto
          84 -21 rlineto
          endchar
        </CharString>
        <CharString name="dong">
          571 -30 30 341 30 283 30 hstem
          513 35 rmoveto
          29 vlineto
          -65 -8 7 46 hvcurveto
          424 73 29 -73 124 vlineto
          -141 -10 rlineto
          -30 vlineto
          65 8 -7 -46 hvcurveto
          -31 -155 -29 155 -142 vlineto
          5 -4 -43 51 -74 hhcurveto
          -117 -102 -93 -123 -119 95 -96 113 70 42 41 20 18 hvcurveto
          -61 vlineto
          143 -39 rmoveto
          8 -7 7 -8 vhcurveto
          -451 hlineto
          -8 -7 -7 -8 -8 7 -7 8 hvcurveto
          451 hlineto
          8 7 7 8 hvcurveto
          -143 164 rmoveto
          -17 0 -3 -15 -20 vhcurveto
          -43 -29 -44 -18 -38 hhcurveto
          -41 -38 23 40 -24 hvcurveto
          -25 41 -2 56 30 vvcurveto
          45 6 50 24 38 vhcurveto
          30 21 39 30 51 hhcurveto
          39 38 -20 -36 26 hvcurveto
          12 -15 0 -1 -18 vvcurveto
          endchar
        </CharString>
        <CharString name="dotaccent">
          286 549 75 callgsubr
          603 rmoveto
          79 callsubr
        </CharString>
        <CharString name="dotaccent.alt">
          286 503 75 callgsubr
          557 rmoveto
          79 callsubr
        </CharString>
        <CharString name="dotaccent.cap">
          286 483 75 callgsubr
          537 rmoveto
          79 callsubr
        </CharString>
        <CharString name="dotlessi">
          -15 callsubr
          hstemhm
          113 71 hintmask 10110000
          -41 callgsubr
          hintmask 11010000
          -80 callsubr
          endchar
        </CharString>
        <CharString name="dotlessj">
          51 callgsubr
          hstemhm
          -39 93 22 71 0 71 hintmask 11101000
          218 -58 callsubr
          vhcurveto
          hintmask 10010000
          -52 58 -28 57 vhcurveto
          hintmask 00001000
          79 63 65 92 hvcurveto
          endchar
        </CharString>
        <CharString name="e">
          -32 callsubr
          hstem
          29 86 244 68 vstem
          -104 callsubr
          endchar
        </CharString>
        <CharString name="eacute">
          -32 callsubr
          81 -21 190 -88 callgsubr
          -3 406 -90 callgsubr
        </CharString>
        <CharString name="ebreve">
          -32 callsubr
          68 41 133 -88 callgsubr
          24 437 -99 callsubr
          endchar
        </CharString>
        <CharString name="ecaron">
          -32 callsubr
          88 -21 176 -88 callgsubr
          22 424 -57 callsubr
        </CharString>
        <CharString name="ecircumflex">
          -32 callsubr
          88 -21 176 -88 callgsubr
          22 276 -65 callsubr
          endchar
        </CharString>
        <CharString name="ecircumflexacute">
          -32 callsubr
          88 -21 318 -88 callgsubr
          21 278 -86 callgsubr
          -34 272 -102 callgsubr
        </CharString>
        <CharString name="ecircumflexdotbelow">
          457 11 callgsubr
          81 28 212 24 170 25 88 -21 176 -20 hstemhm
          29 86 60 108 76 68 hintmask 0111111010000000
          -104 callsubr
          22 276 -65 callsubr
          hintmask 1000000100000000
          -85 -661 rmoveto
          79 callsubr
        </CharString>
        <CharString name="ecircumflexgrave">
          -32 callsubr
          88 -21 133 -88 callgsubr
          21 278 -65 callgsubr
        </CharString>
        <CharString name="ecircumflexhookabove">
          -32 callsubr
          88 -21 341 -88 callgsubr
          21 278 -86 callgsubr
          61 274 -107 callgsubr
        </CharString>
        <CharString name="ecircumflextilde">
          -32 callsubr
          83 25 callsubr
          29 86 244 68 hintmask 1110000110000000
          -104 callsubr
          hintmask 0001000000000000
          21 278 5 callsubr
          hintmask 0000100000000000
          10 -16 rlineto
          hintmask 0001000000000000
          140 66 rlineto
          hintmask 0000100000000000
          140 -66 rlineto
          hintmask 0001001000000000
          32 252 rmoveto
          -18 17 rlineto
          hintmask 0000010000000000
          -76 callsubr
          hintmask 0000001000000000
          -75 callsubr
          hintmask 0000010000000000
          18 -17 rlineto
          hintmask 0000001000000000
          -75 callgsubr
          hintmask 0000010000000000
          -79 callgsubr
        </CharString>
        <CharString name="edblgrave">
          -32 callsubr
          82 -21 188 -88 callgsubr
          -4 269 -93 callsubr
        </CharString>
        <CharString name="edieresis">
          -32 callsubr
          107 97 hstemhm
          29 86 -23 97 81 97 -8 68 hintmask 11101001
          -104 callsubr
          hintmask 00010110
          -170 351 -60 callsubr
        </CharString>
        <CharString name="edotaccent">
          -32 callsubr
          101 108 hstemhm
          29 86 60 108 76 68 hintmask 11101010
          -104 callsubr
          hintmask 00010100
          -76 350 rmoveto
          79 callsubr
        </CharString>
        <CharString name="edotbelow">
          457 11 callgsubr
          81 28 212 24 170 25 hstemhm
          29 86 60 108 76 68 hintmask 01111010
          -104 callsubr
          hintmask 10000100
          -76 -399 rmoveto
          79 callsubr
        </CharString>
        <CharString name="egrave">
          -32 callsubr
          81 -21 190 -88 callgsubr
          -66 276 -63 callgsubr
        </CharString>
        <CharString name="ehookabove">
          -32 callsubr
          72 -21 208 -88 callgsubr
          -30 387 -107 callgsubr
        </CharString>
        <CharString name="eight">
          514 -22 28 635 25 hstem
          71 48 275 48 vstem
          470 -24 callgsubr
        </CharString>
</ttFont>
